<svg width="31" height="31" viewBox="0 0 31 31" fill="none" xmlns="http://www.w3.org/2000/svg">
<path d="M15.356 27.1758C15.7119 26.6278 15.2364 26 14.583 26H9.41497C8.76154 26 8.28605 26.6278 8.64196 27.1758C9.35506 28.2738 10.5922 29 11.999 29C13.4057 29 14.6429 28.2738 15.356 27.1758Z" fill="#B6B6B6"/>
<path d="M20.5858 24H3.40408C2.62863 24 2 23.3714 2 22.5959C2 22.2151 2.15471 21.8506 2.42864 21.586L3.45736 20.5924C3.84919 20.2139 4.06969 19.692 4.06791 19.1473L4.06086 16.9957C4.04641 12.584 7.61873 9 12.0304 9C16.4319 9 20 12.5681 20 16.9696L20 19.1716C20 19.702 20.2107 20.2107 20.5858 20.5858L21.5858 21.5858C21.851 21.851 22 22.2107 22 22.5858C22 23.3668 21.3668 24 20.5858 24Z" fill="#B6B6B6"/>
<circle cx="27" cy="4" r="4" fill="#FF5630"/>
</svg>
