<svg width="32" height="32" viewBox="0 0 32 32" fill="none" xmlns="http://www.w3.org/2000/svg">
<path d="M20.7203 15.0532L13.1736 7.51989C13.0497 7.39491 12.9022 7.29572 12.7397 7.22803C12.5773 7.16034 12.403 7.12549 12.227 7.12549C12.051 7.12549 11.8767 7.16034 11.7142 7.22803C11.5517 7.29572 11.4043 7.39491 11.2803 7.51989C11.032 7.7697 10.8926 8.10764 10.8926 8.45989C10.8926 8.81213 11.032 9.15007 11.2803 9.39989L17.8803 16.0666L11.2803 22.6666C11.032 22.9164 10.8926 23.2543 10.8926 23.6066C10.8926 23.9588 11.032 24.2967 11.2803 24.5466C11.4038 24.6725 11.551 24.7728 11.7135 24.8414C11.876 24.9101 12.0506 24.9458 12.227 24.9466C12.4034 24.9458 12.5779 24.9101 12.7404 24.8414C12.9029 24.7728 13.0501 24.6725 13.1736 24.5466L20.7203 17.0132C20.8556 16.8884 20.9637 16.7368 21.0375 16.5682C21.1114 16.3995 21.1495 16.2174 21.1495 16.0332C21.1495 15.8491 21.1114 15.6669 21.0375 15.4983C20.9637 15.3296 20.8556 15.1781 20.7203 15.0532Z" fill="#6C5DD3"/>
</svg>
