<svg width="24" height="24" viewBox="0 0 24 24" fill="none" xmlns="http://www.w3.org/2000/svg">
<path fill-rule="evenodd" clip-rule="evenodd" d="M6.93555 7C6.93555 6.44772 7.37917 6 7.92641 6H19.8168C20.3641 6 20.8077 6.44772 20.8077 7C20.8077 7.55228 20.3641 8 19.8168 8H7.92641C7.37917 8 6.93555 7.55228 6.93555 7Z" fill="#B6B6B6"/>
<path fill-rule="evenodd" clip-rule="evenodd" d="M6.93555 12C6.93555 11.4477 7.37917 11 7.92641 11H19.8168C20.3641 11 20.8077 11.4477 20.8077 12C20.8077 12.5523 20.3641 13 19.8168 13H7.92641C7.37917 13 6.93555 12.5523 6.93555 12Z" fill="#B6B6B6"/>
<path fill-rule="evenodd" clip-rule="evenodd" d="M6.93555 17C6.93555 16.4477 7.37917 16 7.92641 16H19.8168C20.3641 16 20.8077 16.4477 20.8077 17C20.8077 17.5523 20.3641 18 19.8168 18H7.92641C7.37917 18 6.93555 17.5523 6.93555 17Z" fill="#B6B6B6"/>
<path d="M4.95439 7C4.95439 7.55228 4.51076 8 3.96352 8C3.41628 8 2.97266 7.55228 2.97266 7C2.97266 6.44772 3.41628 6 3.96352 6C4.51076 6 4.95439 6.44772 4.95439 7Z" fill="#B6B6B6"/>
<path d="M4.95439 12C4.95439 12.5523 4.51076 13 3.96352 13C3.41628 13 2.97266 12.5523 2.97266 12C2.97266 11.4477 3.41628 11 3.96352 11C4.51076 11 4.95439 11.4477 4.95439 12Z" fill="#B6B6B6"/>
<path d="M4.95439 17C4.95439 17.5523 4.51076 18 3.96352 18C3.41628 18 2.97266 17.5523 2.97266 17C2.97266 16.4477 3.41628 16 3.96352 16C4.51076 16 4.95439 16.4477 4.95439 17Z" fill="#B6B6B6"/>
</svg>
