<svg width="24" height="24" viewBox="0 0 24 24" fill="none" xmlns="http://www.w3.org/2000/svg">
<path fill-rule="evenodd" clip-rule="evenodd" d="M4.93088 3C5.47553 3 5.91705 3.40294 5.91705 3.9V4.8H13.8065V3.9C13.8065 3.40294 14.248 3 14.7926 3C15.3373 3 15.7788 3.40294 15.7788 3.9V4.8H16.765C18.3989 4.8 19.7235 6.00883 19.7235 7.5V18.3C19.7235 19.7912 18.3989 21 16.765 21H2.95853C1.32458 21 0 19.7912 0 18.3V7.5C0 6.00883 1.32458 4.8 2.95853 4.8H3.9447V3.9C3.9447 3.40294 4.38623 3 4.93088 3ZM13.8065 6.6V7.5C13.8065 7.99706 14.248 8.4 14.7926 8.4C15.3373 8.4 15.7788 7.99706 15.7788 7.5V6.6H16.765C17.3096 6.6 17.7512 7.00294 17.7512 7.5V10.2H1.97235V7.5C1.97235 7.00294 2.41388 6.6 2.95853 6.6H3.9447V7.5C3.9447 7.99706 4.38623 8.4 4.93088 8.4C5.47553 8.4 5.91705 7.99706 5.91705 7.5V6.6H13.8065ZM1.97235 12V18.3C1.97235 18.7971 2.41388 19.2 2.95853 19.2H16.765C17.3096 19.2 17.7512 18.7971 17.7512 18.3V12H1.97235Z" fill="#B6B6B6"/>
</svg>
