<svg width="244" height="248" viewBox="0 0 244 248" fill="none" xmlns="http://www.w3.org/2000/svg">
<g id="Group 20">
<path id="Ellipse 134" d="M232.705 126.428C238.533 126.556 243.406 121.924 243.043 116.106C242.007 99.5031 237.711 83.2453 230.372 68.3164C223.109 53.543 213.047 40.4378 200.809 29.7425C196.291 25.795 189.453 26.9774 186.028 31.903V31.903C182.703 36.6853 183.858 43.2076 188.188 47.1031C197.807 55.7567 205.738 66.2394 211.521 78.0023C217.316 89.7907 220.815 102.582 221.859 115.667C222.323 121.471 226.884 126.301 232.705 126.428V126.428Z" fill="#EFF2F4"/>
<path id="Ellipse 133" d="M200.47 43.7761C204.524 39.6311 204.554 32.9651 200.161 29.1805C184.356 15.5637 165.361 6.26208 144.954 2.24097C121.158 -2.44806 96.5331 0.258334 74.2552 10.0112C51.9772 19.764 33.0679 36.1161 19.9654 56.9588C8.72997 74.8314 2.20619 95.3033 0.938367 116.392C0.588489 122.212 5.47258 126.833 11.3013 126.691V126.691C17.1213 126.55 21.671 121.71 22.1211 115.905C23.4222 99.1247 28.7546 82.8721 37.7138 68.6203C48.5372 51.4031 64.1573 37.8954 82.5601 29.8391C100.963 21.7827 121.304 19.5471 140.962 23.4205C157.073 26.5951 172.119 33.7542 184.816 44.2017C189.436 48.0026 196.287 48.0527 200.47 43.7761V43.7761Z" fill="#6C5DD3"/>
</g>
</svg>
