<svg width="40" height="40" viewBox="0 0 40 40" fill="none" xmlns="http://www.w3.org/2000/svg" xmlns:xlink="http://www.w3.org/1999/xlink">
<path d="M15,20C16.978,20 18.911,19.414 20.556,18.315C22.2,17.216 23.482,15.654 24.239,13.827C24.996,12 25.194,9.989 24.808,8.049C24.422,6.109 23.47,4.327 22.071,2.929C20.673,1.53 18.891,0.578 16.951,0.192C15.011,-0.194 13,0.004 11.173,0.761C9.346,1.518 7.784,2.8 6.685,4.444C5.586,6.089 5,8.022 5,10C5.003,12.651 6.057,15.193 7.932,17.068C9.807,18.943 12.349,19.997 15,20ZM15,3.333C16.319,3.333 17.607,3.724 18.704,4.457C19.8,5.189 20.655,6.231 21.159,7.449C21.664,8.667 21.796,10.007 21.539,11.301C21.281,12.594 20.646,13.782 19.714,14.714C18.782,15.646 17.594,16.281 16.301,16.539C15.007,16.796 13.667,16.664 12.449,16.159C11.231,15.655 10.189,14.8 9.457,13.704C8.724,12.607 8.333,11.319 8.333,10C8.333,8.232 9.036,6.536 10.286,5.286C11.536,4.036 13.232,3.333 15,3.333L15,3.333Z" fill="#868686"/>
<path d="M34.999,16.667L34.999,11.667L31.666,11.667L31.666,16.667L26.666,16.667L26.666,20L31.666,20L31.666,25L34.999,25L34.999,20L39.999,20L39.999,16.667L34.999,16.667Z" fill="#868686"/>
<path d="M21.738,23.333L8.262,23.333C6.071,23.336 3.971,24.207 2.423,25.756C0.874,27.305 0.003,29.404 0,31.595L0,40L3.333,40L3.333,31.595C3.335,30.288 3.854,29.035 4.778,28.111C5.702,27.187 6.955,26.668 8.262,26.666L21.738,26.666C23.045,26.668 24.298,27.187 25.222,28.111C26.146,29.035 26.665,30.288 26.667,31.595L26.667,40L30,40L30,31.595C29.997,29.404 29.126,27.305 27.577,25.756C26.028,24.207 23.929,23.336 21.738,23.333L21.738,23.333Z" fill="#868686"/>
</svg>
