<svg width="50" height="48" viewBox="0 0 50 48" fill="none" xmlns="http://www.w3.org/2000/svg" xmlns:xlink="http://www.w3.org/1999/xlink">
<path d="M46.796,22.16C46.796,21.056 45.901,20.16 44.796,20.16C43.692,20.16 42.796,21.056 42.796,22.16L46.796,22.16ZM44.796,24L46.796,24.001L46.796,24L44.796,24ZM32.075,7.548C33.085,7.996 34.266,7.541 34.714,6.531C35.162,5.522 34.707,4.34 33.697,3.892L32.075,7.548ZM42.796,22.16L42.796,24L46.796,24L46.796,22.16L42.796,22.16ZM42.796,23.999C42.794,27.879 41.533,31.654 39.199,34.763L42.398,37.165C45.25,33.365 46.794,28.748 46.796,24.001L42.796,23.999ZM39.199,34.763C36.865,37.872 33.583,40.148 29.841,41.249L30.971,45.087C35.537,43.742 39.545,40.964 42.398,37.165L39.199,34.763ZM29.841,41.249C26.1,42.351 22.101,42.219 18.442,40.872L17.061,44.626C21.527,46.269 26.406,46.431 30.971,45.087L29.841,41.249ZM18.442,40.872C14.782,39.526 11.66,37.039 9.538,33.783L6.187,35.966C8.78,39.946 12.595,42.983 17.061,44.626L18.442,40.872ZM9.538,33.783C7.417,30.527 6.41,26.676 6.666,22.805L2.675,22.541C2.361,27.277 3.594,31.986 6.187,35.966L9.538,33.783ZM6.666,22.805C6.922,18.934 8.429,15.248 10.961,12.297L7.926,9.692C4.831,13.298 2.988,17.805 2.675,22.541L6.666,22.805ZM10.961,12.297C13.494,9.346 16.919,7.288 20.724,6.432L19.846,2.529C15.203,3.574 11.021,6.086 7.926,9.692L10.961,12.297ZM20.724,6.432C24.53,5.576 28.512,5.967 32.075,7.548L33.697,3.892C29.348,1.962 24.49,1.485 19.846,2.529L20.724,6.432Z" fill="#5EAD56"/>
<path d="M46.208,9.416C46.99,8.637 46.992,7.37 46.212,6.588C45.432,5.806 44.166,5.804 43.384,6.584L46.208,9.416ZM24.711,28.02L23.3,29.437C24.08,30.215 25.343,30.214 26.123,29.436L24.711,28.02ZM20.097,20.603C19.314,19.823 18.048,19.826 17.268,20.609C16.489,21.391 16.492,22.658 17.274,23.437L20.097,20.603ZM43.384,6.584L23.299,26.604L26.123,29.436L46.208,9.416L43.384,6.584ZM26.122,26.603L20.097,20.603L17.274,23.437L23.3,29.437L26.122,26.603Z" fill="#5EAD56"/>
</svg>
