<svg width="54" height="52" viewBox="0 0 54 52" fill="none" xmlns="http://www.w3.org/2000/svg" xmlns:xlink="http://www.w3.org/1999/xlink">
<path d="M49.718,23.729C49.718,22.624 48.823,21.729 47.718,21.729C46.614,21.729 45.718,22.624 45.718,23.729L49.718,23.729ZM47.718,25.655L49.718,25.656L49.718,25.655L47.718,25.655ZM33.837,8.358C34.854,8.788 36.027,8.312 36.457,7.294C36.887,6.276 36.41,5.103 35.393,4.673L33.837,8.358ZM45.718,23.729L45.718,25.655L49.718,25.655L49.718,23.729L45.718,23.729ZM45.718,25.654C45.716,29.711 44.33,33.671 41.749,36.943L44.89,39.42C48.015,35.458 49.715,30.631 49.718,25.656L45.718,25.654ZM41.749,36.943C39.167,40.216 35.522,42.628 31.347,43.798L32.426,47.65C37.39,46.259 41.766,43.38 44.89,39.42L41.749,36.943ZM31.347,43.798C27.171,44.968 22.706,44.827 18.624,43.398L17.302,47.173C22.16,48.874 27.463,49.04 32.426,47.65L31.347,43.798ZM18.624,43.398C14.542,41.969 11.078,39.336 8.734,35.911L5.433,38.17C8.275,42.322 12.444,45.472 17.302,47.173L18.624,43.398ZM8.734,35.911C6.39,32.488 5.285,28.452 5.567,24.404L1.576,24.127C1.231,29.09 2.589,34.017 5.433,38.17L8.734,35.911ZM5.567,24.404C5.848,20.356 7.504,16.487 10.308,13.378L7.338,10.698C3.95,14.455 1.922,19.164 1.576,24.127L5.567,24.404ZM10.308,13.378C13.114,10.267 16.921,8.083 21.17,7.174L20.332,3.262C15.285,4.343 10.724,6.944 7.338,10.698L10.308,13.378ZM21.17,7.174C25.419,6.264 29.864,6.681 33.837,8.358L35.393,4.673C30.66,2.675 25.379,2.182 20.332,3.262L21.17,7.174Z" fill="#858585"/>
<path d="M49.095,10.354C49.897,9.594 49.93,8.328 49.17,7.527C48.41,6.726 47.144,6.692 46.342,7.452L49.095,10.354ZM25.621,29.864L24.246,31.316C25.017,32.047 26.226,32.047 26.998,31.315L25.621,29.864ZM20.368,22.131C19.566,21.371 18.3,21.405 17.54,22.207C16.781,23.008 16.815,24.274 17.617,25.034L20.368,22.131ZM46.342,7.452L24.245,28.413L26.998,31.315L49.095,10.354L46.342,7.452ZM26.997,28.413L20.368,22.131L17.617,25.034L24.246,31.316L26.997,28.413Z" fill="#858585"/>
</svg>
