<svg width="54" height="52" viewBox="0 0 54 52" fill="none" xmlns="http://www.w3.org/2000/svg" xmlns:xlink="http://www.w3.org/1999/xlink">
<path d="M49.715,23.729C49.715,22.624 48.819,21.729 47.715,21.729C46.61,21.729 45.715,22.624 45.715,23.729L49.715,23.729ZM47.715,25.655L49.715,25.656L49.715,25.655L47.715,25.655ZM33.833,8.358C34.85,8.788 36.024,8.312 36.453,7.294C36.883,6.276 36.406,5.103 35.389,4.673L33.833,8.358ZM45.715,23.729L45.715,25.655L49.715,25.655L49.715,23.729L45.715,23.729ZM45.715,25.654C45.712,29.711 44.327,33.671 41.745,36.943L44.886,39.42C48.011,35.458 49.712,30.631 49.715,25.656L45.715,25.654ZM41.745,36.943C39.163,40.216 35.518,42.628 31.343,43.798L32.422,47.65C37.386,46.259 41.762,43.38 44.886,39.42L41.745,36.943ZM31.343,43.798C27.167,44.968 22.702,44.827 18.62,43.398L17.298,47.173C22.156,48.874 27.459,49.04 32.422,47.65L31.343,43.798ZM18.62,43.398C14.539,41.969 11.074,39.336 8.73,35.911L5.429,38.17C8.271,42.322 12.44,45.472 17.298,47.173L18.62,43.398ZM8.73,35.911C6.386,32.488 5.281,28.452 5.563,24.404L1.572,24.127C1.227,29.09 2.585,34.017 5.429,38.17L8.73,35.911ZM5.563,24.404C5.844,20.356 7.5,16.487 10.304,13.378L7.334,10.698C3.946,14.455 1.918,19.164 1.572,24.127L5.563,24.404ZM10.304,13.378C13.11,10.267 16.917,8.083 21.166,7.174L20.328,3.262C15.281,4.343 10.72,6.944 7.334,10.698L10.304,13.378ZM21.166,7.174C25.415,6.264 29.86,6.681 33.833,8.358L35.389,4.673C30.656,2.675 25.375,2.182 20.328,3.262L21.166,7.174Z" fill="#858585"/>
<path d="M49.091,10.354C49.893,9.594 49.926,8.328 49.166,7.527C48.406,6.726 47.14,6.692 46.338,7.452L49.091,10.354ZM25.618,29.864L24.242,31.316C25.014,32.047 26.223,32.047 26.994,31.315L25.618,29.864ZM20.364,22.131C19.562,21.371 18.296,21.405 17.537,22.207C16.777,23.008 16.811,24.274 17.613,25.034L20.364,22.131ZM46.338,7.452L24.241,28.413L26.994,31.315L49.091,10.354L46.338,7.452ZM26.993,28.413L20.364,22.131L17.613,25.034L24.242,31.316L26.993,28.413Z" fill="#858585"/>
</svg>
