<svg width="54" height="52" viewBox="0 0 54 52" fill="none" xmlns="http://www.w3.org/2000/svg" xmlns:xlink="http://www.w3.org/1999/xlink">
<path d="M49.718,23.123C49.718,22.019 48.823,21.123 47.718,21.123C46.614,21.123 45.718,22.019 45.718,23.123L49.718,23.123ZM47.718,25.05L49.718,25.051L49.718,25.05L47.718,25.05ZM33.837,7.753C34.854,8.183 36.027,7.706 36.457,6.688C36.887,5.671 36.41,4.498 35.393,4.068L33.837,7.753ZM45.718,23.123L45.718,25.05L49.718,25.05L49.718,23.123L45.718,23.123ZM45.718,25.048C45.716,29.105 44.33,33.065 41.749,36.337L44.89,38.814C48.015,34.853 49.715,30.025 49.718,25.051L45.718,25.048ZM41.749,36.337C39.167,39.611 35.522,42.023 31.347,43.193L32.426,47.044C37.39,45.653 41.766,42.774 44.89,38.814L41.749,36.337ZM31.347,43.193C27.171,44.363 22.706,44.222 18.624,42.792L17.302,46.568C22.16,48.268 27.463,48.435 32.426,47.044L31.347,43.193ZM18.624,42.792C14.542,41.364 11.078,38.73 8.734,35.305L5.433,37.565C8.275,41.716 12.444,44.867 17.302,46.568L18.624,42.792ZM8.734,35.305C6.39,31.882 5.285,27.847 5.567,23.799L1.576,23.521C1.231,28.484 2.589,33.411 5.433,37.565L8.734,35.305ZM5.567,23.799C5.848,19.75 7.504,15.881 10.308,12.772L7.338,10.093C3.95,13.849 1.922,18.558 1.576,23.521L5.567,23.799ZM10.308,12.772C13.114,9.661 16.921,7.478 21.17,6.568L20.332,2.657C15.285,3.737 10.724,6.339 7.338,10.093L10.308,12.772ZM21.17,6.568C25.419,5.658 29.864,6.076 33.837,7.753L35.393,4.068C30.66,2.07 25.379,1.576 20.332,2.657L21.17,6.568Z" fill="#858585"/>
<path d="M49.095,9.749C49.897,8.989 49.93,7.723 49.17,6.921C48.41,6.12 47.144,6.087 46.342,6.847L49.095,9.749ZM25.621,29.259L24.246,30.711C25.017,31.442 26.226,31.442 26.998,30.71L25.621,29.259ZM20.368,21.525C19.566,20.765 18.3,20.799 17.54,21.601C16.781,22.403 16.815,23.669 17.617,24.429L20.368,21.525ZM46.342,6.847L24.245,27.808L26.998,30.71L49.095,9.749L46.342,6.847ZM26.997,27.807L20.368,21.525L17.617,24.429L24.246,30.711L26.997,27.807Z" fill="#858585"/>
</svg>
