<svg width="52" height="50" viewBox="0 0 52 50" fill="none" xmlns="http://www.w3.org/2000/svg" xmlns:xlink="http://www.w3.org/1999/xlink">
<path d="M48.464,22.944C48.464,21.839 47.569,20.944 46.464,20.944C45.359,20.944 44.464,21.839 44.464,22.944L48.464,22.944ZM46.464,24.87L48.464,24.871L48.464,24.87L46.464,24.87ZM33.016,7.563C34.028,8.006 35.208,7.545 35.65,6.533C36.093,5.521 35.631,4.341 34.62,3.899L33.016,7.563ZM44.464,22.944L44.464,24.87L48.464,24.87L48.464,22.944L44.464,22.944ZM44.464,24.869C44.462,28.944 43.118,32.913 40.627,36.185L43.81,38.608C46.827,34.646 48.461,29.827 48.464,24.871L44.464,24.869ZM40.627,36.185C38.137,39.457 34.63,41.856 30.627,43.018L31.743,46.86C36.56,45.461 40.794,42.569 43.81,38.608L40.627,36.185ZM30.627,43.018C26.624,44.181 22.345,44.041 18.43,42.621L17.066,46.381C21.778,48.09 26.926,48.258 31.743,46.86L30.627,43.018ZM18.43,42.621C14.515,41.201 11.18,38.579 8.917,35.153L5.579,37.358C8.322,41.509 12.353,44.671 17.066,46.381L18.43,42.621ZM8.917,35.153C6.654,31.728 5.581,27.681 5.854,23.615L1.863,23.347C1.531,28.292 2.836,33.207 5.579,37.358L8.917,35.153ZM5.854,23.615C6.127,19.548 7.732,15.672 10.436,12.566L7.418,9.94C4.146,13.699 2.195,18.401 1.863,23.347L5.854,23.615ZM10.436,12.566C13.14,9.46 16.799,7.289 20.872,6.386L20.005,2.481C15.106,3.567 10.69,6.181 7.418,9.94L10.436,12.566ZM20.872,6.386C24.944,5.482 29.205,5.896 33.016,7.563L34.62,3.899C30.03,1.891 24.904,1.394 20.005,2.481L20.872,6.386Z" fill="#858585"/>
<path d="M47.866,9.545C48.653,8.77 48.664,7.504 47.89,6.716C47.116,5.928 45.85,5.918 45.062,6.692L47.866,9.545ZM25.138,29.079L23.737,30.506C24.515,31.27 25.762,31.27 26.54,30.506L25.138,29.079ZM20.141,21.37C19.353,20.596 18.087,20.608 17.313,21.396C16.539,22.184 16.551,23.45 17.339,24.224L20.141,21.37ZM45.062,6.692L23.736,27.653L26.54,30.506L47.866,9.545L45.062,6.692ZM26.539,27.652L20.141,21.37L17.339,24.224L23.737,30.506L26.539,27.652Z" fill="#858585"/>
</svg>
