<svg width="54" height="50" viewBox="0 0 54 50" fill="none" xmlns="http://www.w3.org/2000/svg" xmlns:xlink="http://www.w3.org/1999/xlink">
<path d="M49.718,22.336C49.718,21.232 48.823,20.336 47.718,20.336C46.614,20.336 45.718,21.232 45.718,22.336L49.718,22.336ZM47.718,24.263L49.718,24.264L49.718,24.263L47.718,24.263ZM33.837,6.966C34.854,7.396 36.027,6.919 36.457,5.901C36.887,4.884 36.41,3.711 35.393,3.281L33.837,6.966ZM45.718,22.336L45.718,24.263L49.718,24.263L49.718,22.336L45.718,22.336ZM45.718,24.261C45.716,28.318 44.33,32.278 41.749,35.55L44.89,38.027C48.015,34.066 49.715,29.238 49.718,24.264L45.718,24.261ZM41.749,35.55C39.167,38.824 35.522,41.236 31.347,42.406L32.426,46.257C37.39,44.866 41.766,41.987 44.89,38.027L41.749,35.55ZM31.347,42.406C27.171,43.576 22.706,43.435 18.624,42.005L17.302,45.781C22.16,47.481 27.463,47.648 32.426,46.257L31.347,42.406ZM18.624,42.005C14.542,40.577 11.078,37.943 8.734,34.518L5.433,36.778C8.275,40.929 12.444,44.08 17.302,45.781L18.624,42.005ZM8.734,34.518C6.39,31.095 5.285,27.06 5.567,23.012L1.576,22.734C1.231,27.697 2.589,32.624 5.433,36.778L8.734,34.518ZM5.567,23.012C5.848,18.963 7.504,15.094 10.308,11.985L7.338,9.306C3.95,13.062 1.922,17.771 1.576,22.734L5.567,23.012ZM10.308,11.985C13.114,8.874 16.921,6.691 21.17,5.781L20.332,1.87C15.285,2.95 10.724,5.552 7.338,9.306L10.308,11.985ZM21.17,5.781C25.419,4.871 29.864,5.289 33.837,6.966L35.393,3.281C30.66,1.282 25.379,0.789 20.332,1.87L21.17,5.781Z" fill="#858585"/>
<path d="M49.095,8.962C49.897,8.202 49.93,6.936 49.17,6.134C48.41,5.333 47.144,5.3 46.342,6.06L49.095,8.962ZM25.621,28.472L24.246,29.924C25.017,30.655 26.226,30.655 26.998,29.923L25.621,28.472ZM20.368,20.738C19.566,19.978 18.3,20.012 17.54,20.814C16.781,21.616 16.815,22.882 17.617,23.641L20.368,20.738ZM46.342,6.06L24.245,27.021L26.998,29.923L49.095,8.962L46.342,6.06ZM26.997,27.02L20.368,20.738L17.617,23.641L24.246,29.924L26.997,27.02Z" fill="#858585"/>
</svg>
