<svg width="52" height="52" viewBox="0 0 52 52" fill="none" xmlns="http://www.w3.org/2000/svg" xmlns:xlink="http://www.w3.org/1999/xlink">
<path d="M48.464,23.123C48.464,22.019 47.569,21.123 46.464,21.123C45.359,21.123 44.464,22.019 44.464,23.123L48.464,23.123ZM46.464,25.05L48.464,25.051L48.464,25.05L46.464,25.05ZM33.016,7.743C34.028,8.186 35.208,7.724 35.65,6.712C36.093,5.7 35.631,4.521 34.62,4.078L33.016,7.743ZM44.464,23.123L44.464,25.05L48.464,25.05L48.464,23.123L44.464,23.123ZM44.464,25.049C44.462,29.124 43.118,33.093 40.627,36.365L43.81,38.788C46.827,34.825 48.461,30.007 48.464,25.051L44.464,25.049ZM40.627,36.365C38.137,39.636 34.63,42.036 30.627,43.198L31.743,47.04C36.56,45.641 40.794,42.749 43.81,38.788L40.627,36.365ZM30.627,43.198C26.624,44.36 22.345,44.221 18.43,42.8L17.066,46.561C21.778,48.27 26.926,48.438 31.743,47.04L30.627,43.198ZM18.43,42.8C14.515,41.38 11.18,38.758 8.917,35.333L5.579,37.538C8.322,41.689 12.353,44.851 17.066,46.561L18.43,42.8ZM8.917,35.333C6.654,31.908 5.581,27.861 5.854,23.794L1.863,23.526C1.531,28.471 2.836,33.387 5.579,37.538L8.917,35.333ZM5.854,23.794C6.127,19.728 7.732,15.852 10.436,12.746L7.418,10.12C4.146,13.879 2.195,18.581 1.863,23.526L5.854,23.794ZM10.436,12.746C13.14,9.639 16.799,7.469 20.872,6.565L20.005,2.66C15.106,3.747 10.69,6.361 7.418,10.12L10.436,12.746ZM20.872,6.565C24.944,5.662 29.205,6.076 33.016,7.743L34.62,4.078C30.03,2.07 24.904,1.573 20.005,2.66L20.872,6.565Z" fill="#858585"/>
<path d="M47.866,9.724C48.653,8.95 48.664,7.684 47.89,6.896C47.116,6.108 45.85,6.097 45.062,6.871L47.866,9.724ZM25.138,29.259L23.737,30.686C24.515,31.45 25.762,31.45 26.54,30.685L25.138,29.259ZM20.141,21.55C19.353,20.776 18.087,20.787 17.313,21.576C16.539,22.364 16.551,23.63 17.339,24.404L20.141,21.55ZM45.062,6.871L23.736,27.833L26.54,30.685L47.866,9.724L45.062,6.871ZM26.539,27.832L20.141,21.55L17.339,24.404L23.737,30.686L26.539,27.832Z" fill="#858585"/>
</svg>
