<svg width="24" height="24" viewBox="0 0 24 24" fill="none" xmlns="http://www.w3.org/2000/svg" xmlns:xlink="http://www.w3.org/1999/xlink">
<path d="M24,11.08C24,9.975 23.105,9.08 22,9.08C20.895,9.08 20,9.975 20,11.08L24,11.08ZM22,12L24,12.001L24,12L22,12ZM15.256,4.687C16.265,5.136 17.447,4.683 17.897,3.674C18.346,2.665 17.893,1.483 16.884,1.033L15.256,4.687ZM20,11.08L20,12L24,12L24,11.08L20,11.08ZM20,11.999C19.999,13.724 19.44,15.402 18.407,16.784L21.611,19.179C23.161,17.107 23.999,14.589 24,12.001L20,11.999ZM18.407,16.784C17.375,18.166 15.923,19.177 14.268,19.666L15.402,23.502C17.884,22.768 20.062,21.252 21.611,19.179L18.407,16.784ZM14.268,19.666C12.614,20.155 10.846,20.096 9.228,19.498L7.841,23.251C10.269,24.147 12.921,24.235 15.402,23.502L14.268,19.666ZM9.228,19.498C7.609,18.901 6.228,17.796 5.289,16.348L1.933,18.525C3.342,20.696 5.414,22.354 7.841,23.251L9.228,19.498ZM5.289,16.348C4.35,14.901 3.904,13.189 4.017,11.468L0.026,11.205C-0.144,13.787 0.525,16.355 1.933,18.525L5.289,16.348ZM4.017,11.468C4.131,9.746 4.798,8.108 5.919,6.796L2.878,4.198C1.197,6.165 0.196,8.622 0.026,11.205L4.017,11.468ZM5.919,6.796C7.039,5.485 8.554,4.571 10.237,4.191L9.355,0.289C6.831,0.859 4.559,2.23 2.878,4.198L5.919,6.796ZM10.237,4.191C11.92,3.811 13.68,3.985 15.256,4.687L16.884,1.033C14.52,-0.02 11.88,-0.281 9.355,0.289L10.237,4.191Z" fill="#858585"/>
<path d="M23.415,5.414C24.196,4.632 24.195,3.366 23.414,2.585C22.632,1.804 21.366,1.805 20.585,2.586L23.415,5.414ZM12,14.01L10.586,15.424C10.961,15.799 11.47,16.01 12.001,16.01C12.531,16.01 13.04,15.799 13.415,15.424L12,14.01ZM10.414,9.596C9.633,8.815 8.367,8.815 7.586,9.596C6.805,10.377 6.805,11.643 7.586,12.424L10.414,9.596ZM20.585,2.586L10.585,12.596L13.415,15.424L23.415,5.414L20.585,2.586ZM13.414,12.596L10.414,9.596L7.586,12.424L10.586,15.424L13.414,12.596Z" fill="#858585"/>
</svg>
