<svg width="54" height="50" viewBox="0 0 54 50" fill="none" xmlns="http://www.w3.org/2000/svg" xmlns:xlink="http://www.w3.org/1999/xlink">
<path d="M49.718,22.944C49.718,21.839 48.823,20.944 47.718,20.944C46.614,20.944 45.718,21.839 45.718,22.944L49.718,22.944ZM47.718,24.87L49.718,24.871L49.718,24.87L47.718,24.87ZM33.837,7.573C34.854,8.003 36.027,7.526 36.457,6.509C36.887,5.491 36.41,4.318 35.393,3.888L33.837,7.573ZM45.718,22.944L45.718,24.87L49.718,24.87L49.718,22.944L45.718,22.944ZM45.718,24.869C45.716,28.926 44.33,32.886 41.749,36.157L44.89,38.635C48.015,34.673 49.715,29.846 49.718,24.871L45.718,24.869ZM41.749,36.157C39.167,39.431 35.522,41.843 31.347,43.013L32.426,46.865C37.39,45.474 41.766,42.594 44.89,38.635L41.749,36.157ZM31.347,43.013C27.171,44.183 22.706,44.042 18.624,42.613L17.302,46.388C22.16,48.089 27.463,48.255 32.426,46.865L31.347,43.013ZM18.624,42.613C14.542,41.184 11.078,38.55 8.734,35.125L5.433,37.385C8.275,41.537 12.444,44.687 17.302,46.388L18.624,42.613ZM8.734,35.125C6.39,31.703 5.285,27.667 5.567,23.619L1.576,23.341C1.231,28.305 2.589,33.232 5.433,37.385L8.734,35.125ZM5.567,23.619C5.848,19.57 7.504,15.701 10.308,12.592L7.338,9.913C3.95,13.669 1.922,18.378 1.576,23.341L5.567,23.619ZM10.308,12.592C13.114,9.482 16.921,7.298 21.17,6.389L20.332,2.477C15.285,3.558 10.724,6.159 7.338,9.913L10.308,12.592ZM21.17,6.389C25.419,5.479 29.864,5.896 33.837,7.573L35.393,3.888C30.66,1.89 25.379,1.397 20.332,2.477L21.17,6.389Z" fill="#858585"/>
<path d="M49.095,9.57C49.897,8.81 49.93,7.544 49.17,6.743C48.41,5.941 47.144,5.908 46.342,6.668L49.095,9.57ZM25.621,29.08L24.246,30.532C25.017,31.263 26.226,31.263 26.998,30.531L25.621,29.08ZM20.368,21.346C19.566,20.587 18.3,20.621 17.54,21.422C16.781,22.224 16.815,23.49 17.617,24.25L20.368,21.346ZM46.342,6.668L24.245,27.629L26.998,30.531L49.095,9.57L46.342,6.668ZM26.997,27.628L20.368,21.346L17.617,24.25L24.246,30.532L26.997,27.628Z" fill="#858585"/>
</svg>
