<svg width="52" height="52" viewBox="0 0 52 52" fill="none" xmlns="http://www.w3.org/2000/svg" xmlns:xlink="http://www.w3.org/1999/xlink">
<path d="M48.464,23.729C48.464,22.624 47.569,21.729 46.464,21.729C45.359,21.729 44.464,22.624 44.464,23.729L48.464,23.729ZM46.464,25.655L48.464,25.657L48.464,25.655L46.464,25.655ZM33.016,8.349C34.028,8.791 35.208,8.33 35.65,7.318C36.093,6.306 35.631,5.127 34.62,4.684L33.016,8.349ZM44.464,23.729L44.464,25.655L48.464,25.655L48.464,23.729L44.464,23.729ZM44.464,25.654C44.462,29.729 43.118,33.699 40.627,36.97L43.81,39.393C46.827,35.431 48.461,30.613 48.464,25.657L44.464,25.654ZM40.627,36.97C38.137,40.242 34.63,42.641 30.627,43.804L31.743,47.645C36.56,46.246 40.794,43.354 43.81,39.393L40.627,36.97ZM30.627,43.804C26.624,44.966 22.345,44.826 18.43,43.406L17.066,47.166C21.778,48.876 26.926,49.043 31.743,47.645L30.627,43.804ZM18.43,43.406C14.515,41.986 11.18,39.364 8.917,35.938L5.579,38.143C8.322,42.294 12.353,45.456 17.066,47.166L18.43,43.406ZM8.917,35.938C6.654,32.513 5.581,28.466 5.854,24.4L1.863,24.132C1.531,29.077 2.836,33.992 5.579,38.143L8.917,35.938ZM5.854,24.4C6.127,20.333 7.732,16.457 10.436,13.351L7.418,10.725C4.146,14.484 2.195,19.187 1.863,24.132L5.854,24.4ZM10.436,13.351C13.14,10.245 16.799,8.074 20.872,7.171L20.005,3.266C15.106,4.353 10.69,6.967 7.418,10.725L10.436,13.351ZM20.872,7.171C24.944,6.267 29.205,6.681 33.016,8.349L34.62,4.684C30.03,2.676 24.904,2.179 20.005,3.266L20.872,7.171Z" fill="#858585"/>
<path d="M47.866,10.33C48.653,9.555 48.664,8.289 47.89,7.501C47.116,6.714 45.85,6.703 45.062,7.477L47.866,10.33ZM25.138,29.864L23.737,31.291C24.515,32.056 25.762,32.055 26.54,31.291L25.138,29.864ZM20.141,22.155C19.353,21.381 18.087,21.393 17.313,22.181C16.539,22.969 16.551,24.235 17.339,25.009L20.141,22.155ZM45.062,7.477L23.736,28.438L26.54,31.291L47.866,10.33L45.062,7.477ZM26.539,28.437L20.141,22.155L17.339,25.009L23.737,31.291L26.539,28.437Z" fill="#858585"/>
</svg>
