<svg width="40" height="40" viewBox="0 0 40 40" fill="none" xmlns="http://www.w3.org/2000/svg" xmlns:xlink="http://www.w3.org/1999/xlink">
<path d="M38.667,18.467C38.667,17.363 37.772,16.467 36.667,16.467C35.563,16.467 34.667,17.363 34.667,18.467L38.667,18.467ZM36.667,20L38.667,20.002L38.667,20L36.667,20ZM25.97,6.594C26.979,7.044 28.161,6.59 28.611,5.581C29.06,4.572 28.607,3.39 27.598,2.94L25.97,6.594ZM34.667,18.467L34.667,20L38.667,20L38.667,18.467L34.667,18.467ZM34.667,19.999C34.666,23.162 33.641,26.239 31.748,28.773L34.951,31.168C37.362,27.944 38.665,24.027 38.667,20.002L34.667,19.999ZM31.748,28.773C29.854,31.306 27.192,33.159 24.159,34.056L25.293,37.891C29.153,36.75 32.541,34.392 34.951,31.168L31.748,28.773ZM24.159,34.056C21.126,34.952 17.885,34.845 14.918,33.749L13.532,37.501C17.308,38.896 21.433,39.033 25.293,37.891L24.159,34.056ZM14.918,33.749C11.951,32.653 9.418,30.627 7.697,27.974L4.341,30.151C6.532,33.528 9.756,36.106 13.532,37.501L14.918,33.749ZM7.697,27.974C5.975,25.32 5.158,22.182 5.366,19.026L1.374,18.763C1.11,22.779 2.15,26.774 4.341,30.151L7.697,27.974ZM5.366,19.026C5.574,15.87 6.797,12.866 8.851,10.462L5.811,7.863C3.195,10.923 1.639,14.746 1.374,18.763L5.366,19.026ZM8.851,10.462C10.906,8.057 13.683,6.382 16.768,5.685L15.887,1.783C11.961,2.67 8.426,4.803 5.811,7.863L8.851,10.462ZM16.768,5.685C19.853,4.988 23.081,5.307 25.97,6.594L27.598,2.94C23.921,1.302 19.813,0.896 15.887,1.783L16.768,5.685Z" fill="#5EAD56"/>
<path d="M38.082,8.08C38.862,7.299 38.862,6.033 38.08,5.252C37.299,4.471 36.032,4.472 35.252,5.253L38.082,8.08ZM20,23.35L18.586,24.765C18.961,25.14 19.47,25.35 20,25.35C20.531,25.35 21.04,25.139 21.415,24.764L20,23.35ZM16.414,16.936C15.633,16.155 14.367,16.155 13.586,16.936C12.805,17.717 12.805,18.983 13.586,19.765L16.414,16.936ZM35.252,5.253L18.585,21.937L21.415,24.764L38.082,8.08L35.252,5.253ZM21.414,21.936L16.414,16.936L13.586,19.765L18.586,24.765L21.414,21.936Z" fill="#5EAD56"/>
</svg>
