<svg width="54" height="52" viewBox="0 0 54 52" fill="none" xmlns="http://www.w3.org/2000/svg" xmlns:xlink="http://www.w3.org/1999/xlink">
<path d="M49.715,23.123C49.715,22.019 48.819,21.123 47.715,21.123C46.61,21.123 45.715,22.019 45.715,23.123L49.715,23.123ZM47.715,25.05L49.715,25.051L49.715,25.05L47.715,25.05ZM33.833,7.753C34.85,8.183 36.024,7.706 36.453,6.688C36.883,5.671 36.406,4.498 35.389,4.068L33.833,7.753ZM45.715,23.123L45.715,25.05L49.715,25.05L49.715,23.123L45.715,23.123ZM45.715,25.048C45.712,29.105 44.327,33.065 41.745,36.337L44.886,38.814C48.011,34.853 49.712,30.025 49.715,25.051L45.715,25.048ZM41.745,36.337C39.163,39.611 35.518,42.023 31.343,43.193L32.422,47.044C37.386,45.653 41.762,42.774 44.886,38.814L41.745,36.337ZM31.343,43.193C27.167,44.363 22.702,44.222 18.62,42.792L17.298,46.568C22.156,48.268 27.459,48.435 32.422,47.044L31.343,43.193ZM18.62,42.792C14.539,41.364 11.074,38.73 8.73,35.305L5.429,37.565C8.271,41.716 12.44,44.867 17.298,46.568L18.62,42.792ZM8.73,35.305C6.386,31.882 5.281,27.847 5.563,23.799L1.572,23.521C1.227,28.484 2.585,33.411 5.429,37.565L8.73,35.305ZM5.563,23.799C5.844,19.75 7.5,15.881 10.304,12.772L7.334,10.093C3.946,13.849 1.918,18.558 1.572,23.521L5.563,23.799ZM10.304,12.772C13.11,9.661 16.917,7.478 21.166,6.568L20.328,2.657C15.281,3.737 10.72,6.339 7.334,10.093L10.304,12.772ZM21.166,6.568C25.415,5.658 29.86,6.076 33.833,7.753L35.389,4.068C30.656,2.07 25.375,1.576 20.328,2.657L21.166,6.568Z" fill="#858585"/>
<path d="M49.091,9.749C49.893,8.989 49.926,7.723 49.166,6.921C48.406,6.12 47.14,6.087 46.338,6.847L49.091,9.749ZM25.618,29.259L24.242,30.711C25.014,31.442 26.223,31.442 26.994,30.71L25.618,29.259ZM20.364,21.525C19.562,20.765 18.296,20.799 17.537,21.601C16.777,22.403 16.811,23.669 17.613,24.429L20.364,21.525ZM46.338,6.847L24.241,27.808L26.994,30.71L49.091,9.749L46.338,6.847ZM26.993,27.807L20.364,21.525L17.613,24.429L24.242,30.711L26.993,27.807Z" fill="#858585"/>
</svg>
