<svg width="50" height="48" viewBox="0 0 50 48" fill="none" xmlns="http://www.w3.org/2000/svg" xmlns:xlink="http://www.w3.org/1999/xlink">
<path d="M46.796,22.16C46.796,21.055 45.901,20.16 44.796,20.16C43.692,20.16 42.796,21.055 42.796,22.16L46.796,22.16ZM44.796,24L46.796,24.001L46.796,24L44.796,24ZM32.075,7.548C33.085,7.996 34.266,7.541 34.714,6.531C35.162,5.521 34.707,4.34 33.697,3.892L32.075,7.548ZM42.796,22.16L42.796,24L46.796,24L46.796,22.16L42.796,22.16ZM42.796,23.998C42.794,27.878 41.533,31.654 39.199,34.763L42.398,37.164C45.25,33.364 46.794,28.747 46.796,24.001L42.796,23.998ZM39.199,34.763C36.865,37.872 33.583,40.147 29.841,41.249L30.971,45.086C35.537,43.742 39.545,40.964 42.398,37.164L39.199,34.763ZM29.841,41.249C26.1,42.35 22.101,42.218 18.442,40.872L17.061,44.626C21.527,46.269 26.406,46.43 30.971,45.086L29.841,41.249ZM18.442,40.872C14.782,39.526 11.66,37.038 9.538,33.782L6.187,35.966C8.78,39.946 12.595,42.983 17.061,44.626L18.442,40.872ZM9.538,33.782C7.417,30.526 6.41,26.675 6.666,22.805L2.675,22.54C2.361,27.276 3.594,31.985 6.187,35.966L9.538,33.782ZM6.666,22.805C6.922,18.933 8.429,15.247 10.961,12.296L7.926,9.691C4.831,13.297 2.988,17.804 2.675,22.54L6.666,22.805ZM10.961,12.296C13.494,9.345 16.919,7.287 20.724,6.431L19.846,2.529C15.203,3.574 11.021,6.085 7.926,9.691L10.961,12.296ZM20.724,6.431C24.53,5.575 28.512,5.967 32.075,7.548L33.697,3.892C29.348,1.962 24.49,1.484 19.846,2.529L20.724,6.431Z" fill="#5EAD56"/>
<path d="M46.208,9.416C46.99,8.637 46.992,7.37 46.212,6.588C45.432,5.806 44.166,5.804 43.384,6.584L46.208,9.416ZM24.711,28.02L23.3,29.437C24.08,30.215 25.343,30.214 26.123,29.436L24.711,28.02ZM20.097,20.603C19.314,19.823 18.048,19.826 17.268,20.609C16.489,21.391 16.492,22.658 17.274,23.437L20.097,20.603ZM43.384,6.584L23.299,26.603L26.123,29.436L46.208,9.416L43.384,6.584ZM26.122,26.603L20.097,20.603L17.274,23.437L23.3,29.437L26.122,26.603Z" fill="#5EAD56"/>
</svg>
