<svg width="54" height="50" viewBox="0 0 54 50" fill="none" xmlns="http://www.w3.org/2000/svg" xmlns:xlink="http://www.w3.org/1999/xlink">
<path d="M49.715,22.944C49.715,21.839 48.819,20.944 47.715,20.944C46.61,20.944 45.715,21.839 45.715,22.944L49.715,22.944ZM47.715,24.87L49.715,24.871L49.715,24.87L47.715,24.87ZM33.833,7.573C34.85,8.003 36.024,7.526 36.453,6.509C36.883,5.491 36.406,4.318 35.389,3.888L33.833,7.573ZM45.715,22.944L45.715,24.87L49.715,24.87L49.715,22.944L45.715,22.944ZM45.715,24.869C45.712,28.926 44.327,32.886 41.745,36.157L44.886,38.635C48.011,34.673 49.712,29.846 49.715,24.871L45.715,24.869ZM41.745,36.157C39.163,39.431 35.518,41.843 31.343,43.013L32.422,46.865C37.386,45.474 41.762,42.594 44.886,38.635L41.745,36.157ZM31.343,43.013C27.167,44.183 22.702,44.042 18.62,42.613L17.298,46.388C22.156,48.089 27.459,48.255 32.422,46.865L31.343,43.013ZM18.62,42.613C14.539,41.184 11.074,38.55 8.73,35.125L5.429,37.385C8.271,41.537 12.44,44.687 17.298,46.388L18.62,42.613ZM8.73,35.125C6.386,31.703 5.281,27.667 5.563,23.619L1.572,23.341C1.227,28.305 2.585,33.232 5.429,37.385L8.73,35.125ZM5.563,23.619C5.844,19.57 7.5,15.701 10.304,12.592L7.334,9.913C3.946,13.669 1.918,18.378 1.572,23.341L5.563,23.619ZM10.304,12.592C13.11,9.482 16.917,7.298 21.166,6.389L20.328,2.477C15.281,3.558 10.72,6.159 7.334,9.913L10.304,12.592ZM21.166,6.389C25.415,5.479 29.86,5.896 33.833,7.573L35.389,3.888C30.656,1.89 25.375,1.397 20.328,2.477L21.166,6.389Z" fill="#858585"/>
<path d="M49.091,9.569C49.893,8.809 49.926,7.543 49.166,6.742C48.406,5.94 47.14,5.907 46.338,6.667L49.091,9.569ZM25.618,29.079L24.242,30.531C25.014,31.262 26.223,31.262 26.994,30.53L25.618,29.079ZM20.364,21.345C19.562,20.586 18.296,20.62 17.537,21.421C16.777,22.223 16.811,23.489 17.613,24.249L20.364,21.345ZM46.338,6.667L24.241,27.628L26.994,30.53L49.091,9.569L46.338,6.667ZM26.993,27.627L20.364,21.345L17.613,24.249L24.242,30.531L26.993,27.627Z" fill="#858585"/>
</svg>
