<svg width="40" height="40" viewBox="0 0 40 40" fill="none" xmlns="http://www.w3.org/2000/svg" xmlns:xlink="http://www.w3.org/1999/xlink">
<path d="M38.667,18.467C38.667,17.362 37.772,16.467 36.667,16.467C35.563,16.467 34.667,17.362 34.667,18.467L38.667,18.467ZM36.667,20L38.667,20.001L38.667,20L36.667,20ZM25.97,6.594C26.979,7.043 28.161,6.59 28.611,5.581C29.06,4.572 28.607,3.389 27.598,2.94L25.97,6.594ZM34.667,18.467L34.667,20L38.667,20L38.667,18.467L34.667,18.467ZM34.667,19.999C34.666,23.162 33.641,26.239 31.748,28.772L34.951,31.167C37.362,27.943 38.665,24.026 38.667,20.001L34.667,19.999ZM31.748,28.772C29.854,31.305 27.192,33.158 24.159,34.055L25.293,37.891C29.153,36.75 32.541,34.391 34.951,31.167L31.748,28.772ZM24.159,34.055C21.126,34.952 17.885,34.844 14.918,33.748L13.532,37.5C17.308,38.895 21.433,39.032 25.293,37.891L24.159,34.055ZM14.918,33.748C11.951,32.652 9.418,30.626 7.697,27.973L4.341,30.15C6.532,33.527 9.756,36.105 13.532,37.5L14.918,33.748ZM7.697,27.973C5.975,25.32 5.158,22.181 5.366,19.025L1.374,18.762C1.11,22.779 2.15,26.773 4.341,30.15L7.697,27.973ZM5.366,19.025C5.574,15.87 6.797,12.865 8.851,10.461L5.811,7.862C3.195,10.922 1.639,14.746 1.374,18.762L5.366,19.025ZM8.851,10.461C10.906,8.057 13.683,6.381 16.768,5.684L15.887,1.783C11.961,2.67 8.426,4.802 5.811,7.862L8.851,10.461ZM16.768,5.684C19.853,4.987 23.081,5.306 25.97,6.594L27.598,2.94C23.921,1.302 19.813,0.896 15.887,1.783L16.768,5.684Z" fill="#858585"/>
<path d="M38.082,8.08C38.862,7.299 38.862,6.032 38.08,5.252C37.299,4.471 36.032,4.472 35.252,5.253L38.082,8.08ZM20,23.35L18.586,24.764C18.961,25.139 19.47,25.35 20,25.35C20.531,25.35 21.04,25.139 21.415,24.763L20,23.35ZM16.414,16.936C15.633,16.155 14.367,16.155 13.586,16.936C12.805,17.717 12.805,18.983 13.586,19.764L16.414,16.936ZM35.252,5.253L18.585,21.936L21.415,24.763L38.082,8.08L35.252,5.253ZM21.414,21.936L16.414,16.936L13.586,19.764L18.586,24.764L21.414,21.936Z" fill="#858585"/>
</svg>
