<svg width="48" height="48" viewBox="0 0 48 48" fill="none" xmlns="http://www.w3.org/2000/svg" xmlns:xlink="http://www.w3.org/1999/xlink">
<path d="M46,22.16C46,21.056 45.105,20.16 44,20.16C42.895,20.16 42,21.056 42,22.16L46,22.16ZM44,24L46,24.001L46,24L44,24ZM31.326,7.547C32.335,7.997 33.517,7.543 33.967,6.534C34.416,5.525 33.963,4.343 32.954,3.893L31.326,7.547ZM42,22.16L42,24L46,24L46,22.16L42,22.16ZM42,23.999C41.998,27.881 40.741,31.658 38.417,34.766L41.621,37.161C44.461,33.362 45.997,28.746 46,24.001L42,23.999ZM38.417,34.766C36.093,37.875 32.826,40.15 29.104,41.25L30.238,45.086C34.787,43.741 38.78,40.961 41.621,37.161L38.417,34.766ZM29.104,41.25C25.381,42.351 21.403,42.219 17.762,40.873L16.376,44.625C20.826,46.27 25.688,46.431 30.238,45.086L29.104,41.25ZM17.762,40.873C14.121,39.528 11.012,37.042 8.9,33.786L5.544,35.963C8.126,39.943 11.926,42.981 16.376,44.625L17.762,40.873ZM8.9,33.786C6.787,30.53 5.784,26.678 6.039,22.804L2.048,22.541C1.736,27.275 2.962,31.983 5.544,35.963L8.9,33.786ZM6.039,22.804C6.294,18.931 7.795,15.244 10.317,12.294L7.276,9.695C4.194,13.301 2.36,17.807 2.048,22.541L6.039,22.804ZM10.317,12.294C12.839,9.343 16.247,7.287 20.033,6.431L19.152,2.53C14.524,3.575 10.359,6.089 7.276,9.695L10.317,12.294ZM20.033,6.431C23.819,5.576 27.78,5.967 31.326,7.547L32.954,3.893C28.621,1.963 23.779,1.484 19.152,2.53L20.033,6.431Z" fill="#5EAD56"/>
<path d="M45.415,9.414C46.196,8.632 46.195,7.366 45.414,6.585C44.632,5.804 43.366,5.805 42.585,6.586L45.415,9.414ZM24,28.02L22.586,29.434C22.961,29.809 23.47,30.02 24,30.02C24.531,30.02 25.04,29.809 25.415,29.434L24,28.02ZM19.414,20.606C18.633,19.825 17.367,19.825 16.586,20.606C15.805,21.387 15.805,22.653 16.586,23.434L19.414,20.606ZM42.585,6.586L22.585,26.606L25.415,29.434L45.415,9.414L42.585,6.586ZM25.414,26.606L19.414,20.606L16.586,23.434L22.586,29.434L25.414,26.606Z" fill="#5EAD56"/>
</svg>
