<svg width="54" height="50" viewBox="0 0 54 50" fill="none" xmlns="http://www.w3.org/2000/svg" xmlns:xlink="http://www.w3.org/1999/xlink">
<path d="M49.715,22.336C49.715,21.232 48.819,20.336 47.715,20.336C46.61,20.336 45.715,21.232 45.715,22.336L49.715,22.336ZM47.715,24.263L49.715,24.264L49.715,24.263L47.715,24.263ZM33.833,6.966C34.85,7.396 36.024,6.919 36.453,5.901C36.883,4.884 36.406,3.711 35.389,3.281L33.833,6.966ZM45.715,22.336L45.715,24.263L49.715,24.263L49.715,22.336L45.715,22.336ZM45.715,24.261C45.712,28.318 44.327,32.278 41.745,35.55L44.886,38.027C48.011,34.066 49.712,29.238 49.715,24.264L45.715,24.261ZM41.745,35.55C39.163,38.824 35.518,41.236 31.343,42.406L32.422,46.257C37.386,44.866 41.762,41.987 44.886,38.027L41.745,35.55ZM31.343,42.406C27.167,43.576 22.702,43.435 18.62,42.005L17.298,45.781C22.156,47.481 27.459,47.648 32.422,46.257L31.343,42.406ZM18.62,42.005C14.539,40.577 11.074,37.943 8.73,34.518L5.429,36.778C8.271,40.929 12.44,44.08 17.298,45.781L18.62,42.005ZM8.73,34.518C6.386,31.095 5.281,27.06 5.563,23.012L1.572,22.734C1.227,27.697 2.585,32.624 5.429,36.778L8.73,34.518ZM5.563,23.012C5.844,18.963 7.5,15.094 10.304,11.985L7.334,9.306C3.946,13.062 1.918,17.771 1.572,22.734L5.563,23.012ZM10.304,11.985C13.11,8.874 16.917,6.691 21.166,5.781L20.328,1.87C15.281,2.95 10.72,5.552 7.334,9.306L10.304,11.985ZM21.166,5.781C25.415,4.871 29.86,5.289 33.833,6.966L35.389,3.281C30.656,1.282 25.375,0.789 20.328,1.87L21.166,5.781Z" fill="#858585"/>
<path d="M49.091,8.962C49.893,8.202 49.926,6.936 49.166,6.134C48.406,5.333 47.14,5.3 46.338,6.06L49.091,8.962ZM25.618,28.472L24.242,29.924C25.014,30.655 26.223,30.655 26.994,29.923L25.618,28.472ZM20.364,20.738C19.562,19.978 18.296,20.012 17.537,20.814C16.777,21.616 16.811,22.882 17.613,23.641L20.364,20.738ZM46.338,6.06L24.241,27.021L26.994,29.923L49.091,8.962L46.338,6.06ZM26.993,27.02L20.364,20.738L17.613,23.641L24.242,29.924L26.993,27.02Z" fill="#858585"/>
</svg>
