<svg width="52" height="50" viewBox="0 0 52 50" fill="none" xmlns="http://www.w3.org/2000/svg" xmlns:xlink="http://www.w3.org/1999/xlink">
<path d="M48.464,22.336C48.464,21.232 47.569,20.336 46.464,20.336C45.359,20.336 44.464,21.232 44.464,22.336L48.464,22.336ZM46.464,24.263L48.464,24.264L48.464,24.263L46.464,24.263ZM33.016,6.956C34.028,7.399 35.208,6.937 35.65,5.925C36.093,4.913 35.631,3.734 34.62,3.291L33.016,6.956ZM44.464,22.336L44.464,24.263L48.464,24.263L48.464,22.336L44.464,22.336ZM44.464,24.262C44.462,28.337 43.118,32.306 40.627,35.577L43.81,38C46.827,34.038 48.461,29.22 48.464,24.264L44.464,24.262ZM40.627,35.577C38.137,38.849 34.63,41.249 30.627,42.411L31.743,46.252C36.56,44.854 40.794,41.962 43.81,38L40.627,35.577ZM30.627,42.411C26.624,43.573 22.345,43.433 18.43,42.013L17.066,45.773C21.778,47.483 26.926,47.651 31.743,46.252L30.627,42.411ZM18.43,42.013C14.515,40.593 11.18,37.971 8.917,34.546L5.579,36.751C8.322,40.901 12.353,44.064 17.066,45.773L18.43,42.013ZM8.917,34.546C6.654,31.121 5.581,27.073 5.854,23.007L1.863,22.739C1.531,27.684 2.836,32.599 5.579,36.751L8.917,34.546ZM5.854,23.007C6.127,18.941 7.732,15.065 10.436,11.959L7.418,9.333C4.146,13.092 2.195,17.794 1.863,22.739L5.854,23.007ZM10.436,11.959C13.14,8.852 16.799,6.682 20.872,5.778L20.005,1.873C15.106,2.96 10.69,5.574 7.418,9.333L10.436,11.959ZM20.872,5.778C24.944,4.875 29.205,5.288 33.016,6.956L34.62,3.291C30.03,1.283 24.904,0.786 20.005,1.873L20.872,5.778Z" fill="#858585"/>
<path d="M47.866,8.937C48.653,8.163 48.664,6.897 47.89,6.109C47.116,5.321 45.85,5.31 45.062,6.084L47.866,8.937ZM25.138,28.472L23.737,29.899C24.515,30.663 25.762,30.663 26.54,29.898L25.138,28.472ZM20.141,20.763C19.353,19.989 18.087,20 17.313,20.788C16.539,21.577 16.551,22.843 17.339,23.617L20.141,20.763ZM45.062,6.084L23.736,27.045L26.54,29.898L47.866,8.937L45.062,6.084ZM26.539,27.045L20.141,20.763L17.339,23.617L23.737,29.899L26.539,27.045Z" fill="#858585"/>
</svg>
