<svg width="32" height="32" viewBox="0 0 32 32" fill="none" xmlns="http://www.w3.org/2000/svg" xmlns:xlink="http://www.w3.org/1999/xlink">
<path d="M27.833,15C27.833,21.531 22.531,26.833 15.999,26.833L15.999,29.833C24.188,29.833 30.833,23.188 30.833,15L27.833,15ZM15.999,26.833C9.468,26.833 4.166,21.531 4.166,15L1.166,15C1.166,23.188 7.811,29.833 15.999,29.833L15.999,26.833ZM4.166,15C4.166,8.468 9.468,3.167 15.999,3.167L15.999,0.167C7.811,0.167 1.166,6.811 1.166,15L4.166,15ZM15.999,3.167C22.531,3.167 27.833,8.468 27.833,15L30.833,15C30.833,6.811 24.188,0.167 15.999,0.167L15.999,3.167Z" fill="#54577A"/>
<path d="M20.177,20.528C20.889,20.952 21.809,20.72 22.234,20.009C22.658,19.297 22.426,18.376 21.715,17.952L20.177,20.528ZM16.813,16.773L17.581,15.485L17.577,15.483L16.813,16.773ZM17.006,9.013C17.006,8.185 16.334,7.513 15.506,7.513C14.677,7.513 14.006,8.185 14.006,9.013L17.006,9.013ZM21.715,17.952L17.581,15.485L16.044,18.061L20.177,20.528L21.715,17.952ZM17.577,15.483C17.495,15.434 17.335,15.288 17.192,15.038C17.05,14.789 17.006,14.577 17.006,14.48L14.006,14.48C14.006,15.223 14.255,15.944 14.586,16.525C14.917,17.105 15.411,17.686 16.048,18.064L17.577,15.483ZM17.006,14.48L17.006,9.013L14.006,9.013L14.006,14.48L17.006,14.48Z" fill="#54577A"/>
</svg>
