<svg width="48" height="48" viewBox="0 0 48 48" fill="none" xmlns="http://www.w3.org/2000/svg" xmlns:xlink="http://www.w3.org/1999/xlink">
<path d="M42,24C42,33.941 33.941,42 24,42L24,46C36.15,46 46,36.15 46,24L42,24ZM24,42C14.059,42 6,33.941 6,24L2,24C2,36.15 11.85,46 24,46L24,42ZM6,24C6,14.059 14.059,6 24,6L24,2C11.85,2 2,11.85 2,24L6,24ZM24,6C33.941,6 42,14.059 42,24L46,24C46,11.85 36.15,2 24,2L24,6Z" fill="#858585"/>
<path d="M26,12C26,10.895 25.105,10 24,10C22.895,10 22,10.895 22,12L26,12ZM24,24L22,24C22,24.758 22.428,25.45 23.106,25.789L24,24ZM31.106,29.789C32.094,30.283 33.295,29.882 33.789,28.894C34.283,27.906 33.882,26.705 32.894,26.211L31.106,29.789ZM22,12L22,24L26,24L26,12L22,12ZM23.106,25.789L31.106,29.789L32.894,26.211L24.894,22.211L23.106,25.789Z" fill="#858585"/>
</svg>
