<svg width="16" height="16" viewBox="0 0 16 16" fill="none" xmlns="http://www.w3.org/2000/svg" xmlns:xlink="http://www.w3.org/1999/xlink">
<path d="M15.414,3.414C16.195,2.633 16.195,1.367 15.414,0.586C14.633,-0.195 13.367,-0.195 12.586,0.586L15.414,3.414ZM0.586,12.586C-0.195,13.367 -0.195,14.633 0.586,15.414C1.367,16.195 2.633,16.195 3.414,15.414L0.586,12.586ZM12.586,0.586L0.586,12.586L3.414,15.414L15.414,3.414L12.586,0.586Z" fill="#6C5DD3"/>
<path d="M3.414,0.586C2.633,-0.195 1.367,-0.195 0.586,0.586C-0.195,1.367 -0.195,2.633 0.586,3.414L3.414,0.586ZM12.586,15.414C13.367,16.195 14.633,16.195 15.414,15.414C16.195,14.633 16.195,13.367 15.414,12.586L12.586,15.414ZM0.586,3.414L12.586,15.414L15.414,12.586L3.414,0.586L0.586,3.414Z" fill="#6C5DD3"/>
</svg>
