<svg width="42" height="52" viewBox="0 0 42 52" fill="none" xmlns="http://www.w3.org/2000/svg" xmlns:xlink="http://www.w3.org/1999/xlink">
<line x1="-1" y1="10" x2="41" y2="10" stroke="#000000" stroke-width="2" stroke-miterlimit="3.999327" stroke-linecap="round" stroke-linejoin="round"/>
<path d="M38.331,12.001C38.331,10.897 37.435,10.001 36.331,10.001C35.226,10.001 34.331,10.897 34.331,12.001L38.331,12.001ZM3.664,44.668L1.664,44.668L3.664,44.668ZM5.664,12.001C5.664,10.897 4.769,10.001 3.664,10.001C2.559,10.001 1.664,10.897 1.664,12.001L5.664,12.001ZM8.664,12.001C8.664,13.106 9.56,14.001 10.664,14.001C11.769,14.001 12.664,13.106 12.664,12.001L8.664,12.001ZM15.331,2.668L15.331,0.668L15.331,2.668ZM24.664,2.668L24.664,0.668L24.664,2.668ZM27.331,12.001C27.331,13.106 28.226,14.001 29.331,14.001C30.435,14.001 31.331,13.106 31.331,12.001L27.331,12.001ZM34.331,12.001L34.331,44.668L38.331,44.668L38.331,12.001L34.331,12.001ZM34.331,44.668C34.331,45.375 34.05,46.054 33.55,46.554L36.378,49.382C37.628,48.132 38.331,46.436 38.331,44.668L34.331,44.668ZM33.55,46.554C33.05,47.054 32.371,47.335 31.664,47.335L31.664,51.335C33.432,51.335 35.128,50.632 36.378,49.382L33.55,46.554ZM31.664,47.335L8.331,47.335L8.331,51.335L31.664,51.335L31.664,47.335ZM8.331,47.335C7.623,47.335 6.945,47.054 6.445,46.554L3.617,49.382C4.867,50.632 6.563,51.335 8.331,51.335L8.331,47.335ZM6.445,46.554C5.945,46.054 5.664,45.375 5.664,44.668L1.664,44.668C1.664,46.436 2.366,48.132 3.617,49.382L6.445,46.554ZM5.664,44.668L5.664,12.001L1.664,12.001L1.664,44.668L5.664,44.668ZM12.664,12.001L12.664,7.335L8.664,7.335L8.664,12.001L12.664,12.001ZM12.664,7.335C12.664,6.627 12.945,5.949 13.445,5.449L10.617,2.621C9.366,3.871 8.664,5.567 8.664,7.335L12.664,7.335ZM13.445,5.449C13.945,4.949 14.623,4.668 15.331,4.668L15.331,0.668C13.563,0.668 11.867,1.37 10.617,2.621L13.445,5.449ZM15.331,4.668L24.664,4.668L24.664,0.668L15.331,0.668L15.331,4.668ZM24.664,4.668C25.371,4.668 26.05,4.949 26.55,5.449L29.378,2.621C28.128,1.37 26.432,0.668 24.664,0.668L24.664,4.668ZM26.55,5.449C27.05,5.949 27.331,6.627 27.331,7.335L31.331,7.335C31.331,5.567 30.628,3.871 29.378,2.621L26.55,5.449ZM27.331,7.335L27.331,12.001L31.331,12.001L31.331,7.335L27.331,7.335Z" fill="#000000"/>
</svg>
