<svg width="42" height="52" viewBox="0 0 42 52" fill="none" xmlns="http://www.w3.org/2000/svg" xmlns:xlink="http://www.w3.org/1999/xlink">
<line x1="-1" y1="10" x2="41" y2="10" stroke="#000000" stroke-width="2" stroke-miterlimit="3.999327" stroke-linecap="round" stroke-linejoin="round"/>
<path d="M38.331,12C38.331,10.896 37.435,10 36.331,10C35.226,10 34.331,10.896 34.331,12L38.331,12ZM3.664,44.667L1.664,44.667L3.664,44.667ZM5.664,12C5.664,10.896 4.769,10 3.664,10C2.559,10 1.664,10.896 1.664,12L5.664,12ZM8.664,12C8.664,13.105 9.56,14 10.664,14C11.769,14 12.664,13.105 12.664,12L8.664,12ZM15.331,2.667L15.331,0.667L15.331,2.667ZM24.664,2.667L24.664,0.667L24.664,2.667ZM27.331,12C27.331,13.105 28.226,14 29.331,14C30.435,14 31.331,13.105 31.331,12L27.331,12ZM34.331,12L34.331,44.667L38.331,44.667L38.331,12L34.331,12ZM34.331,44.667C34.331,45.374 34.05,46.053 33.55,46.553L36.378,49.381C37.628,48.131 38.331,46.435 38.331,44.667L34.331,44.667ZM33.55,46.553C33.05,47.053 32.371,47.334 31.664,47.334L31.664,51.334C33.432,51.334 35.128,50.631 36.378,49.381L33.55,46.553ZM31.664,47.334L8.331,47.334L8.331,51.334L31.664,51.334L31.664,47.334ZM8.331,47.334C7.623,47.334 6.945,47.053 6.445,46.553L3.617,49.381C4.867,50.631 6.563,51.334 8.331,51.334L8.331,47.334ZM6.445,46.553C5.945,46.053 5.664,45.374 5.664,44.667L1.664,44.667C1.664,46.435 2.366,48.131 3.617,49.381L6.445,46.553ZM5.664,44.667L5.664,12L1.664,12L1.664,44.667L5.664,44.667ZM12.664,12L12.664,7.334L8.664,7.334L8.664,12L12.664,12ZM12.664,7.334C12.664,6.626 12.945,5.948 13.445,5.448L10.617,2.62C9.366,3.87 8.664,5.566 8.664,7.334L12.664,7.334ZM13.445,5.448C13.945,4.948 14.623,4.667 15.331,4.667L15.331,0.667C13.563,0.667 11.867,1.369 10.617,2.62L13.445,5.448ZM15.331,4.667L24.664,4.667L24.664,0.667L15.331,0.667L15.331,4.667ZM24.664,4.667C25.371,4.667 26.05,4.948 26.55,5.448L29.378,2.62C28.128,1.369 26.432,0.667 24.664,0.667L24.664,4.667ZM26.55,5.448C27.05,5.948 27.331,6.626 27.331,7.334L31.331,7.334C31.331,5.566 30.628,3.87 29.378,2.62L26.55,5.448ZM27.331,7.334L27.331,12L31.331,12L31.331,7.334L27.331,7.334Z" fill="#000000"/>
</svg>
