<svg width="52" height="52" viewBox="0 0 52 52" fill="none" xmlns="http://www.w3.org/2000/svg" xmlns:xlink="http://www.w3.org/1999/xlink">
<path d="M23.664,9.333C24.769,9.333 25.664,8.438 25.664,7.333C25.664,6.228 24.769,5.333 23.664,5.333L23.664,9.333ZM7.331,7.333L7.331,5.333L7.331,7.333ZM2.664,12L0.664,12L2.664,12ZM2.664,44.666L0.664,44.666L2.664,44.666ZM46.664,28.333C46.664,27.228 45.769,26.333 44.664,26.333C43.559,26.333 42.664,27.228 42.664,28.333L46.664,28.333ZM23.664,5.333L7.331,5.333L7.331,9.333L23.664,9.333L23.664,5.333ZM7.331,5.333C5.563,5.333 3.867,6.035 2.617,7.286L5.445,10.114C5.945,9.614 6.623,9.333 7.331,9.333L7.331,5.333ZM2.617,7.286C1.366,8.536 0.664,10.232 0.664,12L4.664,12C4.664,11.292 4.945,10.614 5.445,10.114L2.617,7.286ZM0.664,12L0.664,44.666L4.664,44.666L4.664,12L0.664,12ZM0.664,44.666C0.664,46.434 1.366,48.13 2.617,49.38L5.445,46.552C4.945,46.052 4.664,45.374 4.664,44.666L0.664,44.666ZM2.617,49.38C3.867,50.631 5.563,51.333 7.331,51.333L7.331,47.333C6.623,47.333 5.945,47.052 5.445,46.552L2.617,49.38ZM7.331,51.333L39.997,51.333L39.997,47.333L7.331,47.333L7.331,51.333ZM39.997,51.333C41.765,51.333 43.461,50.631 44.711,49.38L41.883,46.552C41.383,47.052 40.705,47.333 39.997,47.333L39.997,51.333ZM44.711,49.38C45.962,48.13 46.664,46.434 46.664,44.666L42.664,44.666C42.664,45.374 42.383,46.052 41.883,46.552L44.711,49.38ZM46.664,44.666L46.664,28.333L42.664,28.333L42.664,44.666L46.664,44.666Z" fill="#000000"/>
<path d="M41.164,3.834L39.75,2.419L41.164,3.834ZM44.664,2.384L44.664,0.384L44.664,2.384ZM48.164,10.834L46.75,9.419L46.75,9.419L48.164,10.834ZM25.997,33L26.482,34.941C26.834,34.853 27.155,34.671 27.412,34.414L25.997,33ZM16.664,35.334L14.724,34.848C14.553,35.53 14.753,36.251 15.25,36.748C15.747,37.245 16.468,37.444 17.149,37.274L16.664,35.334ZM18.997,26L17.583,24.586C17.327,24.842 17.145,25.163 17.057,25.515L18.997,26ZM42.578,5.248C43.131,4.695 43.882,4.384 44.664,4.384L44.664,0.384C42.821,0.384 41.053,1.116 39.75,2.419L42.578,5.248ZM44.664,4.384C45.446,4.384 46.197,4.695 46.75,5.248L49.578,2.419C48.275,1.116 46.507,0.384 44.664,0.384L44.664,4.384ZM46.75,5.248C47.303,5.801 47.614,6.551 47.614,7.334L51.614,7.334C51.614,5.49 50.882,3.723 49.578,2.419L46.75,5.248ZM47.614,7.334C47.614,8.116 47.303,8.866 46.75,9.419L49.578,12.248C50.882,10.944 51.614,9.177 51.614,7.334L47.614,7.334ZM46.75,9.419L24.583,31.586L27.412,34.414L49.578,12.248L46.75,9.419ZM25.512,31.06L16.179,33.393L17.149,37.274L26.482,34.941L25.512,31.06ZM18.604,35.819L20.938,26.485L17.057,25.515L14.724,34.848L18.604,35.819ZM20.412,27.414L42.578,5.248L39.75,2.419L17.583,24.586L20.412,27.414Z" fill="#000000"/>
</svg>
