<svg width="32" height="32" viewBox="0 0 32 32" fill="none" xmlns="http://www.w3.org/2000/svg" xmlns:xlink="http://www.w3.org/1999/xlink">
<path d="M31.414,3.414C32.195,2.633 32.195,1.367 31.414,0.586C30.633,-0.195 29.367,-0.195 28.586,0.586L31.414,3.414ZM0.586,28.586C-0.195,29.367 -0.195,30.633 0.586,31.414C1.367,32.195 2.633,32.195 3.414,31.414L0.586,28.586ZM28.586,0.586L0.586,28.586L3.414,31.414L31.414,3.414L28.586,0.586Z" fill="#000000"/>
<path d="M3.414,0.586C2.633,-0.195 1.367,-0.195 0.586,0.586C-0.195,1.367 -0.195,2.633 0.586,3.414L3.414,0.586ZM28.586,31.414C29.367,32.195 30.633,32.195 31.414,31.414C32.195,30.633 32.195,29.367 31.414,28.586L28.586,31.414ZM0.586,3.414L28.586,31.414L31.414,28.586L3.414,0.586L0.586,3.414Z" fill="#000000"/>
</svg>
