<svg width="52" height="52" viewBox="0 0 52 52" fill="none" xmlns="http://www.w3.org/2000/svg" xmlns:xlink="http://www.w3.org/1999/xlink">
<path d="M23.664,9.332C24.769,9.332 25.664,8.437 25.664,7.332C25.664,6.227 24.769,5.332 23.664,5.332L23.664,9.332ZM7.331,7.332L7.331,5.332L7.331,7.332ZM2.664,11.999L0.664,11.999L2.664,11.999ZM2.664,44.665L0.664,44.665L2.664,44.665ZM46.664,28.332C46.664,27.227 45.769,26.332 44.664,26.332C43.559,26.332 42.664,27.227 42.664,28.332L46.664,28.332ZM23.664,5.332L7.331,5.332L7.331,9.332L23.664,9.332L23.664,5.332ZM7.331,5.332C5.563,5.332 3.867,6.034 2.617,7.285L5.445,10.113C5.945,9.613 6.623,9.332 7.331,9.332L7.331,5.332ZM2.617,7.285C1.366,8.535 0.664,10.231 0.664,11.999L4.664,11.999C4.664,11.291 4.945,10.613 5.445,10.113L2.617,7.285ZM0.664,11.999L0.664,44.665L4.664,44.665L4.664,11.999L0.664,11.999ZM0.664,44.665C0.664,46.433 1.366,48.129 2.617,49.379L5.445,46.551C4.945,46.051 4.664,45.373 4.664,44.665L0.664,44.665ZM2.617,49.379C3.867,50.63 5.563,51.332 7.331,51.332L7.331,47.332C6.623,47.332 5.945,47.051 5.445,46.551L2.617,49.379ZM7.331,51.332L39.997,51.332L39.997,47.332L7.331,47.332L7.331,51.332ZM39.997,51.332C41.765,51.332 43.461,50.63 44.711,49.379L41.883,46.551C41.383,47.051 40.705,47.332 39.997,47.332L39.997,51.332ZM44.711,49.379C45.962,48.129 46.664,46.433 46.664,44.665L42.664,44.665C42.664,45.373 42.383,46.051 41.883,46.551L44.711,49.379ZM46.664,44.665L46.664,28.332L42.664,28.332L42.664,44.665L46.664,44.665Z" fill="#000000"/>
<path d="M41.164,3.833L39.75,2.418L41.164,3.833ZM44.664,2.383L44.664,0.383L44.664,2.383ZM48.164,10.833L46.75,9.418L46.75,9.418L48.164,10.833ZM25.997,32.999L26.482,34.94C26.834,34.852 27.155,34.67 27.412,34.413L25.997,32.999ZM16.664,35.333L14.724,34.847C14.553,35.529 14.753,36.25 15.25,36.747C15.747,37.244 16.468,37.443 17.149,37.273L16.664,35.333ZM18.997,25.999L17.583,24.585C17.327,24.841 17.145,25.162 17.057,25.514L18.997,25.999ZM42.578,5.247C43.131,4.694 43.882,4.383 44.664,4.383L44.664,0.383C42.821,0.383 41.053,1.115 39.75,2.418L42.578,5.247ZM44.664,4.383C45.446,4.383 46.197,4.694 46.75,5.247L49.578,2.418C48.275,1.115 46.507,0.383 44.664,0.383L44.664,4.383ZM46.75,5.247C47.303,5.8 47.614,6.55 47.614,7.333L51.614,7.333C51.614,5.489 50.882,3.722 49.578,2.418L46.75,5.247ZM47.614,7.333C47.614,8.115 47.303,8.865 46.75,9.418L49.578,12.247C50.882,10.943 51.614,9.176 51.614,7.333L47.614,7.333ZM46.75,9.418L24.583,31.585L27.412,34.413L49.578,12.247L46.75,9.418ZM25.512,31.059L16.179,33.392L17.149,37.273L26.482,34.94L25.512,31.059ZM18.604,35.818L20.938,26.484L17.057,25.514L14.724,34.847L18.604,35.818ZM20.412,27.413L42.578,5.247L39.75,2.418L17.583,24.585L20.412,27.413Z" fill="#000000"/>
</svg>
