<svg width="56" height="56" viewBox="0 0 56 56" fill="none" xmlns="http://www.w3.org/2000/svg" xmlns:xlink="http://www.w3.org/1999/xlink">
<path d="M25.668,11.333C26.773,11.333 27.668,10.438 27.668,9.333C27.668,8.228 26.773,7.333 25.668,7.333L25.668,11.333ZM9.335,9.333L9.335,7.333L9.335,9.333ZM4.668,14L2.668,14L4.668,14ZM4.668,46.666L2.668,46.666L4.668,46.666ZM48.668,30.333C48.668,29.228 47.773,28.333 46.668,28.333C45.563,28.333 44.668,29.228 44.668,30.333L48.668,30.333ZM25.668,7.333L9.335,7.333L9.335,11.333L25.668,11.333L25.668,7.333ZM9.335,7.333C7.567,7.333 5.871,8.035 4.621,9.286L7.449,12.114C7.949,11.614 8.627,11.333 9.335,11.333L9.335,7.333ZM4.621,9.286C3.37,10.536 2.668,12.232 2.668,14L6.668,14C6.668,13.292 6.949,12.614 7.449,12.114L4.621,9.286ZM2.668,14L2.668,46.666L6.668,46.666L6.668,14L2.668,14ZM2.668,46.666C2.668,48.434 3.37,50.13 4.621,51.38L7.449,48.552C6.949,48.052 6.668,47.374 6.668,46.666L2.668,46.666ZM4.621,51.38C5.871,52.631 7.567,53.333 9.335,53.333L9.335,49.333C8.627,49.333 7.949,49.052 7.449,48.552L4.621,51.38ZM9.335,53.333L42.001,53.333L42.001,49.333L9.335,49.333L9.335,53.333ZM42.001,53.333C43.769,53.333 45.465,52.631 46.715,51.38L43.887,48.552C43.387,49.052 42.709,49.333 42.001,49.333L42.001,53.333ZM46.715,51.38C47.966,50.13 48.668,48.434 48.668,46.666L44.668,46.666C44.668,47.374 44.387,48.052 43.887,48.552L46.715,51.38ZM48.668,46.666L48.668,30.333L44.668,30.333L44.668,46.666L48.668,46.666Z" fill="#000000"/>
<path d="M43.168,5.834L41.754,4.419L43.168,5.834ZM46.668,4.384L46.668,2.384L46.668,4.384ZM50.168,12.834L48.754,11.419L48.754,11.419L50.168,12.834ZM28.001,35L28.486,36.941C28.838,36.853 29.159,36.671 29.416,36.414L28.001,35ZM18.668,37.334L16.728,36.848C16.557,37.53 16.757,38.251 17.254,38.748C17.751,39.245 18.471,39.444 19.153,39.274L18.668,37.334ZM21.001,28L19.587,26.586C19.331,26.842 19.149,27.163 19.061,27.515L21.001,28ZM44.582,7.248C45.135,6.695 45.886,6.384 46.668,6.384L46.668,2.384C44.825,2.384 43.057,3.116 41.754,4.419L44.582,7.248ZM46.668,6.384C47.45,6.384 48.201,6.695 48.754,7.248L51.582,4.419C50.279,3.116 48.511,2.384 46.668,2.384L46.668,6.384ZM48.754,7.248C49.307,7.801 49.618,8.551 49.618,9.334L53.618,9.334C53.618,7.49 52.886,5.723 51.582,4.419L48.754,7.248ZM49.618,9.334C49.618,10.116 49.307,10.866 48.754,11.419L51.582,14.248C52.886,12.944 53.618,11.177 53.618,9.334L49.618,9.334ZM48.754,11.419L26.587,33.586L29.416,36.414L51.582,14.248L48.754,11.419ZM27.516,33.06L18.183,35.393L19.153,39.274L28.486,36.941L27.516,33.06ZM20.608,37.819L22.942,28.485L19.061,27.515L16.728,36.848L20.608,37.819ZM22.416,29.414L44.582,7.248L41.754,4.419L19.587,26.586L22.416,29.414Z" fill="#000000"/>
</svg>
