<svg width="56" height="56" viewBox="0 0 56 56" fill="none" xmlns="http://www.w3.org/2000/svg" xmlns:xlink="http://www.w3.org/1999/xlink">
<path d="M25.666,11.333C26.771,11.333 27.666,10.438 27.666,9.333C27.666,8.228 26.771,7.333 25.666,7.333L25.666,11.333ZM9.333,9.333L9.333,7.333L9.333,9.333ZM4.666,14L2.666,14L4.666,14ZM4.666,46.666L2.666,46.666L4.666,46.666ZM48.666,30.333C48.666,29.228 47.771,28.333 46.666,28.333C45.561,28.333 44.666,29.228 44.666,30.333L48.666,30.333ZM25.666,7.333L9.333,7.333L9.333,11.333L25.666,11.333L25.666,7.333ZM9.333,7.333C7.565,7.333 5.869,8.035 4.619,9.286L7.447,12.114C7.947,11.614 8.625,11.333 9.333,11.333L9.333,7.333ZM4.619,9.286C3.368,10.536 2.666,12.232 2.666,14L6.666,14C6.666,13.292 6.947,12.614 7.447,12.114L4.619,9.286ZM2.666,14L2.666,46.666L6.666,46.666L6.666,14L2.666,14ZM2.666,46.666C2.666,48.434 3.368,50.13 4.619,51.38L7.447,48.552C6.947,48.052 6.666,47.374 6.666,46.666L2.666,46.666ZM4.619,51.38C5.869,52.631 7.565,53.333 9.333,53.333L9.333,49.333C8.625,49.333 7.947,49.052 7.447,48.552L4.619,51.38ZM9.333,53.333L41.999,53.333L41.999,49.333L9.333,49.333L9.333,53.333ZM41.999,53.333C43.767,53.333 45.463,52.631 46.713,51.38L43.885,48.552C43.385,49.052 42.707,49.333 41.999,49.333L41.999,53.333ZM46.713,51.38C47.964,50.13 48.666,48.434 48.666,46.666L44.666,46.666C44.666,47.374 44.385,48.052 43.885,48.552L46.713,51.38ZM48.666,46.666L48.666,30.333L44.666,30.333L44.666,46.666L48.666,46.666Z" fill="#000000"/>
<path d="M43.166,5.834L41.752,4.419L43.166,5.834ZM46.666,4.384L46.666,2.384L46.666,4.384ZM50.166,12.834L48.752,11.419L48.752,11.419L50.166,12.834ZM27.999,35L28.484,36.941C28.836,36.853 29.157,36.671 29.414,36.414L27.999,35ZM18.666,37.334L16.726,36.848C16.555,37.53 16.755,38.251 17.252,38.748C17.749,39.245 18.47,39.444 19.151,39.274L18.666,37.334ZM20.999,28L19.585,26.586C19.329,26.842 19.147,27.163 19.059,27.515L20.999,28ZM44.58,7.248C45.133,6.695 45.884,6.384 46.666,6.384L46.666,2.384C44.823,2.384 43.055,3.116 41.752,4.419L44.58,7.248ZM46.666,6.384C47.448,6.384 48.199,6.695 48.752,7.248L51.58,4.419C50.277,3.116 48.509,2.384 46.666,2.384L46.666,6.384ZM48.752,7.248C49.305,7.801 49.616,8.551 49.616,9.334L53.616,9.334C53.616,7.49 52.884,5.723 51.58,4.419L48.752,7.248ZM49.616,9.334C49.616,10.116 49.305,10.866 48.752,11.419L51.58,14.248C52.884,12.944 53.616,11.177 53.616,9.334L49.616,9.334ZM48.752,11.419L26.585,33.586L29.414,36.414L51.58,14.248L48.752,11.419ZM27.514,33.06L18.181,35.393L19.151,39.274L28.484,36.941L27.514,33.06ZM20.606,37.819L22.94,28.485L19.059,27.515L16.726,36.848L20.606,37.819ZM22.414,29.414L44.58,7.248L41.752,4.419L19.585,26.586L22.414,29.414Z" fill="#000000"/>
</svg>
