<svg width="48" height="48" viewBox="0 0 48 48" fill="none" xmlns="http://www.w3.org/2000/svg" xmlns:xlink="http://www.w3.org/1999/xlink">
<path d="M43.014,11.606C43.624,11.046 43.666,10.097 43.106,9.486C42.546,8.876 41.597,8.834 40.986,9.394L43.014,11.606ZM24,27L22.986,28.106C23.56,28.631 24.44,28.631 25.014,28.106L24,27ZM7.014,9.394C6.403,8.834 5.454,8.876 4.894,9.486C4.334,10.097 4.376,11.046 4.986,11.606L7.014,9.394ZM40.986,9.394L22.986,25.894L25.014,28.106L43.014,11.606L40.986,9.394ZM25.014,25.894L7.014,9.394L4.986,11.606L22.986,28.106L25.014,25.894Z" fill="#0A65CC"/>
<path d="M6,10.5L6,9C5.172,9 4.5,9.672 4.5,10.5L6,10.5ZM42,10.5L43.5,10.5C43.5,9.672 42.828,9 42,9L42,10.5ZM6,12L42,12L42,9L6,9L6,12ZM40.5,10.5L40.5,36L43.5,36L43.5,10.5L40.5,10.5ZM40.5,36L40.5,36L42.621,38.121C43.184,37.559 43.5,36.796 43.5,36L40.5,36ZM40.5,36L40.5,36L40.5,39C41.296,39 42.059,38.684 42.621,38.121L40.5,36ZM40.5,36L7.5,36L7.5,39L40.5,39L40.5,36ZM7.5,36L7.5,36L5.379,38.121C5.941,38.684 6.704,39 7.5,39L7.5,36ZM7.5,36L7.5,36L4.5,36C4.5,36.796 4.816,37.559 5.379,38.121L7.5,36ZM7.5,36L7.5,10.5L4.5,10.5L4.5,36L7.5,36Z" fill="#0A65CC"/>
<path d="M21.741,25.106C22.352,24.546 22.393,23.597 21.833,22.986C21.274,22.376 20.325,22.334 19.714,22.894L21.741,25.106ZM5.449,35.97C4.839,36.53 4.797,37.479 5.357,38.09C5.917,38.7 6.866,38.742 7.476,38.182L5.449,35.97ZM19.714,22.894L5.449,35.97L7.476,38.182L21.741,25.106L19.714,22.894Z" fill="#0A65CC"/>
<path d="M40.525,38.182C41.136,38.742 42.084,38.7 42.644,38.09C43.204,37.479 43.163,36.53 42.552,35.97L40.525,38.182ZM28.287,22.894C27.676,22.334 26.727,22.376 26.168,22.986C25.608,23.597 25.649,24.546 26.26,25.106L28.287,22.894ZM42.552,35.97L28.287,22.894L26.26,25.106L40.525,38.182L42.552,35.97Z" fill="#0A65CC"/>
</svg>
