<svg width="44" height="44" viewBox="0 0 44 44" fill="none" xmlns="http://www.w3.org/2000/svg" xmlns:xlink="http://www.w3.org/1999/xlink">
<path d="M39.729,26.217L37.74,26.004L37.737,26.031L37.735,26.058L39.729,26.217ZM38.996,35.384L40.986,35.579L40.988,35.561L40.989,35.543L38.996,35.384ZM5.006,35.384L3.012,35.543L3.014,35.561L3.015,35.579L5.006,35.384ZM4.272,26.217L6.266,26.058L6.265,26.041L6.263,26.025L4.272,26.217ZM5.464,22.202L4.05,20.788L3.97,20.868L3.9,20.956L5.464,22.202ZM5.501,22.165L6.915,23.58L6.984,23.51L7.047,23.434L5.501,22.165ZM38.464,22.129L36.926,23.407L36.985,23.478L37.05,23.543L38.464,22.129ZM38.501,22.184L36.501,22.184L36.501,22.906L36.962,23.461L38.501,22.184ZM37.735,26.058L37.002,35.224L40.989,35.543L41.723,26.376L37.735,26.058ZM37.005,35.189C36.85,36.768 36.728,37.329 36.463,37.66C36.328,37.829 35.813,38.334 33.532,38.334L33.532,42.334C36.22,42.334 38.299,41.766 39.585,40.161C40.741,38.718 40.866,36.805 40.986,35.579L37.005,35.189ZM33.532,38.334L10.469,38.334L10.469,42.334L33.532,42.334L33.532,38.334ZM10.469,38.334C8.189,38.334 7.674,37.829 7.538,37.66C7.273,37.329 7.151,36.768 6.996,35.189L3.015,35.579C3.135,36.805 3.261,38.718 4.416,40.161C5.702,41.766 7.781,42.334 10.469,42.334L10.469,38.334ZM6.999,35.224L6.266,26.058L2.279,26.376L3.012,35.543L6.999,35.224ZM6.263,26.025C6.169,25.048 6.472,24.147 7.028,23.448L3.9,20.956C2.733,22.421 2.082,24.342 2.282,26.409L6.263,26.025ZM6.878,23.616C6.887,23.607 6.892,23.602 6.897,23.598C6.901,23.593 6.906,23.589 6.915,23.58L4.086,20.751C4.077,20.76 4.073,20.765 4.068,20.769C4.064,20.774 4.059,20.779 4.05,20.788L6.878,23.616ZM7.047,23.434C7.687,22.654 8.649,22.167 9.736,22.167L9.736,18.167C7.413,18.167 5.331,19.22 3.955,20.896L7.047,23.434ZM9.736,22.167L34.266,22.167L34.266,18.167L9.736,18.167L9.736,22.167ZM34.266,22.167C35.353,22.167 36.3,22.654 36.926,23.407L40.002,20.851C38.648,19.22 36.589,18.167 34.266,18.167L34.266,22.167ZM37.05,23.543C37.085,23.578 36.984,23.483 36.889,23.356C36.81,23.25 36.501,22.827 36.501,22.184L40.501,22.184C40.501,21.522 40.182,21.08 40.089,20.956C40.025,20.871 39.967,20.808 39.936,20.775C39.906,20.742 39.878,20.715 39.878,20.714L37.05,23.543ZM36.962,23.461C37.54,24.158 37.844,25.039 37.74,26.004L41.718,26.43C41.944,24.315 41.258,22.373 40.039,20.906L36.962,23.461Z" fill="#6C5DD3"/>
<path d="M4.418,20.955C4.418,22.06 5.313,22.955 6.418,22.955C7.523,22.955 8.418,22.06 8.418,20.955L4.418,20.955ZM20.278,5.592L21.88,4.395L21.878,4.392L20.278,5.592ZM22.606,8.708L21.004,9.905L21.015,9.92L22.606,8.708ZM35.566,21.028C35.566,22.133 36.462,23.028 37.566,23.028C38.671,23.028 39.566,22.133 39.566,21.028L35.566,21.028ZM8.418,20.955L8.418,11.513L4.418,11.513L4.418,20.955L8.418,20.955ZM8.418,11.513C8.418,8.382 8.858,7.227 9.391,6.694C9.923,6.161 11.079,5.722 14.21,5.722L14.21,1.722C11.107,1.722 8.367,2.061 6.562,3.866C4.757,5.671 4.418,8.411 4.418,11.513L8.418,11.513ZM14.21,5.722L16.538,5.722L16.538,1.722L14.21,1.722L14.21,5.722ZM16.538,5.722C17.522,5.722 17.825,5.873 17.921,5.931C18.064,6.017 18.195,6.148 18.678,6.792L21.878,4.392C21.481,3.862 20.907,3.058 19.981,2.502C19.01,1.919 17.882,1.722 16.538,1.722L16.538,5.722ZM18.676,6.789L21.004,9.905L24.209,7.511L21.88,4.395L18.676,6.789ZM21.015,9.92C21.256,10.236 21.713,10.883 22.452,11.331C23.243,11.811 24.134,11.955 25.1,11.955L25.1,7.955C24.507,7.955 24.444,7.861 24.526,7.91C24.555,7.928 24.552,7.935 24.502,7.88C24.435,7.806 24.361,7.711 24.197,7.496L21.015,9.92ZM25.1,11.955L29.775,11.955L29.775,7.955L25.1,7.955L25.1,11.955ZM29.775,11.955C32.906,11.955 34.061,12.395 34.594,12.928C35.127,13.46 35.566,14.616 35.566,17.747L39.566,17.747C39.566,14.644 39.227,11.904 37.422,10.099C35.617,8.294 32.877,7.955 29.775,7.955L29.775,11.955ZM35.566,17.747L35.566,21.028L39.566,21.028L39.566,17.747L35.566,17.747Z" fill="#6C5DD3"/>
<line x1="17.289" y1="29.167" x2="26.712" y2="29.167" stroke="#6C5DD3" stroke-width="2" stroke-miterlimit="10" stroke-linecap="round" stroke-linejoin="round"/>
</svg>
