<svg width="44" height="44" viewBox="0 0 44 44" fill="none" xmlns="http://www.w3.org/2000/svg" xmlns:xlink="http://www.w3.org/1999/xlink">
<path d="M39.729,26.217L37.74,26.003L37.737,26.03L37.735,26.057L39.729,26.217ZM38.996,35.383L40.986,35.578L40.988,35.561L40.989,35.543L38.996,35.383ZM5.006,35.383L3.012,35.543L3.014,35.561L3.015,35.578L5.006,35.383ZM4.272,26.217L6.266,26.057L6.265,26.041L6.263,26.025L4.272,26.217ZM5.464,22.202L4.05,20.787L3.97,20.867L3.9,20.955L5.464,22.202ZM5.501,22.165L6.915,23.579L6.984,23.51L7.047,23.434L5.501,22.165ZM38.464,22.128L36.926,23.406L36.985,23.477L37.05,23.542L38.464,22.128ZM38.501,22.183L36.501,22.183L36.501,22.905L36.962,23.461L38.501,22.183ZM37.735,26.057L37.002,35.224L40.989,35.543L41.723,26.376L37.735,26.057ZM37.005,35.188C36.85,36.767 36.728,37.329 36.463,37.66C36.328,37.829 35.813,38.333 33.532,38.333L33.532,42.333C36.22,42.333 38.299,41.765 39.585,40.16C40.741,38.718 40.866,36.804 40.986,35.578L37.005,35.188ZM33.532,38.333L10.469,38.333L10.469,42.333L33.532,42.333L33.532,38.333ZM10.469,38.333C8.189,38.333 7.674,37.829 7.538,37.66C7.273,37.329 7.151,36.767 6.996,35.188L3.015,35.578C3.135,36.804 3.261,38.718 4.416,40.16C5.702,41.765 7.781,42.333 10.469,42.333L10.469,38.333ZM6.999,35.224L6.266,26.057L2.279,26.376L3.012,35.543L6.999,35.224ZM6.263,26.025C6.169,25.048 6.472,24.146 7.028,23.448L3.9,20.955C2.733,22.42 2.082,24.342 2.282,26.408L6.263,26.025ZM6.878,23.616C6.887,23.607 6.892,23.602 6.897,23.597C6.901,23.593 6.906,23.588 6.915,23.579L4.086,20.751C4.077,20.76 4.073,20.764 4.068,20.769C4.064,20.774 4.059,20.778 4.05,20.787L6.878,23.616ZM7.047,23.434C7.687,22.653 8.649,22.167 9.736,22.167L9.736,18.167C7.413,18.167 5.331,19.22 3.955,20.896L7.047,23.434ZM9.736,22.167L34.266,22.167L34.266,18.167L9.736,18.167L9.736,22.167ZM34.266,22.167C35.353,22.167 36.3,22.654 36.926,23.406L40.002,20.85C38.648,19.219 36.589,18.167 34.266,18.167L34.266,22.167ZM37.05,23.542C37.085,23.578 36.984,23.482 36.889,23.356C36.81,23.25 36.501,22.827 36.501,22.183L40.501,22.183C40.501,21.521 40.182,21.08 40.089,20.956C40.025,20.87 39.967,20.807 39.936,20.774C39.906,20.742 39.878,20.714 39.878,20.714L37.05,23.542ZM36.962,23.461C37.54,24.157 37.844,25.039 37.74,26.003L41.718,26.43C41.944,24.314 41.258,22.373 40.039,20.905L36.962,23.461Z" fill="#6C5DD3"/>
<path d="M4.416,20.955C4.416,22.06 5.311,22.955 6.416,22.955C7.521,22.955 8.416,22.06 8.416,20.955L4.416,20.955ZM20.276,5.592L21.878,4.395L21.876,4.392L20.276,5.592ZM22.604,8.708L21.002,9.905L21.013,9.92L22.604,8.708ZM35.564,21.028C35.564,22.133 36.46,23.028 37.564,23.028C38.669,23.028 39.564,22.133 39.564,21.028L35.564,21.028ZM8.416,20.955L8.416,11.513L4.416,11.513L4.416,20.955L8.416,20.955ZM8.416,11.513C8.416,8.382 8.856,7.227 9.389,6.694C9.921,6.161 11.077,5.722 14.208,5.722L14.208,1.722C11.105,1.722 8.365,2.061 6.56,3.866C4.755,5.671 4.416,8.411 4.416,11.513L8.416,11.513ZM14.208,5.722L16.536,5.722L16.536,1.722L14.208,1.722L14.208,5.722ZM16.536,5.722C17.52,5.722 17.823,5.873 17.919,5.931C18.062,6.017 18.193,6.148 18.676,6.792L21.876,4.392C21.479,3.862 20.905,3.058 19.979,2.502C19.008,1.919 17.88,1.722 16.536,1.722L16.536,5.722ZM18.674,6.789L21.002,9.905L24.207,7.511L21.878,4.395L18.674,6.789ZM21.013,9.92C21.254,10.236 21.711,10.883 22.45,11.331C23.241,11.811 24.132,11.955 25.098,11.955L25.098,7.955C24.505,7.955 24.442,7.861 24.524,7.91C24.553,7.928 24.55,7.935 24.5,7.88C24.433,7.806 24.359,7.711 24.195,7.496L21.013,9.92ZM25.098,11.955L29.773,11.955L29.773,7.955L25.098,7.955L25.098,11.955ZM29.773,11.955C32.904,11.955 34.059,12.395 34.592,12.928C35.125,13.46 35.564,14.616 35.564,17.747L39.564,17.747C39.564,14.644 39.225,11.904 37.42,10.099C35.615,8.294 32.875,7.955 29.773,7.955L29.773,11.955ZM35.564,17.747L35.564,21.028L39.564,21.028L39.564,17.747L35.564,17.747Z" fill="#6C5DD3"/>
<line x1="17.289" y1="29.167" x2="26.712" y2="29.167" stroke="#6C5DD3" stroke-width="2" stroke-miterlimit="10" stroke-linecap="round" stroke-linejoin="round"/>
</svg>
