<svg width="80" height="80" viewBox="0 0 80 80" fill="none" xmlns="http://www.w3.org/2000/svg" xmlns:xlink="http://www.w3.org/1999/xlink">
<path d="M8.601,63.367L8.534,63.433C7.634,61.467 7.067,59.233 6.834,56.767C7.067,59.2 7.701,61.4 8.601,63.367Z" fill="#6C5DD3" fill-opacity="0.6"/>
<path d="M30,34.6C34.381,34.6 37.933,31.048 37.933,26.667C37.933,22.285 34.381,18.733 30,18.733C25.618,18.733 22.066,22.285 22.066,26.667C22.066,31.048 25.618,34.6 30,34.6Z" fill="#6C5DD3" fill-opacity="0.6"/>
<path d="M53.966,6.667L26.033,6.667C13.899,6.667 6.666,13.9 6.666,26.033L6.666,53.967C6.666,57.6 7.299,60.767 8.533,63.433C11.399,69.767 17.533,73.333 26.033,73.333L53.966,73.333C66.099,73.333 73.333,66.1 73.333,53.967L73.333,46.333L73.333,26.033C73.333,13.9 66.099,6.667 53.966,6.667ZM67.899,41.667C65.299,39.433 61.099,39.433 58.499,41.667L44.633,53.567C42.033,55.8 37.833,55.8 35.233,53.567L34.099,52.633C31.733,50.567 27.966,50.367 25.299,52.167L12.833,60.533C12.099,58.667 11.666,56.5 11.666,53.967L11.666,26.033C11.666,16.633 16.633,11.667 26.033,11.667L53.966,11.667C63.366,11.667 68.333,16.633 68.333,26.033L68.333,42.033L67.899,41.667Z" fill="#6C5DD3" fill-opacity="0.6"/>
</svg>
