<svg width="80" height="80" viewBox="0 0 80 80" fill="none" xmlns="http://www.w3.org/2000/svg" xmlns:xlink="http://www.w3.org/1999/xlink">
<path d="M8.6,63.367L8.533,63.433C7.633,61.467 7.066,59.233 6.833,56.767C7.066,59.2 7.7,61.4 8.6,63.367Z" fill="#6C5DD3" fill-opacity="0.6"/>
<path d="M30,34.6C34.381,34.6 37.933,31.048 37.933,26.667C37.933,22.285 34.381,18.733 30,18.733C25.618,18.733 22.066,22.285 22.066,26.667C22.066,31.048 25.618,34.6 30,34.6Z" fill="#6C5DD3" fill-opacity="0.6"/>
<path d="M53.967,6.667L26.034,6.667C13.9,6.667 6.667,13.9 6.667,26.034L6.667,53.967C6.667,57.6 7.3,60.767 8.534,63.434C11.4,69.767 17.534,73.334 26.034,73.334L53.967,73.334C66.1,73.334 73.334,66.1 73.334,53.967L73.334,46.334L73.334,26.034C73.334,13.9 66.1,6.667 53.967,6.667ZM67.9,41.667C65.3,39.434 61.1,39.434 58.5,41.667L44.634,53.567C42.034,55.8 37.834,55.8 35.234,53.567L34.1,52.634C31.734,50.567 27.967,50.367 25.3,52.167L12.834,60.534C12.1,58.667 11.667,56.5 11.667,53.967L11.667,26.034C11.667,16.634 16.634,11.667 26.034,11.667L53.967,11.667C63.367,11.667 68.334,16.634 68.334,26.034L68.334,42.034L67.9,41.667Z" fill="#6C5DD3" fill-opacity="0.6"/>
</svg>
