<svg width="48" height="48" viewBox="0 0 48 48" fill="none" xmlns="http://www.w3.org/2000/svg" xmlns:xlink="http://www.w3.org/1999/xlink">
<path d="M46.49,24.54C46.49,22.96 46.35,21.46 46.11,20L23.51,20L23.51,29.02L36.45,29.02C35.87,31.98 34.17,34.48 31.65,36.18L31.65,42.18L39.37,42.18C43.89,38 46.49,31.84 46.49,24.54Z" fill="#4285F4"/>
<path d="M23.51,48C29.99,48 35.41,45.84 39.37,42.18L31.65,36.18C29.49,37.62 26.75,38.5 23.51,38.5C17.25,38.5 11.95,34.28 10.05,28.58L2.09,28.58L2.09,34.76C6.03,42.6 14.13,48 23.51,48Z" fill="#34A853"/>
<path d="M10.05,28.58C9.55,27.14 9.29,25.6 9.29,24C9.29,22.4 9.57,20.86 10.05,19.42L10.05,13.24L2.09,13.24C0.45,16.48 -0.49,20.12 -0.49,24C-0.49,27.88 0.45,31.52 2.09,34.76L10.05,28.58Z" fill="#FBBC05"/>
<path d="M23.51,9.5C27.05,9.5 30.21,10.72 32.71,13.1L39.55,6.26C35.41,2.38 29.99,0 23.51,0C14.13,0 6.03,5.4 2.09,13.24L10.05,19.42C11.95,13.72 17.25,9.5 23.51,9.5Z" fill="#EA4335"/>
</svg>
