<svg width="44" height="110" viewBox="0 0 44 110" fill="none" xmlns="http://www.w3.org/2000/svg" xmlns:xlink="http://www.w3.org/1999/xlink">
<path d="M3.005,102.263C3.357,105.138 5.672,107.412 8.562,107.592C12.874,107.859 17.186,108 22,108C26.814,108 31.127,107.859 35.438,107.592C38.328,107.412 40.643,105.138 40.995,102.263C41.489,98.228 42,94.045 42,89.758C42,85.471 41.489,81.288 40.995,77.253C40.643,74.379 38.328,72.104 35.438,71.925C31.127,71.657 26.814,71.517 22,71.517C17.186,71.517 12.874,71.657 8.562,71.925C5.672,72.104 3.357,74.379 3.005,77.253C2.511,81.288 2,85.471 2,89.758C2,94.045 2.511,98.228 3.005,102.263Z" fill="#FFFFFF"/>
<line x1="16.643" y1="-0.31" x2="16.643" y2="6.828" stroke="#757575" stroke-width="2" stroke-miterlimit="3.999327" stroke-linecap="round"/>
<line x1="31.336" y1="-0.31" x2="31.336" y2="6.828" stroke="#757575" stroke-width="2" stroke-miterlimit="3.999327" stroke-linecap="round"/>
<path d="M3.433,3.697L40.566,3.697L40.045,15.039L22.219,16.148L3.433,15.039L3.433,3.697Z" transform="rotate(-360 22 9.923)" fill="#DDD6ED"/>
<path d="M40.995,77.253L39.009,77.497L40.995,77.253ZM35.438,107.592L35.314,105.596L35.438,107.592ZM8.562,71.925L8.686,73.921L8.562,71.925ZM8.562,107.592L8.438,109.588L8.562,107.592ZM3.005,102.263L1.02,102.506L3.005,102.263ZM22,106C17.227,106 12.956,105.86 8.686,105.596L8.438,109.588C12.791,109.858 17.145,110 22,110L22,106ZM35.314,105.596C31.044,105.86 26.773,106 22,106L22,110C26.855,110 31.209,109.858 35.562,109.588L35.314,105.596ZM42.98,102.506C43.472,98.488 44,94.186 44,89.758L40,89.758C40,93.904 39.506,97.968 39.009,102.02L42.98,102.506ZM44,89.758C44,85.33 43.472,81.028 42.98,77.01L39.009,77.497C39.506,81.549 40,85.613 40,89.758L44,89.758ZM22,73.517C26.773,73.517 31.044,73.656 35.314,73.921L35.562,69.929C31.209,69.659 26.855,69.517 22,69.517L22,73.517ZM8.686,73.921C12.956,73.656 17.227,73.517 22,73.517L22,69.517C17.145,69.517 12.791,69.659 8.438,69.929L8.686,73.921ZM1.02,77.01C0.528,81.028 0,85.33 0,89.758L4,89.758C4,85.613 4.494,81.549 4.991,77.496L1.02,77.01ZM0,89.758C0,94.186 0.528,98.488 1.02,102.506L4.991,102.02C4.494,97.968 4,93.904 4,89.758L0,89.758ZM42.98,77.01C42.516,73.223 39.458,70.17 35.562,69.929L35.314,73.921C37.199,74.038 38.769,75.534 39.009,77.497L42.98,77.01ZM35.562,109.588C39.458,109.346 42.516,106.293 42.98,102.506L39.009,102.02C38.769,103.982 37.199,105.479 35.314,105.596L35.562,109.588ZM8.438,69.929C4.542,70.17 1.484,73.223 1.02,77.01L4.991,77.496C5.231,75.534 6.801,74.038 8.686,73.921L8.438,69.929ZM8.686,105.596C6.801,105.479 5.231,103.982 4.991,102.02L1.02,102.506C1.484,106.293 4.542,109.346 8.438,109.588L8.686,105.596Z" fill="#757575"/>
<line x1="2.957" y1="83.519" x2="41.24" y2="83.519" stroke="#757575" stroke-width="2" stroke-miterlimit="3.999327"/>
</svg>
