<svg width="496" height="496" viewBox="0 0 496 496" fill="none" xmlns="http://www.w3.org/2000/svg" xmlns:xlink="http://www.w3.org/1999/xlink">
<path d="M474.378,252.856C486.288,253.112 496.248,243.648 495.468,231.762C493.3,198.713 484.526,166.356 469.588,136.633C454.65,106.91 433.918,80.563 408.692,59.103C399.618,51.384 386.082,53.729 379.18,63.439L379.18,63.439C372.278,73.149 374.644,86.534 383.576,94.418C403.136,111.684 419.268,132.574 431.044,156.005C442.82,179.435 449.958,204.846 452.142,230.846C453.14,242.716 462.468,252.602 474.378,252.856L474.378,252.856Z" fill="#EFF2F4"/>
<path d="M408.11,87.889C416.534,79.466 416.59,65.727 407.466,58.067C375.22,30.993 336.512,12.495 294.936,4.482C246.28,-4.896 195.929,0.517 150.377,20.022C104.826,39.528 66.162,72.232 39.371,113.918C16.48,149.536 3.154,190.317 0.495,232.338C-0.257,244.226 9.724,253.666 21.633,253.384L21.633,253.384C33.542,253.1 42.849,243.192 43.819,231.32C46.546,197.932 57.432,165.605 75.662,137.241C97.792,102.806 129.73,75.791 167.358,59.678C204.986,43.565 246.578,39.094 286.772,46.841C319.88,53.222 350.788,67.653 376.832,88.719C386.094,96.211 399.688,96.313 408.11,87.889L408.11,87.889Z" fill="#6C5DD3"/>
</svg>
