<svg width="486" height="496" viewBox="0 0 486 496" fill="none" xmlns="http://www.w3.org/2000/svg" xmlns:xlink="http://www.w3.org/1999/xlink">
<path d="M463.41,252.856C475.066,253.112 484.812,243.848 484.086,232.212C482.014,199.006 473.422,166.491 458.744,136.633C444.218,107.086 424.094,80.876 399.618,59.485C390.582,51.59 376.906,53.955 370.056,63.806L370.056,63.806C363.406,73.371 365.716,86.415 374.376,94.206C393.614,111.513 409.476,132.479 421.042,156.005C432.632,179.581 439.63,205.164 441.718,231.334C442.646,242.942 451.768,252.602 463.41,252.856L463.41,252.856Z" fill="#EFF2F4"/>
<path d="M398.94,87.552C407.048,79.262 407.108,65.93 398.322,58.361C366.712,31.127 328.722,12.524 287.908,4.482C240.316,-4.896 191.066,0.517 146.51,20.022C101.955,39.528 64.136,72.232 37.931,113.918C15.46,149.663 2.412,190.607 -0.123,232.784C-0.823,244.424 8.945,253.666 20.603,253.382L20.603,253.382C32.243,253.1 41.342,243.42 42.242,231.81C44.844,198.249 55.509,165.744 73.428,137.241C95.074,102.806 126.315,75.791 163.12,59.678C199.926,43.565 240.608,39.094 279.924,46.841C312.146,53.19 342.238,67.508 367.634,88.403C376.872,96.005 390.574,96.105 398.94,87.552L398.94,87.552Z" fill="#6C5DD3"/>
</svg>
