<svg width="38" height="34" viewBox="0 0 38 34" fill="none" xmlns="http://www.w3.org/2000/svg" xmlns:xlink="http://www.w3.org/1999/xlink">
<path d="M24.85,16.025C28.635,16.025 31.704,12.957 31.704,9.171C31.704,5.386 28.635,2.317 24.85,2.317C21.065,2.317 17.996,5.386 17.996,9.171C17.996,12.957 21.065,16.025 24.85,16.025Z" fill="#DDD6ED" fill-opacity="0.54"/>
<path d="M24.852,14.526C24.023,14.526 23.352,15.197 23.352,16.026C23.352,16.854 24.023,17.526 24.852,17.526L24.852,14.526ZM27.818,1.361C27.044,1.066 26.178,1.456 25.883,2.23C25.589,3.004 25.978,3.871 26.753,4.165L27.818,1.361ZM30.205,9.172C30.205,12.129 27.808,14.526 24.852,14.526L24.852,17.526C29.465,17.526 33.205,13.786 33.205,9.172L30.205,9.172ZM26.753,4.165C28.773,4.933 30.205,6.887 30.205,9.172L33.205,9.172C33.205,5.601 30.965,2.556 27.818,1.361L26.753,4.165Z" fill="#757575"/>
<path d="M34.211,25.654C37.564,27.886 35.3,32.193 31.272,32.193L16.145,32.193C12.117,32.193 9.853,27.886 13.205,25.654C16.213,23.651 19.824,22.483 23.708,22.483C27.592,22.483 31.204,23.651 34.211,25.654Z" fill="#DDD6ED" fill-opacity="0.54"/>
<path d="M13.316,14.667C17.42,14.667 20.746,11.34 20.746,7.237C20.746,3.134 17.42,-0.192 13.316,-0.192C9.213,-0.192 5.887,3.134 5.887,7.237C5.887,11.34 9.213,14.667 13.316,14.667Z" fill="#DDD6ED" fill-opacity="0.54" stroke="#757575" stroke-width="1.5" stroke-miterlimit="3.999327" stroke-linecap="round" stroke-linejoin="round"/>
<path d="M24.698,25.105C28.332,27.526 25.878,32.194 21.511,32.194L5.114,32.194C0.747,32.194 -1.707,27.526 1.928,25.105C5.187,22.934 9.102,21.669 13.313,21.669C17.523,21.669 21.438,22.934 24.698,25.105Z" fill="#DDD6ED" fill-opacity="0.54" stroke="#757575" stroke-width="1.5" stroke-miterlimit="3.999327"/>
<path d="M20.879,30.694C20.05,30.694 19.379,31.365 19.379,32.194C19.379,33.022 20.05,33.694 20.879,33.694L20.879,30.694ZM34.211,25.654L35.043,24.406L35.043,24.406L34.211,25.654ZM31.871,22.676C31.111,22.346 30.227,22.694 29.897,23.453C29.566,24.213 29.914,25.097 30.673,25.427L31.871,22.676ZM20.879,33.694L31.272,33.694L31.272,30.694L20.879,30.694L20.879,33.694ZM31.272,33.694C33.819,33.694 35.943,32.325 36.862,30.41C37.325,29.445 37.482,28.327 37.18,27.222C36.875,26.109 36.14,25.136 35.043,24.406L33.38,26.903C33.959,27.289 34.198,27.691 34.286,28.014C34.376,28.344 34.344,28.722 34.157,29.113C33.775,29.909 32.753,30.694 31.272,30.694L31.272,33.694ZM30.673,25.427C31.622,25.84 32.527,26.335 33.38,26.903L35.043,24.406C34.044,23.741 32.983,23.161 31.871,22.676L30.673,25.427Z" fill="#757575"/>
</svg>
