<svg width="84" height="84" viewBox="0 0 84 84" fill="none" xmlns="http://www.w3.org/2000/svg" xmlns:xlink="http://www.w3.org/1999/xlink">
<path d="M48.896,40.747C48.896,43.517 51.142,45.762 53.911,45.762C56.681,45.762 58.926,43.517 58.926,40.747L48.896,40.747ZM1.255,65.195C1.255,67.964 3.5,70.21 6.27,70.21C9.039,70.21 11.284,67.964 11.284,65.195L1.255,65.195ZM48.896,28.837L48.896,40.747L58.926,40.747L58.926,28.837L48.896,28.837ZM11.284,65.195L11.284,28.837L1.255,28.837L1.255,65.195L11.284,65.195ZM30.09,10.031C40.477,10.031 48.896,18.45 48.896,28.837L58.926,28.837C58.926,12.911 46.016,0.001 30.09,0.001L30.09,10.031ZM30.09,0.001C14.165,0.001 1.255,12.911 1.255,28.837L11.284,28.837C11.284,18.45 19.704,10.031 30.09,10.031L30.09,0.001Z" fill="#6C5DD3"/>
<path d="M72.715,53.91C72.715,56.679 74.961,58.925 77.73,58.925C80.5,58.925 82.745,56.679 82.745,53.91L72.715,53.91ZM25.074,78.984C25.074,81.754 27.319,83.999 30.089,83.999C32.858,83.999 35.104,81.754 35.104,78.984L25.074,78.984ZM72.715,42.626L72.715,53.91L82.745,53.91L82.745,42.626L72.715,42.626ZM35.104,78.984L35.104,42.626L25.074,42.626L25.074,78.984L35.104,78.984ZM53.91,23.82C64.296,23.82 72.715,32.24 72.715,42.626L82.745,42.626C82.745,26.701 69.835,13.79 53.91,13.79L53.91,23.82ZM53.91,13.79C37.984,13.79 25.074,26.701 25.074,42.626L35.104,42.626C35.104,32.24 43.523,23.82 53.91,23.82L53.91,13.79Z" transform="rotate(-360 53.91 48.895)" fill="#6C5DD3"/>
<line x1="5.016" y1="37.612" x2="78.986" y2="37.612" stroke="#6C5DD3" stroke-width="5.015" stroke-miterlimit="3.999327"/>
<rect  x="0" y="0" width="73.97" height="73.97" rx="20.06" stroke="#6C5DD3" stroke-width="5.015" stroke-miterlimit="3.999327"/>
</svg>
