<svg width="160" height="160" viewBox="0 0 160 160" fill="none" xmlns="http://www.w3.org/2000/svg" xmlns:xlink="http://www.w3.org/1999/xlink">
<path d="M92.644,77.204C92.644,82.451 96.898,86.706 102.146,86.706C107.393,86.706 111.648,82.451 111.648,77.204L92.644,77.204ZM2.375,123.526C2.375,128.774 6.629,133.028 11.877,133.028C17.125,133.028 21.379,128.774 21.379,123.526L2.375,123.526ZM92.644,54.637L92.644,77.204L111.648,77.204L111.648,54.637L92.644,54.637ZM21.379,123.526L21.379,54.636L2.375,54.636L2.375,123.526L21.379,123.526ZM57.011,19.004C76.691,19.004 92.644,34.957 92.644,54.637L111.648,54.637C111.648,24.462 87.186,0 57.011,0L57.011,19.004ZM57.011,0C26.837,0 2.375,24.462 2.375,54.636L21.379,54.636C21.379,34.957 37.332,19.004 57.011,19.004L57.011,0Z" fill="#6C5DD3"/>
<path d="M147.281,80.767L137.779,80.767L137.779,80.767L147.281,80.767ZM137.779,102.146C137.779,107.394 142.033,111.648 147.281,111.648C152.529,111.648 156.783,107.394 156.783,102.146L137.779,102.146ZM47.511,149.656C47.511,154.904 51.765,159.158 57.013,159.158C62.26,159.158 66.515,154.904 66.515,149.656L47.511,149.656ZM137.779,80.767L137.779,102.146L156.783,102.146L156.783,80.767L137.779,80.767ZM66.515,149.656L66.515,80.767L47.511,80.767L47.511,149.656L66.515,149.656ZM102.147,45.134C121.826,45.134 137.779,61.087 137.779,80.767L156.783,80.767C156.783,50.592 132.322,26.13 102.147,26.13L102.147,45.134ZM102.147,26.13C71.972,26.13 47.511,50.592 47.511,80.767L66.515,80.767C66.515,61.087 82.468,45.134 102.147,45.134L102.147,26.13Z" transform="rotate(-360 102.147 92.644)" fill="#6C5DD3"/>
<line x1="9.504" y1="71.265" x2="149.658" y2="71.265" stroke="#6C5DD3" stroke-width="9.502" stroke-miterlimit="3.999327"/>
<rect  x="0" y="0" width="140.154" height="140.154" rx="38.008" stroke="#6C5DD3" stroke-width="9.502" stroke-miterlimit="3.999327"/>
</svg>
