<svg width="84" height="84" viewBox="0 0 84 84" fill="none" xmlns="http://www.w3.org/2000/svg" xmlns:xlink="http://www.w3.org/1999/xlink">
<path d="M48.896,40.746C48.896,43.516 51.142,45.761 53.911,45.761C56.681,45.761 58.926,43.516 58.926,40.746L48.896,40.746ZM1.255,65.194C1.255,67.964 3.5,70.209 6.27,70.209C9.039,70.209 11.284,67.964 11.284,65.194L1.255,65.194ZM48.896,28.836L48.896,40.746L58.926,40.746L58.926,28.836L48.896,28.836ZM11.284,65.194L11.284,28.836L1.255,28.836L1.255,65.194L11.284,65.194ZM30.09,10.03C40.477,10.03 48.896,18.45 48.896,28.836L58.926,28.836C58.926,12.91 46.016,0 30.09,0L30.09,10.03ZM30.09,0C14.165,0 1.255,12.91 1.255,28.836L11.284,28.836C11.284,18.45 19.704,10.03 30.09,10.03L30.09,0Z" fill="#6C5DD3"/>
<path d="M72.715,53.91C72.715,56.68 74.961,58.925 77.73,58.925C80.5,58.925 82.745,56.68 82.745,53.91L72.715,53.91ZM25.074,78.985C25.074,81.755 27.319,84 30.089,84C32.858,84 35.104,81.755 35.104,78.985L25.074,78.985ZM72.715,42.627L72.715,53.91L82.745,53.91L82.745,42.627L72.715,42.627ZM35.104,78.985L35.104,42.627L25.074,42.627L25.074,78.985L35.104,78.985ZM53.91,23.821C64.296,23.821 72.715,32.241 72.715,42.627L82.745,42.627C82.745,26.701 69.835,13.791 53.91,13.791L53.91,23.821ZM53.91,13.791C37.984,13.791 25.074,26.701 25.074,42.627L35.104,42.627C35.104,32.241 43.523,23.821 53.91,23.821L53.91,13.791Z" transform="rotate(-360 53.91 48.895)" fill="#6C5DD3"/>
<line x1="5.016" y1="37.612" x2="78.986" y2="37.612" stroke="#6C5DD3" stroke-width="5.015" stroke-miterlimit="3.999327"/>
<rect  x="0" y="0" width="73.97" height="73.97" rx="20.06" stroke="#6C5DD3" stroke-width="5.015" stroke-miterlimit="3.999327"/>
</svg>
