<svg width="84" height="84" viewBox="0 0 84 84" fill="none" xmlns="http://www.w3.org/2000/svg" xmlns:xlink="http://www.w3.org/1999/xlink">
<path d="M48.895,40.746C48.895,43.516 51.141,45.761 53.91,45.761C56.68,45.761 58.925,43.516 58.925,40.746L48.895,40.746ZM1.254,65.194C1.254,67.963 3.499,70.209 6.269,70.209C9.038,70.209 11.283,67.963 11.283,65.194L1.254,65.194ZM48.895,28.836L48.895,40.746L58.925,40.746L58.925,28.836L48.895,28.836ZM11.283,65.194L11.283,28.836L1.254,28.836L1.254,65.194L11.283,65.194ZM30.089,10.03C40.476,10.03 48.895,18.449 48.895,28.836L58.925,28.836C58.925,12.91 46.015,0 30.089,0L30.089,10.03ZM30.089,0C14.164,0 1.254,12.91 1.254,28.836L11.283,28.836C11.283,18.449 19.703,10.03 30.089,10.03L30.089,0Z" fill="#6C5DD3"/>
<path d="M72.716,53.911C72.716,56.68 74.962,58.926 77.731,58.926C80.501,58.926 82.746,56.68 82.746,53.911L72.716,53.911ZM25.075,78.985C25.075,81.755 27.32,84 30.09,84C32.859,84 35.105,81.755 35.105,78.985L25.075,78.985ZM72.716,42.627L72.716,53.911L82.746,53.911L82.746,42.627L72.716,42.627ZM35.105,78.985L35.105,42.627L25.075,42.627L25.075,78.985L35.105,78.985ZM53.911,23.821C64.297,23.821 72.716,32.241 72.716,42.627L82.746,42.627C82.746,26.702 69.836,13.791 53.911,13.791L53.911,23.821ZM53.911,13.791C37.985,13.791 25.075,26.702 25.075,42.627L35.105,42.627C35.105,32.241 43.524,23.821 53.911,23.821L53.911,13.791Z" transform="rotate(-360 53.911 48.896)" fill="#6C5DD3"/>
<line x1="5.016" y1="37.612" x2="78.986" y2="37.612" stroke="#6C5DD3" stroke-width="5.015" stroke-miterlimit="3.999327"/>
<rect  x="0" y="0" width="73.97" height="73.97" rx="20.06" stroke="#6C5DD3" stroke-width="5.015" stroke-miterlimit="3.999327"/>
</svg>
