<svg width="38" height="34" viewBox="0 0 38 34" fill="none" xmlns="http://www.w3.org/2000/svg" xmlns:xlink="http://www.w3.org/1999/xlink">
<path d="M24.848,16.025C28.633,16.025 31.702,12.957 31.702,9.171C31.702,5.386 28.633,2.317 24.848,2.317C21.063,2.317 17.994,5.386 17.994,9.171C17.994,12.957 21.063,16.025 24.848,16.025Z" fill="#DDD6ED" fill-opacity="0.54"/>
<path d="M24.848,14.526C24.019,14.526 23.348,15.197 23.348,16.026C23.348,16.854 24.019,17.526 24.848,17.526L24.848,14.526ZM27.814,1.361C27.04,1.066 26.174,1.456 25.879,2.23C25.585,3.004 25.974,3.871 26.749,4.165L27.814,1.361ZM30.202,9.172C30.202,12.129 27.805,14.526 24.848,14.526L24.848,17.526C29.461,17.526 33.202,13.786 33.202,9.172L30.202,9.172ZM26.749,4.165C28.77,4.933 30.202,6.887 30.202,9.172L33.202,9.172C33.202,5.601 30.961,2.556 27.814,1.361L26.749,4.165Z" fill="#757575"/>
<path d="M34.211,25.654C37.564,27.886 35.3,32.193 31.272,32.193L16.145,32.193C12.117,32.193 9.853,27.886 13.205,25.654C16.213,23.651 19.824,22.483 23.708,22.483C27.592,22.483 31.204,23.651 34.211,25.654Z" fill="#DDD6ED" fill-opacity="0.54"/>
<path d="M13.316,14.667C17.42,14.667 20.746,11.34 20.746,7.237C20.746,3.134 17.42,-0.192 13.316,-0.192C9.213,-0.192 5.887,3.134 5.887,7.237C5.887,11.34 9.213,14.667 13.316,14.667Z" fill="#DDD6ED" fill-opacity="0.54" stroke="#757575" stroke-width="1.5" stroke-miterlimit="3.999327" stroke-linecap="round" stroke-linejoin="round"/>
<path d="M24.696,25.105C28.33,27.526 25.876,32.194 21.509,32.194L5.112,32.194C0.746,32.194 -1.708,27.526 1.926,25.105C5.185,22.934 9.1,21.669 13.311,21.669C17.521,21.669 21.436,22.934 24.696,25.105Z" fill="#DDD6ED" fill-opacity="0.54" stroke="#757575" stroke-width="1.5" stroke-miterlimit="3.999327"/>
<path d="M20.877,30.694C20.049,30.694 19.377,31.365 19.377,32.194C19.377,33.022 20.049,33.694 20.877,33.694L20.877,30.694ZM34.209,25.654L35.041,24.406L35.041,24.406L34.209,25.654ZM31.869,22.676C31.109,22.346 30.225,22.694 29.895,23.453C29.564,24.213 29.912,25.097 30.671,25.427L31.869,22.676ZM20.877,33.694L31.27,33.694L31.27,30.694L20.877,30.694L20.877,33.694ZM31.27,33.694C33.817,33.694 35.941,32.325 36.86,30.41C37.323,29.445 37.48,28.327 37.178,27.222C36.873,26.109 36.138,25.136 35.041,24.406L33.378,26.903C33.957,27.289 34.196,27.691 34.284,28.014C34.374,28.344 34.342,28.722 34.155,29.113C33.773,29.909 32.751,30.694 31.27,30.694L31.27,33.694ZM30.671,25.427C31.62,25.84 32.525,26.335 33.378,26.903L35.041,24.406C34.042,23.741 32.981,23.161 31.869,22.676L30.671,25.427Z" fill="#757575"/>
</svg>
