<svg width="40" height="40" viewBox="0 0 40 40" fill="none" xmlns="http://www.w3.org/2000/svg" xmlns:xlink="http://www.w3.org/1999/xlink">
<path d="M34.666,20C34.666,28.1 28.1,34.666 20,34.666L20,38.666C30.309,38.666 38.666,30.309 38.666,20L34.666,20ZM20,34.666C11.9,34.666 5.333,28.1 5.333,20L1.333,20C1.333,30.309 9.69,38.666 20,38.666L20,34.666ZM5.333,20C5.333,11.9 11.9,5.333 20,5.333L20,1.333C9.69,1.333 1.333,9.69 1.333,20L5.333,20ZM20,5.333C28.1,5.333 34.666,11.9 34.666,20L38.666,20C38.666,9.69 30.309,1.333 20,1.333L20,5.333Z" fill="#000000"/>
<path d="M13.264,14.336C12.897,15.378 13.445,16.52 14.487,16.887C15.529,17.253 16.671,16.706 17.037,15.664L13.264,14.336ZM24.867,16.667L22.867,16.664L22.867,16.667L24.867,16.667ZM19.235,19.769C18.187,20.119 17.62,21.251 17.97,22.299C18.319,23.347 19.452,23.913 20.5,23.564L19.235,19.769ZM17.037,15.664C17.272,14.995 17.736,14.432 18.347,14.073L16.32,10.624C14.895,11.462 13.812,12.777 13.264,14.336L17.037,15.664ZM18.347,14.073C18.958,13.714 19.676,13.583 20.374,13.702L21.05,9.76C19.421,9.48 17.745,9.787 16.32,10.624L18.347,14.073ZM20.374,13.702C21.073,13.822 21.706,14.185 22.162,14.727L25.222,12.151C24.158,10.887 22.68,10.039 21.05,9.76L20.374,13.702ZM22.162,14.727C22.618,15.269 22.868,15.955 22.867,16.664L26.867,16.67C26.87,15.016 26.287,13.416 25.222,12.151L22.162,14.727ZM22.867,16.667C22.867,17.272 22.387,18 21.258,18.753C20.754,19.088 20.236,19.349 19.836,19.527C19.639,19.614 19.477,19.679 19.37,19.72C19.316,19.74 19.277,19.754 19.253,19.763C19.241,19.767 19.234,19.769 19.231,19.771C19.229,19.771 19.229,19.771 19.229,19.771C19.23,19.771 19.23,19.771 19.231,19.77C19.231,19.77 19.232,19.77 19.233,19.77C19.233,19.77 19.233,19.77 19.234,19.77C19.234,19.769 19.235,19.769 19.867,21.667C20.5,23.564 20.5,23.564 20.501,23.564C20.501,23.564 20.502,23.563 20.502,23.563C20.503,23.563 20.504,23.563 20.505,23.562C20.507,23.561 20.509,23.561 20.512,23.56C20.518,23.558 20.524,23.556 20.532,23.553C20.548,23.548 20.568,23.54 20.593,23.532C20.643,23.514 20.711,23.489 20.794,23.457C20.96,23.394 21.189,23.302 21.461,23.182C21.998,22.943 22.73,22.578 23.476,22.081C24.847,21.167 26.867,19.395 26.867,16.667L22.867,16.667Z" fill="#000000"/>
<line x1="20" y1="26.333" x2="20.017" y2="26.333" stroke="#000000" stroke-width="2" stroke-miterlimit="3.999327" stroke-linecap="round" stroke-linejoin="round"/>
</svg>
