<svg width="36" height="36" viewBox="0 0 36 36" fill="none" xmlns="http://www.w3.org/2000/svg" xmlns:xlink="http://www.w3.org/1999/xlink">
<path d="M23.93,22.51L25.51,22.51L35.49,32.51L32.51,35.49L22.51,25.51L22.51,23.93L21.97,23.37C19.69,25.33 16.73,26.51 13.51,26.51C6.33,26.51 0.51,20.69 0.51,13.51C0.51,6.33 6.33,0.51 13.51,0.51C20.69,0.51 26.51,6.33 26.51,13.51C26.51,16.73 25.33,19.69 23.37,21.97L23.93,22.51ZM4.51,13.51C4.51,18.49 8.53,22.51 13.51,22.51C18.49,22.51 22.51,18.49 22.51,13.51C22.51,8.53 18.49,4.51 13.51,4.51C8.53,4.51 4.51,8.53 4.51,13.51Z" clip-rule="evenodd" fill-rule="evenodd" fill="#000000" fill-opacity="0.6"/>
</svg>
