<svg width="40" height="40" viewBox="0 0 40 40" fill="none" xmlns="http://www.w3.org/2000/svg" xmlns:xlink="http://www.w3.org/1999/xlink">
<path d="M15,37C16.105,37 17,36.105 17,35C17,33.895 16.105,33 15,33L15,37ZM5,31.667L3,31.667L5,31.667ZM8.333,5L8.333,3L8.333,5ZM15,7C16.105,7 17,6.105 17,5C17,3.895 16.105,3 15,3L15,7ZM15,33L8.333,33L8.333,37L15,37L15,33ZM8.333,33C7.98,33 7.641,32.86 7.391,32.609L4.562,35.438C5.562,36.438 6.919,37 8.333,37L8.333,33ZM7.391,32.609C7.14,32.359 7,32.02 7,31.667L3,31.667C3,33.081 3.562,34.438 4.562,35.438L7.391,32.609ZM7,31.667L7,8.333L3,8.333L3,31.667L7,31.667ZM7,8.333C7,7.98 7.14,7.641 7.391,7.391L4.562,4.562C3.562,5.562 3,6.919 3,8.333L7,8.333ZM7.391,7.391C7.641,7.14 7.98,7 8.333,7L8.333,3C6.919,3 5.562,3.562 4.562,4.562L7.391,7.391ZM8.333,7L15,7L15,3L8.333,3L8.333,7Z" fill="#000000"/>
<path d="M25.253,26.919C24.472,27.7 24.472,28.967 25.253,29.748C26.034,30.529 27.3,30.529 28.081,29.748L25.253,26.919ZM35,20L36.415,21.415C37.196,20.633 37.196,19.367 36.415,18.586L35,20ZM28.081,10.253C27.3,9.472 26.034,9.472 25.253,10.253C24.472,11.034 24.472,12.3 25.253,13.081L28.081,10.253ZM28.081,29.748L36.415,21.415L33.586,18.586L25.253,26.919L28.081,29.748ZM36.415,18.586L28.081,10.253L25.253,13.081L33.586,21.415L36.415,18.586Z" fill="#000000"/>
<line x1="15" y1="18" x2="35" y2="18" stroke="#000000" stroke-width="2" stroke-miterlimit="3.999327" stroke-linecap="round" stroke-linejoin="round"/>
</svg>
