<svg width="62" height="62" viewBox="0 0 62 62" fill="none" xmlns="http://www.w3.org/2000/svg" xmlns:xlink="http://www.w3.org/1999/xlink">
<path d="M30.714,54.352C31.426,53.256 30.475,52 29.168,52L18.832,52C17.525,52 16.574,53.256 17.286,54.352C18.712,56.548 21.186,58 24,58C26.813,58 29.288,56.548 30.714,54.352Z" fill="#B6B6B6"/>
<path d="M41.172,48L6.808,48C5.257,48 4,46.743 4,45.192C4,44.43 4.309,43.701 4.857,43.172L6.915,41.185C7.698,40.428 8.139,39.384 8.136,38.295L8.122,33.991C8.093,25.168 15.237,18 24.061,18C32.864,18 40,25.136 40,33.939L40,38.343C40,39.404 40.421,40.421 41.172,41.172L43.172,43.172C43.702,43.702 44,44.421 44,45.172C44,46.734 42.734,48 41.172,48Z" fill="#B6B6B6"/>
<circle cx="54" cy="8" r="8" fill="#FF5630"/>
</svg>
