<svg width="40" height="42" viewBox="0 0 40 42" fill="none" xmlns="http://www.w3.org/2000/svg" xmlns:xlink="http://www.w3.org/1999/xlink">
<path d="M34.665,20.231C34.665,28.331 28.099,34.898 19.999,34.898L19.999,38.898C30.308,38.898 38.665,30.54 38.665,20.231L34.665,20.231ZM19.999,34.898C11.899,34.898 5.332,28.331 5.332,20.231L1.332,20.231C1.332,30.54 9.689,38.898 19.999,38.898L19.999,34.898ZM5.332,20.231C5.332,12.131 11.899,5.564 19.999,5.564L19.999,1.564C9.689,1.564 1.332,9.922 1.332,20.231L5.332,20.231ZM19.999,5.564C28.099,5.564 34.665,12.131 34.665,20.231L38.665,20.231C38.665,9.922 30.308,1.564 19.999,1.564L19.999,5.564Z" fill="#FFFFFF"/>
<line x1="18" y1="13.564" x2="18" y2="26.898" stroke="#FFFFFF" stroke-width="2" stroke-miterlimit="3.999327" stroke-linecap="round" stroke-linejoin="round"/>
<line x1="13.332" y1="18.231" x2="26.665" y2="18.231" stroke="#FFFFFF" stroke-width="2" stroke-miterlimit="3.999327" stroke-linecap="round" stroke-linejoin="round"/>
</svg>
