<svg width="40" height="42" viewBox="0 0 40 42" fill="none" xmlns="http://www.w3.org/2000/svg" xmlns:xlink="http://www.w3.org/1999/xlink">
<path d="M34.669,20.231C34.669,28.331 28.103,34.898 20.003,34.898L20.003,38.898C30.312,38.898 38.669,30.54 38.669,20.231L34.669,20.231ZM20.003,34.898C11.902,34.898 5.336,28.331 5.336,20.231L1.336,20.231C1.336,30.54 9.693,38.898 20.003,38.898L20.003,34.898ZM5.336,20.231C5.336,12.131 11.902,5.564 20.003,5.564L20.003,1.564C9.693,1.564 1.336,9.922 1.336,20.231L5.336,20.231ZM20.003,5.564C28.103,5.564 34.669,12.131 34.669,20.231L38.669,20.231C38.669,9.922 30.312,1.564 20.003,1.564L20.003,5.564Z" fill="#FFFFFF"/>
<line x1="18" y1="13.564" x2="18" y2="26.898" stroke="#FFFFFF" stroke-width="2" stroke-miterlimit="3.999327" stroke-linecap="round" stroke-linejoin="round"/>
<line x1="13.336" y1="18.23" x2="26.669" y2="18.23" stroke="#FFFFFF" stroke-width="2" stroke-miterlimit="3.999327" stroke-linecap="round" stroke-linejoin="round"/>
</svg>
