<svg width="40" height="42" viewBox="0 0 40 42" fill="none" xmlns="http://www.w3.org/2000/svg" xmlns:xlink="http://www.w3.org/1999/xlink">
<path d="M34.667,20.232C34.667,28.332 28.101,34.898 20.001,34.898L20.001,38.898C30.31,38.898 38.667,30.541 38.667,20.232L34.667,20.232ZM20.001,34.898C11.9,34.898 5.334,28.332 5.334,20.232L1.334,20.232C1.334,30.541 9.691,38.898 20.001,38.898L20.001,34.898ZM5.334,20.232C5.334,12.131 11.9,5.565 20.001,5.565L20.001,1.565C9.691,1.565 1.334,9.922 1.334,20.232L5.334,20.232ZM20.001,5.565C28.101,5.565 34.667,12.131 34.667,20.232L38.667,20.232C38.667,9.922 30.31,1.565 20.001,1.565L20.001,5.565Z" fill="#FFFFFF"/>
<line x1="18" y1="13.565" x2="18" y2="26.898" stroke="#FFFFFF" stroke-width="2" stroke-miterlimit="3.999327" stroke-linecap="round" stroke-linejoin="round"/>
<line x1="13.334" y1="18.231" x2="26.667" y2="18.231" stroke="#FFFFFF" stroke-width="2" stroke-miterlimit="3.999327" stroke-linecap="round" stroke-linejoin="round"/>
</svg>
