<svg width="40" height="42" viewBox="0 0 40 42" fill="none" xmlns="http://www.w3.org/2000/svg" xmlns:xlink="http://www.w3.org/1999/xlink">
<path d="M34.667,20.231C34.667,28.331 28.101,34.898 20.001,34.898L20.001,38.898C30.31,38.898 38.667,30.54 38.667,20.231L34.667,20.231ZM20.001,34.898C11.9,34.898 5.334,28.331 5.334,20.231L1.334,20.231C1.334,30.54 9.691,38.898 20.001,38.898L20.001,34.898ZM5.334,20.231C5.334,12.131 11.9,5.564 20.001,5.564L20.001,1.564C9.691,1.564 1.334,9.922 1.334,20.231L5.334,20.231ZM20.001,5.564C28.101,5.564 34.667,12.131 34.667,20.231L38.667,20.231C38.667,9.922 30.31,1.564 20.001,1.564L20.001,5.564Z" fill="#FFFFFF"/>
<line x1="18" y1="13.564" x2="18" y2="26.898" stroke="#FFFFFF" stroke-width="2" stroke-miterlimit="3.999327" stroke-linecap="round" stroke-linejoin="round"/>
<line x1="13.334" y1="18.231" x2="26.667" y2="18.231" stroke="#FFFFFF" stroke-width="2" stroke-miterlimit="3.999327" stroke-linecap="round" stroke-linejoin="round"/>
</svg>
