<svg width="42" height="42" viewBox="0 0 42 42" fill="none" xmlns="http://www.w3.org/2000/svg" xmlns:xlink="http://www.w3.org/1999/xlink">
<path d="M23,20C23,21.657 21.657,23 20,23L20,27C23.866,27 27,23.866 27,20L23,20ZM20,23C18.343,23 17,21.657 17,20L13,20C13,23.866 16.134,27 20,27L20,23ZM17,20C17,18.343 18.343,17 20,17L20,13C16.134,13 13,16.134 13,20L17,20ZM20,17C21.657,17 23,18.343 23,20L27,20C27,16.134 23.866,13 20,13L20,17Z" fill="#000000"/>
<path d="M32.334,25L34.163,25.808L34.172,25.788L32.334,25ZM32.884,28.034L31.454,29.432L31.469,29.448L32.884,28.034ZM32.984,28.134L31.569,29.548L31.57,29.549L32.984,28.134ZM32.984,32.85L31.57,31.435L31.569,31.437L32.984,32.85ZM28.267,32.85L29.682,31.437L29.681,31.436L28.267,32.85ZM28.167,32.75L29.581,31.336L29.566,31.321L28.167,32.75ZM25.134,32.2L25.922,34.039L25.941,34.03L25.134,32.2ZM23.467,34.717L21.467,34.709L21.467,34.717L23.467,34.717ZM16.8,34.85L18.8,34.85C18.8,34.835 18.8,34.819 18.8,34.804L16.8,34.85ZM15,32.334L14.193,34.163C14.231,34.18 14.27,34.196 14.31,34.211L15,32.334ZM11.967,32.884L10.568,31.454L10.553,31.469L11.967,32.884ZM11.867,32.984L10.453,31.569L10.452,31.57L11.867,32.984ZM7.15,32.984L8.565,31.57L8.564,31.569L7.15,32.984ZM6.173,30.625L8.173,30.625L6.173,30.625ZM7.15,28.267L8.564,29.682L8.565,29.681L7.15,28.267ZM7.25,28.167L8.665,29.581L8.68,29.566L7.25,28.167ZM7.8,25.134L5.962,25.922L5.971,25.941L7.8,25.134ZM5.284,23.467L5.292,21.467L5.284,21.467L5.284,23.467ZM1.667,20.134L-0.333,20.134L1.667,20.134ZM5,16.8L5,18.8L5,16.8ZM5.15,16.8L5.15,18.8C5.166,18.8 5.182,18.8 5.197,18.8L5.15,16.8ZM7.667,15L5.837,14.193C5.82,14.231 5.804,14.27 5.79,14.31L7.667,15ZM7.117,11.967L8.547,10.568L8.531,10.553L7.117,11.967ZM7.017,11.867L8.431,10.453L8.43,10.452L7.017,11.867ZM7.017,7.15L8.43,8.565L8.432,8.564L7.017,7.15ZM11.734,7.15L10.319,8.564L10.319,8.565L11.734,7.15ZM11.834,7.25L10.419,8.665L10.435,8.68L11.834,7.25ZM14.867,7.8L14.867,5.8C14.589,5.8 14.314,5.858 14.059,5.971L14.867,7.8ZM15,7.8L15,9.8C15.271,9.8 15.539,9.745 15.788,9.639L15,7.8ZM16.667,5.284L18.667,5.292L18.667,5.284L16.667,5.284ZM20,1.667L20,-0.333L20,1.667ZM23.334,5.15L21.334,5.15L21.334,5.158L23.334,5.15ZM25,7.667L25.808,5.837L25.788,5.829L25,7.667ZM28.034,7.117L29.432,8.547L29.448,8.531L28.034,7.117ZM28.134,7.017L29.548,8.431L29.549,8.43L28.134,7.017ZM30.492,6.039L30.492,8.039L30.492,6.039ZM32.85,7.017L31.435,8.43L31.437,8.432L32.85,7.017ZM32.85,11.734L31.437,10.319L31.436,10.319L32.85,11.734ZM32.75,11.834L31.336,10.419L31.321,10.435L32.75,11.834ZM32.2,14.867L34.2,14.867C34.2,14.589 34.142,14.314 34.03,14.059L32.2,14.867ZM32.2,15L30.2,15C30.2,15.271 30.255,15.539 30.362,15.788L32.2,15ZM34.717,16.667L34.709,18.667L34.717,18.667L34.717,16.667ZM34.85,23.334L34.85,21.334L34.842,21.334L34.85,23.334ZM30.504,24.193C30.121,25.061 30.006,26.024 30.176,26.958L34.112,26.244C34.085,26.097 34.103,25.945 34.163,25.808L30.504,24.193ZM30.176,26.958C30.345,27.892 30.79,28.754 31.454,29.432L34.313,26.635C34.209,26.528 34.138,26.392 34.112,26.244L30.176,26.958ZM31.469,29.448L31.569,29.548L34.398,26.719L34.298,26.619L31.469,29.448ZM31.57,29.549C31.694,29.672 31.793,29.82 31.86,29.981L35.555,28.45C35.286,27.802 34.893,27.214 34.397,26.719L31.57,29.549ZM31.86,29.981C31.927,30.143 31.961,30.317 31.961,30.492L35.961,30.492C35.961,29.791 35.823,29.097 35.555,28.45L31.86,29.981ZM31.961,30.492C31.961,30.667 31.927,30.841 31.86,31.003L35.555,32.534C35.823,31.887 35.961,31.193 35.961,30.492L31.961,30.492ZM31.86,31.003C31.793,31.164 31.694,31.312 31.57,31.435L34.397,34.265C34.893,33.77 35.286,33.182 35.555,32.534L31.86,31.003ZM31.569,31.437C31.445,31.561 31.298,31.659 31.136,31.726L32.668,35.421C33.315,35.153 33.903,34.76 34.399,34.264L31.569,31.437ZM31.136,31.726C30.974,31.793 30.801,31.828 30.625,31.828L30.625,35.828C31.326,35.828 32.02,35.69 32.668,35.421L31.136,31.726ZM30.625,31.828C30.45,31.828 30.277,31.793 30.115,31.726L28.583,35.421C29.23,35.69 29.924,35.828 30.625,35.828L30.625,31.828ZM30.115,31.726C29.953,31.659 29.806,31.561 29.682,31.437L26.852,34.264C27.347,34.76 27.936,35.153 28.583,35.421L30.115,31.726ZM29.681,31.436L29.581,31.336L26.753,34.165L26.853,34.265L29.681,31.436ZM29.566,31.321C28.887,30.657 28.025,30.212 27.091,30.042L26.378,33.978C26.525,34.005 26.661,34.075 26.768,34.18L29.566,31.321ZM27.091,30.042C26.158,29.873 25.194,29.987 24.326,30.371L25.941,34.03C26.078,33.97 26.23,33.952 26.378,33.978L27.091,30.042ZM24.346,30.362C23.494,30.727 22.768,31.333 22.257,32.105L25.592,34.314C25.672,34.192 25.787,34.096 25.922,34.039L24.346,30.362ZM22.257,32.105C21.745,32.878 21.471,33.783 21.467,34.709L25.467,34.725C25.468,34.579 25.511,34.436 25.592,34.314L22.257,32.105ZM21.467,34.717L21.467,35L25.467,35L25.467,34.717L21.467,34.717ZM21.467,35C21.467,35.354 21.327,35.693 21.076,35.943L23.905,38.772C24.905,37.771 25.467,36.415 25.467,35L21.467,35ZM21.076,35.943C20.826,36.193 20.487,36.334 20.134,36.334L20.134,40.334C21.548,40.334 22.905,39.772 23.905,38.772L21.076,35.943ZM20.134,36.334C19.78,36.334 19.441,36.193 19.191,35.943L16.362,38.772C17.363,39.772 18.719,40.334 20.134,40.334L20.134,36.334ZM19.191,35.943C18.941,35.693 18.8,35.354 18.8,35L14.8,35C14.8,36.415 15.362,37.771 16.362,38.772L19.191,35.943ZM18.8,35L18.8,34.85L14.8,34.85L14.8,35L18.8,35ZM18.8,34.804C18.777,33.851 18.469,32.927 17.915,32.151L14.661,34.478C14.749,34.601 14.797,34.747 14.801,34.897L18.8,34.804ZM17.915,32.151C17.36,31.376 16.585,30.786 15.691,30.457L14.31,34.211C14.451,34.263 14.574,34.356 14.661,34.478L17.915,32.151ZM15.808,30.504C14.94,30.121 13.976,30.006 13.043,30.176L13.756,34.112C13.904,34.085 14.056,34.103 14.193,34.163L15.808,30.504ZM13.043,30.176C12.109,30.345 11.247,30.79 10.568,31.454L13.366,34.313C13.473,34.209 13.609,34.138 13.756,34.112L13.043,30.176ZM10.553,31.469L10.453,31.569L13.281,34.398L13.381,34.298L10.553,31.469ZM10.452,31.57C10.328,31.694 10.181,31.793 10.019,31.86L11.551,35.555C12.198,35.286 12.787,34.893 13.282,34.397L10.452,31.57ZM10.019,31.86C9.857,31.927 9.684,31.961 9.509,31.961L9.509,35.961C10.21,35.961 10.904,35.823 11.551,35.555L10.019,31.86ZM9.509,31.961C9.333,31.961 9.16,31.927 8.998,31.86L7.466,35.555C8.114,35.823 8.808,35.961 9.509,35.961L9.509,31.961ZM8.998,31.86C8.836,31.793 8.689,31.694 8.565,31.57L5.735,34.397C6.231,34.893 6.819,35.286 7.466,35.555L8.998,31.86ZM8.564,31.569C8.44,31.445 8.341,31.298 8.274,31.136L4.579,32.668C4.848,33.315 5.241,33.903 5.737,34.399L8.564,31.569ZM8.274,31.136C8.207,30.974 8.173,30.801 8.173,30.625L4.173,30.625C4.173,31.326 4.311,32.02 4.579,32.668L8.274,31.136ZM8.173,30.625C8.173,30.45 8.207,30.277 8.274,30.115L4.579,28.583C4.311,29.23 4.173,29.924 4.173,30.625L8.173,30.625ZM8.274,30.115C8.341,29.953 8.44,29.806 8.564,29.682L5.737,26.852C5.241,27.347 4.848,27.936 4.579,28.583L8.274,30.115ZM8.565,29.681L8.665,29.581L5.836,26.753L5.736,26.853L8.565,29.681ZM8.68,29.566C9.344,28.887 9.789,28.025 9.958,27.091L6.022,26.378C5.996,26.525 5.925,26.661 5.821,26.768L8.68,29.566ZM9.958,27.091C10.128,26.158 10.013,25.194 9.63,24.326L5.971,25.941C6.031,26.078 6.049,26.23 6.022,26.378L9.958,27.091ZM9.639,24.346C9.274,23.494 8.668,22.768 7.895,22.257L5.687,25.592C5.809,25.672 5.904,25.787 5.962,25.922L9.639,24.346ZM7.895,22.257C7.123,21.745 6.218,21.471 5.292,21.467L5.276,25.467C5.422,25.468 5.565,25.511 5.687,25.592L7.895,22.257ZM5.284,21.467L5,21.467L5,25.467L5.284,25.467L5.284,21.467ZM5,21.467C4.647,21.467 4.308,21.327 4.058,21.076L1.229,23.905C2.229,24.905 3.586,25.467 5,25.467L5,21.467ZM4.058,21.076C3.807,20.826 3.667,20.487 3.667,20.134L-0.333,20.134C-0.333,21.548 0.229,22.905 1.229,23.905L4.058,21.076ZM3.667,20.134C3.667,19.78 3.807,19.441 4.058,19.191L1.229,16.362C0.229,17.363 -0.333,18.719 -0.333,20.134L3.667,20.134ZM4.058,19.191C4.308,18.941 4.647,18.8 5,18.8L5,14.8C3.586,14.8 2.229,15.362 1.229,16.362L4.058,19.191ZM5,18.8L5.15,18.8L5.15,14.8L5,14.8L5,18.8ZM5.197,18.8C6.15,18.777 7.074,18.469 7.849,17.915L5.522,14.661C5.4,14.749 5.254,14.797 5.104,14.801L5.197,18.8ZM7.849,17.915C8.625,17.36 9.215,16.585 9.544,15.691L5.79,14.31C5.738,14.451 5.645,14.574 5.522,14.661L7.849,17.915ZM9.497,15.808C9.88,14.94 9.994,13.976 9.825,13.043L5.889,13.756C5.916,13.904 5.898,14.056 5.837,14.193L9.497,15.808ZM9.825,13.043C9.656,12.109 9.21,11.247 8.547,10.568L5.687,13.366C5.792,13.473 5.862,13.609 5.889,13.756L9.825,13.043ZM8.531,10.553L8.431,10.453L5.603,13.281L5.703,13.381L8.531,10.553ZM8.43,10.452C8.306,10.328 8.208,10.181 8.141,10.019L4.446,11.551C4.714,12.198 5.108,12.787 5.604,13.282L8.43,10.452ZM8.141,10.019C8.074,9.857 8.039,9.684 8.039,9.509L4.039,9.509C4.039,10.21 4.178,10.904 4.446,11.551L8.141,10.019ZM8.039,9.509C8.039,9.333 8.074,9.16 8.141,8.998L4.446,7.466C4.178,8.114 4.039,8.808 4.039,9.509L8.039,9.509ZM8.141,8.998C8.208,8.836 8.306,8.689 8.43,8.565L5.604,5.735C5.108,6.231 4.714,6.819 4.446,7.466L8.141,8.998ZM8.432,8.564C8.556,8.44 8.703,8.341 8.865,8.274L7.333,4.579C6.686,4.848 6.097,5.241 5.602,5.737L8.432,8.564ZM8.865,8.274C9.027,8.207 9.2,8.173 9.375,8.173L9.375,4.173C8.674,4.173 7.98,4.311 7.333,4.579L8.865,8.274ZM9.375,8.173C9.551,8.173 9.724,8.207 9.886,8.274L11.418,4.579C10.77,4.311 10.076,4.173 9.375,4.173L9.375,8.173ZM9.886,8.274C10.048,8.341 10.195,8.44 10.319,8.564L13.149,5.737C12.653,5.241 12.065,4.848 11.418,4.579L9.886,8.274ZM10.319,8.565L10.419,8.665L13.248,5.836L13.148,5.736L10.319,8.565ZM10.435,8.68C11.114,9.344 11.975,9.789 12.909,9.958L13.623,6.022C13.475,5.996 13.339,5.925 13.232,5.821L10.435,8.68ZM12.909,9.958C13.843,10.128 14.806,10.013 15.675,9.63L14.059,5.971C13.922,6.031 13.77,6.049 13.623,6.022L12.909,9.958ZM14.867,9.8L15,9.8L15,5.8L14.867,5.8L14.867,9.8ZM15.788,9.639C16.64,9.274 17.366,8.668 17.877,7.895L14.542,5.687C14.462,5.809 14.347,5.904 14.212,5.962L15.788,9.639ZM17.877,7.895C18.389,7.123 18.663,6.218 18.667,5.292L14.667,5.276C14.666,5.422 14.623,5.565 14.542,5.687L17.877,7.895ZM18.667,5.284L18.667,5L14.667,5L14.667,5.284L18.667,5.284ZM18.667,5C18.667,4.647 18.807,4.308 19.058,4.058L16.229,1.229C15.229,2.229 14.667,3.586 14.667,5L18.667,5ZM19.058,4.058C19.308,3.807 19.647,3.667 20,3.667L20,-0.333C18.586,-0.333 17.229,0.229 16.229,1.229L19.058,4.058ZM20,3.667C20.354,3.667 20.693,3.807 20.943,4.058L23.772,1.229C22.771,0.229 21.415,-0.333 20,-0.333L20,3.667ZM20.943,4.058C21.193,4.308 21.334,4.647 21.334,5L25.334,5C25.334,3.586 24.772,2.229 23.772,1.229L20.943,4.058ZM21.334,5L21.334,5.15L25.334,5.15L25.334,5L21.334,5ZM21.334,5.158C21.337,6.085 21.612,6.99 22.123,7.762L25.458,5.553C25.378,5.432 25.334,5.289 25.334,5.142L21.334,5.158ZM22.123,7.762C22.635,8.534 23.361,9.14 24.212,9.505L25.788,5.829C25.654,5.771 25.539,5.675 25.458,5.553L22.123,7.762ZM24.193,9.497C25.061,9.88 26.024,9.994 26.958,9.825L26.244,5.889C26.097,5.916 25.945,5.898 25.808,5.837L24.193,9.497ZM26.958,9.825C27.892,9.656 28.754,9.21 29.432,8.547L26.635,5.687C26.528,5.792 26.392,5.862 26.244,5.889L26.958,9.825ZM29.448,8.531L29.548,8.431L26.719,5.603L26.619,5.703L29.448,8.531ZM29.549,8.43C29.672,8.306 29.82,8.208 29.981,8.141L28.45,4.446C27.802,4.714 27.214,5.108 26.719,5.604L29.549,8.43ZM29.981,8.141C30.143,8.074 30.317,8.039 30.492,8.039L30.492,4.039C29.791,4.039 29.097,4.178 28.45,4.446L29.981,8.141ZM30.492,8.039C30.667,8.039 30.841,8.074 31.003,8.141L32.534,4.446C31.887,4.178 31.193,4.039 30.492,4.039L30.492,8.039ZM31.003,8.141C31.164,8.208 31.312,8.306 31.435,8.43L34.265,5.604C33.77,5.108 33.182,4.714 32.534,4.446L31.003,8.141ZM31.437,8.432C31.561,8.556 31.659,8.703 31.726,8.865L35.421,7.333C35.153,6.686 34.76,6.097 34.264,5.602L31.437,8.432ZM31.726,8.865C31.793,9.027 31.828,9.2 31.828,9.375L35.828,9.375C35.828,8.674 35.69,7.98 35.421,7.333L31.726,8.865ZM31.828,9.375C31.828,9.551 31.793,9.724 31.726,9.886L35.421,11.418C35.69,10.77 35.828,10.076 35.828,9.375L31.828,9.375ZM31.726,9.886C31.659,10.048 31.561,10.195 31.437,10.319L34.264,13.149C34.76,12.653 35.153,12.065 35.421,11.418L31.726,9.886ZM31.436,10.319L31.336,10.419L34.165,13.248L34.265,13.148L31.436,10.319ZM31.321,10.435C30.657,11.114 30.212,11.975 30.042,12.909L33.978,13.623C34.005,13.475 34.075,13.339 34.18,13.232L31.321,10.435ZM30.042,12.909C29.873,13.843 29.987,14.806 30.371,15.675L34.03,14.059C33.97,13.922 33.952,13.77 33.978,13.623L30.042,12.909ZM30.2,14.867L30.2,15L34.2,15L34.2,14.867L30.2,14.867ZM30.362,15.788C30.727,16.64 31.333,17.366 32.105,17.877L34.314,14.542C34.192,14.462 34.096,14.347 34.039,14.212L30.362,15.788ZM32.105,17.877C32.878,18.389 33.783,18.663 34.709,18.667L34.725,14.667C34.579,14.666 34.436,14.623 34.314,14.542L32.105,17.877ZM34.717,18.667L35,18.667L35,14.667L34.717,14.667L34.717,18.667ZM35,18.667C35.354,18.667 35.693,18.807 35.943,19.058L38.772,16.229C37.771,15.229 36.415,14.667 35,14.667L35,18.667ZM35.943,19.058C36.193,19.308 36.334,19.647 36.334,20L40.334,20C40.334,18.586 39.772,17.229 38.772,16.229L35.943,19.058ZM36.334,20C36.334,20.354 36.193,20.693 35.943,20.943L38.772,23.772C39.772,22.771 40.334,21.415 40.334,20L36.334,20ZM35.943,20.943C35.693,21.193 35.354,21.334 35,21.334L35,25.334C36.415,25.334 37.771,24.772 38.772,23.772L35.943,20.943ZM35,21.334L34.85,21.334L34.85,25.334L35,25.334L35,21.334ZM34.842,21.334C33.916,21.337 33.011,21.612 32.239,22.123L34.447,25.458C34.569,25.378 34.712,25.334 34.858,25.334L34.842,21.334ZM32.239,22.123C31.466,22.635 30.86,23.361 30.495,24.212L34.172,25.788C34.23,25.654 34.325,25.539 34.447,25.458L32.239,22.123Z" fill="#000000"/>
</svg>
