<svg width="48" height="48" viewBox="0 0 48 48" fill="none" xmlns="http://www.w3.org/2000/svg" xmlns:xlink="http://www.w3.org/1999/xlink">
<path d="M40,10C40,12.209 38.209,14 36,14L36,18C40.418,18 44,14.418 44,10L40,10ZM36,14C33.791,14 32,12.209 32,10L28,10C28,14.418 31.582,18 36,18L36,14ZM32,10C32,7.791 33.791,6 36,6L36,2C31.582,2 28,5.582 28,10L32,10ZM36,6C38.209,6 40,7.791 40,10L44,10C44,5.582 40.418,2 36,2L36,6Z" fill="#858585"/>
<path d="M16,24C16,26.209 14.209,28 12,28L12,32C16.418,32 20,28.418 20,24L16,24ZM12,28C9.791,28 8,26.209 8,24L4,24C4,28.418 7.582,32 12,32L12,28ZM8,24C8,21.791 9.791,20 12,20L12,16C7.582,16 4,19.582 4,24L8,24ZM12,20C14.209,20 16,21.791 16,24L20,24C20,19.582 16.418,16 12,16L12,20Z" fill="#858585"/>
<path d="M40,38C40,40.209 38.209,42 36,42L36,46C40.418,46 44,42.418 44,38L40,38ZM36,42C33.791,42 32,40.209 32,38L28,38C28,42.418 31.582,46 36,46L36,42ZM32,38C32,35.791 33.791,34 36,34L36,30C31.582,30 28,33.582 28,38L32,38ZM36,34C38.209,34 40,35.791 40,38L44,38C44,33.582 40.418,30 36,30L36,34Z" fill="#858585"/>
<path d="M18.187,25.292C17.232,24.735 16.008,25.058 15.452,26.013C14.896,26.967 15.218,28.191 16.173,28.748L18.187,25.292ZM29.833,36.708C30.787,37.264 32.012,36.941 32.568,35.986C33.124,35.032 32.801,33.808 31.847,33.252L29.833,36.708ZM16.173,28.748L29.833,36.708L31.847,33.252L18.187,25.292L16.173,28.748Z" fill="#858585"/>
<path d="M31.828,14.747C32.782,14.19 33.104,12.965 32.547,12.011C31.99,11.057 30.766,10.735 29.812,11.292L31.828,14.747ZM16.172,19.252C15.218,19.809 14.896,21.034 15.452,21.988C16.009,22.942 17.234,23.264 18.188,22.707L16.172,19.252ZM29.812,11.292L16.172,19.252L18.188,22.707L31.828,14.747L29.812,11.292Z" fill="#858585"/>
</svg>
