<svg width="48" height="48" viewBox="0 0 48 48" fill="none" xmlns="http://www.w3.org/2000/svg" xmlns:xlink="http://www.w3.org/1999/xlink">
<path d="M40,9C40,11.209 38.209,13 36,13L36,17C40.418,17 44,13.418 44,9L40,9ZM36,13C33.791,13 32,11.209 32,9L28,9C28,13.418 31.582,17 36,17L36,13ZM32,9C32,6.791 33.791,5 36,5L36,1C31.582,1 28,4.582 28,9L32,9ZM36,5C38.209,5 40,6.791 40,9L44,9C44,4.582 40.418,1 36,1L36,5Z" fill="#858585"/>
<path d="M16,23C16,25.209 14.209,27 12,27L12,31C16.418,31 20,27.418 20,23L16,23ZM12,27C9.791,27 8,25.209 8,23L4,23C4,27.418 7.582,31 12,31L12,27ZM8,23C8,20.791 9.791,19 12,19L12,15C7.582,15 4,18.582 4,23L8,23ZM12,19C14.209,19 16,20.791 16,23L20,23C20,18.582 16.418,15 12,15L12,19Z" fill="#858585"/>
<path d="M40,37C40,39.209 38.209,41 36,41L36,45C40.418,45 44,41.418 44,37L40,37ZM36,41C33.791,41 32,39.209 32,37L28,37C28,41.418 31.582,45 36,45L36,41ZM32,37C32,34.791 33.791,33 36,33L36,29C31.582,29 28,32.582 28,37L32,37ZM36,33C38.209,33 40,34.791 40,37L44,37C44,32.582 40.418,29 36,29L36,33Z" fill="#858585"/>
<path d="M18.187,24.292C17.232,23.735 16.008,24.058 15.452,25.013C14.896,25.967 15.218,27.191 16.173,27.748L18.187,24.292ZM29.833,35.708C30.787,36.264 32.012,35.941 32.568,34.986C33.124,34.032 32.801,32.808 31.847,32.252L29.833,35.708ZM16.173,27.748L29.833,35.708L31.847,32.252L18.187,24.292L16.173,27.748Z" fill="#858585"/>
<path d="M31.828,13.747C32.782,13.19 33.104,11.965 32.547,11.011C31.99,10.057 30.766,9.735 29.812,10.292L31.828,13.747ZM16.172,18.252C15.218,18.809 14.896,20.034 15.452,20.988C16.009,21.942 17.234,22.264 18.188,21.707L16.172,18.252ZM29.812,10.292L16.172,18.252L18.188,21.707L31.828,13.747L29.812,10.292Z" fill="#858585"/>
</svg>
