<svg width="32" height="32" viewBox="0 0 32 32" fill="none" xmlns="http://www.w3.org/2000/svg" xmlns:xlink="http://www.w3.org/1999/xlink">
<path d="M16,32C24.837,32 32,24.837 32,16C32,7.163 24.837,0 16,0C7.163,0 0,7.163 0,16C0,24.837 7.163,32 16,32ZM16,8C16.884,8 17.6,8.716 17.6,9.6L17.6,14.4L22.4,14.4C23.284,14.4 24,15.116 24,16C24,16.884 23.284,17.6 22.4,17.6L17.6,17.6L17.6,22.4C17.6,23.284 16.884,24 16,24C15.116,24 14.4,23.284 14.4,22.4L14.4,17.6L9.6,17.6C8.716,17.6 8,16.884 8,16C8,15.116 8.716,14.4 9.6,14.4L14.4,14.4L14.4,9.6C14.4,8.716 15.116,8 16,8Z" clip-rule="evenodd" fill-rule="evenodd" fill="#000000" fill-opacity="0.2"/>
</svg>
