<svg width="48" height="48" viewBox="0 0 48 48" fill="none" xmlns="http://www.w3.org/2000/svg" xmlns:xlink="http://www.w3.org/1999/xlink">
<path d="M24,44C35.046,44 44,35.046 44,24C44,12.954 35.046,4 24,4C12.954,4 4,12.954 4,24C4,35.046 12.954,44 24,44Z" fill="#6C5DD3"/>
<path d="M21.159,31.16C20.759,31.16 20.379,31 20.099,30.72L14.439,25.06C13.859,24.48 13.859,23.52 14.439,22.94C15.019,22.36 15.979,22.36 16.559,22.94L21.159,27.54L31.439,17.26C32.019,16.68 32.979,16.68 33.559,17.26C34.139,17.84 34.139,18.8 33.559,19.38L22.219,30.72C21.939,31 21.559,31.16 21.159,31.16Z" fill="#FFFFFF"/>
</svg>
