<svg width="48" height="48" viewBox="0 0 48 48" fill="none" xmlns="http://www.w3.org/2000/svg" xmlns:xlink="http://www.w3.org/1999/xlink">
<path d="M24,44C35.046,44 44,35.046 44,24C44,12.954 35.046,4 24,4C12.954,4 4,12.954 4,24C4,35.046 12.954,44 24,44Z" fill="#6C5DD3"/>
<path d="M21.161,31.16C20.761,31.16 20.381,31 20.101,30.72L14.441,25.06C13.861,24.48 13.861,23.52 14.441,22.94C15.021,22.36 15.981,22.36 16.561,22.94L21.161,27.54L31.441,17.26C32.021,16.68 32.981,16.68 33.561,17.26C34.141,17.84 34.141,18.8 33.561,19.38L22.221,30.72C21.941,31 21.561,31.16 21.161,31.16Z" fill="#FFFFFF"/>
</svg>
