<svg width="34" height="34" viewBox="0 0 34 34" fill="none" xmlns="http://www.w3.org/2000/svg" xmlns:xlink="http://www.w3.org/1999/xlink">
<path d="M29.915,16.001C29.915,23.687 23.685,29.917 15.999,29.917L15.999,32.917C25.342,32.917 32.915,25.344 32.915,16.001L29.915,16.001ZM15.999,29.917C8.312,29.917 2.082,23.687 2.082,16.001L-0.918,16.001C-0.918,25.344 6.655,32.917 15.999,32.917L15.999,29.917ZM2.082,16.001C2.082,8.314 8.312,2.084 15.999,2.084L15.999,-0.916C6.655,-0.916 -0.918,6.657 -0.918,16.001L2.082,16.001ZM15.999,2.084C23.685,2.084 29.915,8.314 29.915,16.001L32.915,16.001C32.915,6.657 25.342,-0.916 15.999,-0.916L15.999,2.084Z" fill="#6C5DD3"/>
<path d="M20.95,22.193C21.662,22.617 22.583,22.385 23.007,21.673C23.431,20.962 23.199,20.041 22.487,19.617L20.95,22.193ZM15.436,17.156L13.936,17.156C13.936,17.685 14.213,18.174 14.667,18.445L15.436,17.156ZM16.936,9.078C16.936,8.25 16.264,7.578 15.436,7.578C14.607,7.578 13.936,8.25 13.936,9.078L16.936,9.078ZM22.487,19.617L16.204,15.868L14.667,18.445L20.95,22.193L22.487,19.617ZM16.936,17.156L16.936,9.078L13.936,9.078L13.936,17.156L16.936,17.156Z" fill="#6C5DD3"/>
</svg>
