<svg width="40" height="40" viewBox="0 0 40 40" fill="none" xmlns="http://www.w3.org/2000/svg" xmlns:xlink="http://www.w3.org/1999/xlink">
<path d="M37,20.001C37,29.391 29.39,37.001 20,37.001L20,40.001C31.046,40.001 40,31.047 40,20.001L37,20.001ZM20,37.001C10.61,37.001 3,29.391 3,20.001L0,20.001C0,31.047 8.954,40.001 20,40.001L20,37.001ZM3,20.001C3,10.611 10.61,3.001 20,3.001L20,0.001C8.954,0.001 0,8.955 0,20.001L3,20.001ZM20,3.001C29.39,3.001 37,10.611 37,20.001L40,20.001C40,8.955 31.046,0.001 20,0.001L20,3.001Z" fill="#54577A"/>
<path d="M26.095,27.174C26.806,27.598 27.727,27.365 28.151,26.654C28.576,25.942 28.343,25.022 27.632,24.597L26.095,27.174ZM19.323,21.387L17.823,21.387C17.823,21.916 18.101,22.405 18.555,22.676L19.323,21.387ZM20.823,11.693C20.823,10.865 20.152,10.193 19.323,10.193C18.495,10.193 17.823,10.865 17.823,11.693L20.823,11.693ZM27.632,24.597L20.092,20.099L18.555,22.676L26.095,27.174L27.632,24.597ZM20.823,21.387L20.823,11.693L17.823,11.693L17.823,21.387L20.823,21.387Z" fill="#54577A"/>
</svg>
