<svg width="34" height="34" viewBox="0 0 34 34" fill="none" xmlns="http://www.w3.org/2000/svg" xmlns:xlink="http://www.w3.org/1999/xlink">
<path d="M29.916,16.001C29.916,23.687 23.686,29.917 16,29.917L16,32.917C25.343,32.917 32.916,25.344 32.916,16.001L29.916,16.001ZM16,29.917C8.313,29.917 2.083,23.687 2.083,16.001L-0.917,16.001C-0.917,25.344 6.656,32.917 16,32.917L16,29.917ZM2.083,16.001C2.083,8.314 8.313,2.084 16,2.084L16,-0.916C6.656,-0.916 -0.917,6.657 -0.917,16.001L2.083,16.001ZM16,2.084C23.686,2.084 29.916,8.314 29.916,16.001L32.916,16.001C32.916,6.657 25.343,-0.916 16,-0.916L16,2.084Z" fill="#6C5DD3"/>
<path d="M20.95,22.193C21.662,22.617 22.583,22.385 23.007,21.673C23.431,20.962 23.199,20.041 22.487,19.617L20.95,22.193ZM15.436,17.156L13.936,17.156C13.936,17.685 14.213,18.174 14.667,18.445L15.436,17.156ZM16.936,9.078C16.936,8.25 16.264,7.578 15.436,7.578C14.607,7.578 13.936,8.25 13.936,9.078L16.936,9.078ZM22.487,19.617L16.204,15.868L14.667,18.445L20.95,22.193L22.487,19.617ZM16.936,17.156L16.936,9.078L13.936,9.078L13.936,17.156L16.936,17.156Z" fill="#6C5DD3"/>
</svg>
