<svg width="40" height="42" viewBox="0 0 40 42" fill="none" xmlns="http://www.w3.org/2000/svg" xmlns:xlink="http://www.w3.org/1999/xlink">
<path d="M37,20.001C37,29.391 29.39,37.001 20,37.001L20,40.001C31.046,40.001 40,31.047 40,20.001L37,20.001ZM20,37.001C10.61,37.001 3,29.391 3,20.001L0,20.001C0,31.047 8.954,40.001 20,40.001L20,37.001ZM3,20.001C3,10.611 10.61,3.001 20,3.001L20,0.001C8.954,0.001 0,8.955 0,20.001L3,20.001ZM20,3.001C29.39,3.001 37,10.611 37,20.001L40,20.001C40,8.955 31.046,0.001 20,0.001L20,3.001Z" fill="#54577A"/>
<path d="M26.094,27.174C26.805,27.598 27.726,27.366 28.15,26.654C28.575,25.943 28.342,25.022 27.631,24.598L26.094,27.174ZM19.322,21.388L17.822,21.388C17.822,21.916 18.1,22.405 18.554,22.676L19.322,21.388ZM20.822,11.694C20.822,10.865 20.151,10.194 19.322,10.194C18.494,10.194 17.822,10.865 17.822,11.694L20.822,11.694ZM27.631,24.598L20.091,20.1L18.554,22.676L26.094,27.174L27.631,24.598ZM20.822,21.388L20.822,11.694L17.822,11.694L17.822,21.388L20.822,21.388Z" fill="#54577A"/>
</svg>
