<svg width="56" height="56" viewBox="0 0 56 56" fill="none" xmlns="http://www.w3.org/2000/svg" xmlns:xlink="http://www.w3.org/1999/xlink">
<line x1="7" y1="12" x2="49" y2="12" stroke="#000000" stroke-width="2" stroke-miterlimit="3.999327" stroke-linecap="round" stroke-linejoin="round"/>
<path d="M46.333,14C46.333,12.896 45.437,12 44.333,12C43.228,12 42.333,12.896 42.333,14L46.333,14ZM11.666,46.667L9.666,46.667L11.666,46.667ZM13.666,14C13.666,12.896 12.771,12 11.666,12C10.561,12 9.666,12.896 9.666,14L13.666,14ZM16.666,14C16.666,15.105 17.561,16 18.666,16C19.771,16 20.666,15.105 20.666,14L16.666,14ZM23.333,4.667L23.333,2.667L23.333,4.667ZM32.666,4.667L32.666,2.667L32.666,4.667ZM35.333,14C35.333,15.105 36.228,16 37.333,16C38.437,16 39.333,15.105 39.333,14L35.333,14ZM42.333,14L42.333,46.667L46.333,46.667L46.333,14L42.333,14ZM42.333,46.667C42.333,47.374 42.052,48.053 41.552,48.553L44.38,51.381C45.63,50.131 46.333,48.435 46.333,46.667L42.333,46.667ZM41.552,48.553C41.052,49.053 40.373,49.334 39.666,49.334L39.666,53.334C41.434,53.334 43.13,52.631 44.38,51.381L41.552,48.553ZM39.666,49.334L16.333,49.334L16.333,53.334L39.666,53.334L39.666,49.334ZM16.333,49.334C15.625,49.334 14.947,49.053 14.447,48.553L11.619,51.381C12.869,52.631 14.565,53.334 16.333,53.334L16.333,49.334ZM14.447,48.553C13.947,48.053 13.666,47.374 13.666,46.667L9.666,46.667C9.666,48.435 10.368,50.131 11.619,51.381L14.447,48.553ZM13.666,46.667L13.666,14L9.666,14L9.666,46.667L13.666,46.667ZM20.666,14L20.666,9.334L16.666,9.334L16.666,14L20.666,14ZM20.666,9.334C20.666,8.626 20.947,7.948 21.447,7.448L18.619,4.62C17.368,5.87 16.666,7.566 16.666,9.334L20.666,9.334ZM21.447,7.448C21.947,6.948 22.625,6.667 23.333,6.667L23.333,2.667C21.565,2.667 19.869,3.369 18.619,4.62L21.447,7.448ZM23.333,6.667L32.666,6.667L32.666,2.667L23.333,2.667L23.333,6.667ZM32.666,6.667C33.373,6.667 34.052,6.948 34.552,7.448L37.38,4.62C36.13,3.369 34.434,2.667 32.666,2.667L32.666,6.667ZM34.552,7.448C35.052,7.948 35.333,8.626 35.333,9.334L39.333,9.334C39.333,7.566 38.63,5.87 37.38,4.62L34.552,7.448ZM35.333,9.334L35.333,14L39.333,14L39.333,9.334L35.333,9.334Z" fill="#000000"/>
<line x1="21.334" y1="25.667" x2="21.334" y2="39.667" stroke="#000000" stroke-width="2" stroke-miterlimit="3.999327" stroke-linecap="round" stroke-linejoin="round"/>
<line x1="30.666" y1="25.667" x2="30.666" y2="39.667" stroke="#000000" stroke-width="2" stroke-miterlimit="3.999327" stroke-linecap="round" stroke-linejoin="round"/>
</svg>
