<svg width="56" height="56" viewBox="0 0 56 56" fill="none" xmlns="http://www.w3.org/2000/svg" xmlns:xlink="http://www.w3.org/1999/xlink">
<line x1="7" y1="12" x2="49" y2="12" stroke="#000000" stroke-width="2" stroke-miterlimit="3.999327" stroke-linecap="round" stroke-linejoin="round"/>
<path d="M46.335,14C46.335,12.896 45.439,12 44.335,12C43.23,12 42.335,12.896 42.335,14L46.335,14ZM11.668,46.667L9.668,46.667L11.668,46.667ZM13.668,14C13.668,12.896 12.773,12 11.668,12C10.563,12 9.668,12.896 9.668,14L13.668,14ZM16.668,14C16.668,15.105 17.563,16 18.668,16C19.773,16 20.668,15.105 20.668,14L16.668,14ZM23.335,4.667L23.335,2.667L23.335,4.667ZM32.668,4.667L32.668,2.667L32.668,4.667ZM35.335,14C35.335,15.105 36.23,16 37.335,16C38.439,16 39.335,15.105 39.335,14L35.335,14ZM42.335,14L42.335,46.667L46.335,46.667L46.335,14L42.335,14ZM42.335,46.667C42.335,47.374 42.054,48.053 41.554,48.553L44.382,51.381C45.632,50.131 46.335,48.435 46.335,46.667L42.335,46.667ZM41.554,48.553C41.054,49.053 40.375,49.334 39.668,49.334L39.668,53.334C41.436,53.334 43.132,52.631 44.382,51.381L41.554,48.553ZM39.668,49.334L16.335,49.334L16.335,53.334L39.668,53.334L39.668,49.334ZM16.335,49.334C15.627,49.334 14.949,49.053 14.449,48.553L11.621,51.381C12.871,52.631 14.567,53.334 16.335,53.334L16.335,49.334ZM14.449,48.553C13.949,48.053 13.668,47.374 13.668,46.667L9.668,46.667C9.668,48.435 10.37,50.131 11.621,51.381L14.449,48.553ZM13.668,46.667L13.668,14L9.668,14L9.668,46.667L13.668,46.667ZM20.668,14L20.668,9.334L16.668,9.334L16.668,14L20.668,14ZM20.668,9.334C20.668,8.626 20.949,7.948 21.449,7.448L18.621,4.62C17.37,5.87 16.668,7.566 16.668,9.334L20.668,9.334ZM21.449,7.448C21.949,6.948 22.627,6.667 23.335,6.667L23.335,2.667C21.567,2.667 19.871,3.369 18.621,4.62L21.449,7.448ZM23.335,6.667L32.668,6.667L32.668,2.667L23.335,2.667L23.335,6.667ZM32.668,6.667C33.375,6.667 34.054,6.948 34.554,7.448L37.382,4.62C36.132,3.369 34.436,2.667 32.668,2.667L32.668,6.667ZM34.554,7.448C35.054,7.948 35.335,8.626 35.335,9.334L39.335,9.334C39.335,7.566 38.632,5.87 37.382,4.62L34.554,7.448ZM35.335,9.334L35.335,14L39.335,14L39.335,9.334L35.335,9.334Z" fill="#000000"/>
<line x1="21.332" y1="25.667" x2="21.332" y2="39.667" stroke="#000000" stroke-width="2" stroke-miterlimit="3.999327" stroke-linecap="round" stroke-linejoin="round"/>
<line x1="30.668" y1="25.667" x2="30.668" y2="39.667" stroke="#000000" stroke-width="2" stroke-miterlimit="3.999327" stroke-linecap="round" stroke-linejoin="round"/>
</svg>
