<svg width="48" height="48" viewBox="0 0 48 48" fill="none" xmlns="http://www.w3.org/2000/svg" xmlns:xlink="http://www.w3.org/1999/xlink">
<path d="M13.871,14C13.871,12.895 14.758,12 15.853,12L39.634,12C40.728,12 41.615,12.895 41.615,14C41.615,15.105 40.728,16 39.634,16L15.853,16C14.758,16 13.871,15.105 13.871,14Z" clip-rule="evenodd" fill-rule="evenodd" fill="#B6B6B6"/>
<path d="M13.871,24C13.871,22.895 14.758,22 15.853,22L39.634,22C40.728,22 41.615,22.895 41.615,24C41.615,25.105 40.728,26 39.634,26L15.853,26C14.758,26 13.871,25.105 13.871,24Z" clip-rule="evenodd" fill-rule="evenodd" fill="#B6B6B6"/>
<path d="M13.871,34C13.871,32.895 14.758,32 15.853,32L39.634,32C40.728,32 41.615,32.895 41.615,34C41.615,35.105 40.728,36 39.634,36L15.853,36C14.758,36 13.871,35.105 13.871,34Z" clip-rule="evenodd" fill-rule="evenodd" fill="#B6B6B6"/>
<path d="M9.909,14C9.909,15.105 9.022,16 7.927,16C6.833,16 5.945,15.105 5.945,14C5.945,12.895 6.833,12 7.927,12C9.022,12 9.909,12.895 9.909,14Z" fill="#B6B6B6"/>
<path d="M9.909,24C9.909,25.105 9.022,26 7.927,26C6.833,26 5.945,25.105 5.945,24C5.945,22.895 6.833,22 7.927,22C9.022,22 9.909,22.895 9.909,24Z" fill="#B6B6B6"/>
<path d="M9.909,34C9.909,35.105 9.022,36 7.927,36C6.833,36 5.945,35.105 5.945,34C5.945,32.895 6.833,32 7.927,32C9.022,32 9.909,32.895 9.909,34Z" fill="#B6B6B6"/>
</svg>
