<svg width="48" height="48" viewBox="0 0 48 48" fill="none" xmlns="http://www.w3.org/2000/svg" xmlns:xlink="http://www.w3.org/1999/xlink">
<path d="M13.873,14C13.873,12.895 14.76,12 15.855,12L39.636,12C40.73,12 41.617,12.895 41.617,14C41.617,15.105 40.73,16 39.636,16L15.855,16C14.76,16 13.873,15.105 13.873,14Z" clip-rule="evenodd" fill-rule="evenodd" fill="#B6B6B6"/>
<path d="M13.873,24C13.873,22.895 14.76,22 15.855,22L39.636,22C40.73,22 41.617,22.895 41.617,24C41.617,25.105 40.73,26 39.636,26L15.855,26C14.76,26 13.873,25.105 13.873,24Z" clip-rule="evenodd" fill-rule="evenodd" fill="#B6B6B6"/>
<path d="M13.873,34C13.873,32.895 14.76,32 15.855,32L39.636,32C40.73,32 41.617,32.895 41.617,34C41.617,35.105 40.73,36 39.636,36L15.855,36C14.76,36 13.873,35.105 13.873,34Z" clip-rule="evenodd" fill-rule="evenodd" fill="#B6B6B6"/>
<path d="M9.909,14C9.909,15.105 9.022,16 7.927,16C6.833,16 5.945,15.105 5.945,14C5.945,12.895 6.833,12 7.927,12C9.022,12 9.909,12.895 9.909,14Z" fill="#B6B6B6"/>
<path d="M9.909,24C9.909,25.105 9.022,26 7.927,26C6.833,26 5.945,25.105 5.945,24C5.945,22.895 6.833,22 7.927,22C9.022,22 9.909,22.895 9.909,24Z" fill="#B6B6B6"/>
<path d="M9.909,34C9.909,35.105 9.022,36 7.927,36C6.833,36 5.945,35.105 5.945,34C5.945,32.895 6.833,32 7.927,32C9.022,32 9.909,32.895 9.909,34Z" fill="#B6B6B6"/>
</svg>
