<svg width="48" height="48" viewBox="0 0 48 48" fill="none" xmlns="http://www.w3.org/2000/svg" xmlns:xlink="http://www.w3.org/1999/xlink">
<path d="M26,31.465C27.196,30.773 28,29.481 28,28C28,25.791 26.209,24 24,24C21.791,24 20,25.791 20,28C20,29.481 20.804,30.773 22,31.465L22,34C22,35.105 22.895,36 24,36C25.105,36 26,35.105 26,34L26,31.465Z" fill="#6F767E"/>
<path d="M14,16L14,14C14,8.477 18.477,4 24,4C29.523,4 34,8.477 34,14L34,16C37.314,16 40,18.686 40,22L40,38C40,41.314 37.314,44 34,44L14,44C10.686,44 8,41.314 8,38L8,22C8,18.686 10.686,16 14,16ZM18,14C18,10.686 20.686,8 24,8C27.314,8 30,10.686 30,14L30,16L18,16L18,14ZM12,22C12,20.895 12.895,20 14,20L34,20C35.105,20 36,20.895 36,22L36,38C36,39.105 35.105,40 34,40L14,40C12.895,40 12,39.105 12,38L12,22Z" clip-rule="evenodd" fill-rule="evenodd" fill="#6C5DD3"/>
</svg>
