<svg width="48" height="48" viewBox="0 0 48 48" fill="none" xmlns="http://www.w3.org/2000/svg" xmlns:xlink="http://www.w3.org/1999/xlink">
<path d="M30.714,40.352C31.426,39.256 30.475,38 29.168,38L18.832,38C17.525,38 16.574,39.256 17.286,40.352C18.712,42.548 21.186,44 24,44C26.813,44 29.288,42.548 30.714,40.352Z" fill="#6C5DD3"/>
<path d="M41.172,34L6.808,34C5.257,34 4,32.743 4,31.192C4,30.43 4.309,29.701 4.857,29.172L6.915,27.185C7.698,26.428 8.139,25.384 8.136,24.295L8.122,19.991C8.093,11.168 15.237,4 24.061,4C32.864,4 40,11.136 40,19.939L40,24.343C40,25.404 40.421,26.421 41.172,27.172L43.172,29.172C43.702,29.702 44,30.421 44,31.172C44,32.734 42.734,34 41.172,34Z" fill="#6C5DD3"/>
</svg>
