<svg width="40" height="32" viewBox="0 0 40 32" fill="none" xmlns="http://www.w3.org/2000/svg" xmlns:xlink="http://www.w3.org/1999/xlink">
<path d="M6,4L34,4C34.772,4 35.443,4.438 35.776,5.079L21.109,14.857C20.438,15.305 19.562,15.305 18.891,14.857L4.224,5.079C4.557,4.438 5.228,4 6,4ZM4,9.737L4,26C4,27.105 4.895,28 6,28L34,28C35.105,28 36,27.105 36,26L36,9.737L23.328,18.185C21.313,19.528 18.687,19.528 16.672,18.185L4,9.737ZM0,6C0,2.686 2.686,0 6,0L34,0C37.314,0 40,2.686 40,6L40,26C40,29.314 37.314,32 34,32L6,32C2.686,32 0,29.314 0,26L0,6Z" clip-rule="evenodd" fill-rule="evenodd" fill="#6C5DD3"/>
</svg>
