<svg width="24" height="24" viewBox="0 0 24 24" fill="none" xmlns="http://www.w3.org/2000/svg" xmlns:xlink="http://www.w3.org/1999/xlink">
<path d="M3.179,0.821C2.528,0.17 1.473,0.17 0.822,0.821C0.171,1.472 0.171,2.527 0.822,3.178L9.644,12L0.822,20.821C0.171,21.472 0.171,22.527 0.822,23.178C1.473,23.829 2.528,23.829 3.179,23.178L12.001,14.357L20.822,23.178C21.473,23.829 22.528,23.829 23.179,23.178C23.83,22.527 23.83,21.472 23.179,20.821L14.358,12L23.179,3.178C23.83,2.527 23.83,1.472 23.179,0.821C22.528,0.17 21.473,0.17 20.822,0.821L12.001,9.643L3.179,0.821Z" fill="#33383F"/>
</svg>
