<svg width="50" height="48" viewBox="0 0 50 48" fill="none" xmlns="http://www.w3.org/2000/svg" xmlns:xlink="http://www.w3.org/1999/xlink">
<path d="M9.34,7.199C9.34,3.223 12.644,-0.001 16.72,-0.001L41.32,-0.001C45.396,-0.001 48.7,3.223 48.7,7.199L48.7,31.199C48.7,35.176 45.396,38.399 41.32,38.399L38.86,38.399L38.86,40.799C38.86,44.776 35.556,47.999 31.48,47.999L6.88,47.999C2.804,47.999 -0.5,44.776 -0.5,40.799L-0.5,16.799C-0.5,12.823 2.804,9.599 6.88,9.599L9.34,9.599L9.34,7.199ZM37.06,12.087C36.233,11.863 35.31,12.068 34.661,12.702L26.56,20.605L23.379,17.502C22.419,16.565 20.861,16.565 19.901,17.502C18.94,18.439 18.94,19.959 19.901,20.896L24.821,25.696C25.781,26.634 27.339,26.634 28.299,25.696L38.139,16.096C38.38,15.862 38.56,15.591 38.68,15.302C38.684,15.291 38.689,15.281 38.693,15.27C39.036,14.41 38.851,13.396 38.139,12.702C37.829,12.399 37.455,12.194 37.06,12.087ZM33.94,38.399L16.72,38.399C12.644,38.399 9.34,35.176 9.34,31.199L9.34,14.399L6.88,14.399C5.521,14.399 4.42,15.474 4.42,16.799L4.42,40.799C4.42,42.125 5.521,43.199 6.88,43.199L31.48,43.199C32.839,43.199 33.94,42.125 33.94,40.799L33.94,38.399Z" clip-rule="evenodd" fill-rule="evenodd" fill="#FFFFFF"/>
</svg>
