<svg width="38" height="38" viewBox="0 0 38 38" fill="none" xmlns="http://www.w3.org/2000/svg" xmlns:xlink="http://www.w3.org/1999/xlink">
<path d="M32,18C32,25.732 25.732,32 18,32C10.268,32 4,25.732 4,18C4,10.268 10.268,4 18,4C25.732,4 32,10.268 32,18ZM32.064,29.235C34.527,26.156 36,22.25 36,18C36,8.059 27.941,0 18,0C8.059,0 0,8.059 0,18C0,27.941 8.059,36 18,36C22.25,36 26.156,34.527 29.235,32.064L34.586,37.414C35.367,38.195 36.633,38.195 37.414,37.414C38.195,36.633 38.195,35.367 37.414,34.586L32.064,29.235Z" clip-rule="evenodd" fill-rule="evenodd" fill="#B6B6B6"/>
</svg>
