<svg width="48" height="48" viewBox="0 0 48 48" fill="none" xmlns="http://www.w3.org/2000/svg" xmlns:xlink="http://www.w3.org/1999/xlink">
<path d="M9.6,7.199C9.6,3.223 12.824,-0.001 16.8,-0.001L40.8,-0.001C44.776,-0.001 48,3.223 48,7.199L48,31.199C48,35.175 44.776,38.399 40.8,38.399L38.4,38.399L38.4,40.799C38.4,44.775 35.176,47.999 31.2,47.999L7.2,47.999C3.224,47.999 0,44.775 0,40.799L0,16.799C0,12.823 3.224,9.599 7.2,9.599L9.6,9.599L9.6,7.199ZM36.644,12.087C35.837,11.863 34.937,12.068 34.303,12.702L26.4,20.605L23.297,17.502C22.36,16.565 20.84,16.565 19.903,17.502C18.966,18.439 18.966,19.959 19.903,20.896L24.703,25.696C25.64,26.633 27.16,26.633 28.097,25.696L37.697,16.096C37.931,15.862 38.107,15.591 38.224,15.302C38.229,15.291 38.233,15.28 38.237,15.27C38.571,14.41 38.391,13.396 37.697,12.702C37.394,12.399 37.029,12.194 36.644,12.087ZM33.6,38.399L16.8,38.399C12.824,38.399 9.6,35.175 9.6,31.199L9.6,14.399L7.2,14.399C5.875,14.399 4.8,15.474 4.8,16.799L4.8,40.799C4.8,42.124 5.875,43.199 7.2,43.199L31.2,43.199C32.525,43.199 33.6,42.124 33.6,40.799L33.6,38.399Z" clip-rule="evenodd" fill-rule="evenodd" fill="#FFFFFF"/>
</svg>
