<svg width="50" height="50" viewBox="0 0 50 50" fill="none" xmlns="http://www.w3.org/2000/svg" xmlns:xlink="http://www.w3.org/1999/xlink">
<path d="M14.754,5.021L12.806,9.2L6.88,9.2C3.314,9.2 0.338,11.668 -0.35,14.949C-0.448,15.418 -0.5,15.903 -0.5,16.4L-0.5,20C-0.5,23.314 2.253,26 5.65,26L14.68,26C15.693,23.204 18.427,21.2 21.64,21.2L26.56,21.2C29.773,21.2 32.507,23.204 33.52,26L42.55,26C45.947,26 48.7,23.314 48.7,20L48.7,16.4C48.7,12.424 45.396,9.2 41.32,9.2L35.394,9.2L33.446,5.021C32.249,2.451 29.622,0.8 26.728,0.8L21.472,0.8C18.578,0.8 15.951,2.451 14.754,5.021ZM26.728,5.6L21.472,5.6C20.507,5.6 19.632,6.15 19.233,7.007L18.211,9.2L29.989,9.2L28.967,7.007C28.568,6.15 27.693,5.6 26.728,5.6Z" clip-rule="evenodd" fill-rule="evenodd" fill="#FFFFFF"/>
<path d="M14.68,30.8L5.65,30.8C3.707,30.8 1.881,30.312 0.293,29.454C-0.056,29.265 -0.5,29.508 -0.5,29.905L-0.5,42.8C-0.5,46.777 2.804,50 6.88,50L41.32,50C45.396,50 48.7,46.777 48.7,42.8L48.7,29.905C48.7,29.508 48.256,29.265 47.907,29.454C46.319,30.312 44.493,30.8 42.55,30.8L33.52,30.8C32.507,33.597 29.773,35.6 26.56,35.6L21.64,35.6C18.427,35.6 15.693,33.597 14.68,30.8Z" fill="#FFFFFF"/>
<path d="M21.64,26C20.281,26 19.18,27.075 19.18,28.4C19.18,29.726 20.281,30.8 21.64,30.8L26.56,30.8C27.919,30.8 29.02,29.726 29.02,28.4C29.02,27.075 27.919,26 26.56,26L21.64,26Z" fill="#FFFFFF"/>
</svg>
