<svg width="40" height="42" viewBox="0 0 40 42" fill="none" xmlns="http://www.w3.org/2000/svg" xmlns:xlink="http://www.w3.org/1999/xlink">
<path d="M12.401,4.517L10.818,8L6,8C3.101,8 0.681,10.057 0.122,12.791C0.042,13.181 0,13.586 0,14L0,17C0,19.761 2.239,22 5,22L12.341,22C13.165,19.67 15.388,18 18,18L22,18C24.612,18 26.835,19.67 27.659,22L35,22C37.761,22 40,19.761 40,17L40,14C40,10.686 37.314,8 34,8L29.182,8L27.599,4.517C26.625,2.375 24.489,1 22.137,1L17.863,1C15.511,1 13.375,2.375 12.401,4.517ZM22.137,5L17.863,5C17.079,5 16.367,5.458 16.043,6.172L15.212,8L24.788,8L23.957,6.172C23.633,5.458 22.921,5 22.137,5Z" clip-rule="evenodd" fill-rule="evenodd" fill="#FFFFFF"/>
<path d="M12.341,26L5,26C3.485,26 2.057,25.625 0.804,24.964C0.45,24.777 0,25.021 0,25.421L0,36C0,39.314 2.686,42 6,42L34,42C37.314,42 40,39.314 40,36L40,25.421C40,25.021 39.55,24.777 39.196,24.964C37.943,25.625 36.515,26 35,26L27.659,26C26.835,28.33 24.612,30 22,30L18,30C15.388,30 13.165,28.33 12.341,26Z" fill="#FFFFFF"/>
<path d="M18,22C16.895,22 16,22.895 16,24C16,25.105 16.895,26 18,26L22,26C23.105,26 24,25.105 24,24C24,22.895 23.105,22 22,22L18,22Z" fill="#FFFFFF"/>
</svg>
