<svg width="40" height="40" viewBox="0 0 40 40" fill="none" xmlns="http://www.w3.org/2000/svg" xmlns:xlink="http://www.w3.org/1999/xlink">
<path d="M5.181,1.22C4.087,0.127 2.314,0.127 1.221,1.22C0.127,2.314 0.127,4.087 1.221,5.18L16.041,20L1.22,34.821C0.127,35.914 0.127,37.687 1.22,38.78C2.314,39.874 4.087,39.874 5.18,38.78L20.001,23.96L34.821,38.78C35.914,39.874 37.687,39.874 38.781,38.78C39.874,37.687 39.874,35.914 38.781,34.821L23.96,20L38.78,5.18C39.874,4.087 39.874,2.314 38.78,1.22C37.687,0.127 35.914,0.127 34.821,1.22L20.001,16.04L5.181,1.22Z" fill="#FFFFFF"/>
</svg>
