<svg width="40" height="40" viewBox="0 0 40 40" fill="none" xmlns="http://www.w3.org/2000/svg" xmlns:xlink="http://www.w3.org/1999/xlink">
<path d="M12.401,2.517L10.818,6L6,6C3.101,6 0.681,8.057 0.122,10.791C0.042,11.181 0,11.586 0,12L0,15C0,17.761 2.239,20 5,20L12.341,20C13.165,17.67 15.388,16 18,16L22,16C24.612,16 26.835,17.67 27.659,20L35,20C37.761,20 40,17.761 40,15L40,12C40,8.686 37.314,6 34,6L29.182,6L27.599,2.517C26.625,0.375 24.489,-1 22.137,-1L17.863,-1C15.511,-1 13.375,0.375 12.401,2.517ZM22.137,3L17.863,3C17.079,3 16.367,3.458 16.043,4.172L15.212,6L24.788,6L23.957,4.172C23.633,3.458 22.921,3 22.137,3Z" clip-rule="evenodd" fill-rule="evenodd" fill="#FFFFFF"/>
<path d="M12.341,24L5,24C3.485,24 2.057,23.625 0.804,22.964C0.45,22.777 0,23.021 0,23.421L0,34C0,37.314 2.686,40 6,40L34,40C37.314,40 40,37.314 40,34L40,23.421C40,23.021 39.55,22.777 39.196,22.964C37.943,23.625 36.515,24 35,24L27.659,24C26.835,26.33 24.612,28 22,28L18,28C15.388,28 13.165,26.33 12.341,24Z" fill="#FFFFFF"/>
<path d="M18,20C16.895,20 16,20.895 16,22C16,23.105 16.895,24 18,24L22,24C23.105,24 24,23.105 24,22C24,20.895 23.105,20 22,20L18,20Z" fill="#FFFFFF"/>
</svg>
