<svg width="40" height="36" viewBox="0 0 40 36" fill="none" xmlns="http://www.w3.org/2000/svg" xmlns:xlink="http://www.w3.org/1999/xlink">
<path d="M9.862,0C10.951,0 11.834,0.806 11.834,1.8L11.834,3.6L27.613,3.6L27.613,1.8C27.613,0.806 28.496,0 29.585,0C30.675,0 31.558,0.806 31.558,1.8L31.558,3.6L33.53,3.6C36.798,3.6 39.447,6.018 39.447,9L39.447,30.6C39.447,33.582 36.798,36 33.53,36L5.917,36C2.649,36 0,33.582 0,30.6L0,9C0,6.018 2.649,3.6 5.917,3.6L7.889,3.6L7.889,1.8C7.889,0.806 8.772,0 9.862,0ZM27.613,7.2L27.613,9C27.613,9.994 28.496,10.8 29.585,10.8C30.675,10.8 31.558,9.994 31.558,9L31.558,7.2L33.53,7.2C34.619,7.2 35.502,8.006 35.502,9L35.502,14.4L3.945,14.4L3.945,9C3.945,8.006 4.828,7.2 5.917,7.2L7.889,7.2L7.889,9C7.889,9.994 8.772,10.8 9.862,10.8C10.951,10.8 11.834,9.994 11.834,9L11.834,7.2L27.613,7.2ZM3.945,18L3.945,30.6C3.945,31.594 4.828,32.4 5.917,32.4L33.53,32.4C34.619,32.4 35.502,31.594 35.502,30.6L35.502,18L3.945,18Z" clip-rule="evenodd" fill-rule="evenodd" fill="#B6B6B6"/>
</svg>
