<svg width="48" height="50" viewBox="0 0 48 50" fill="none" xmlns="http://www.w3.org/2000/svg" xmlns:xlink="http://www.w3.org/1999/xlink">
<path d="M14.882,5.02L12.982,9.2L7.2,9.2C3.721,9.2 0.818,11.668 0.146,14.949C0.05,15.417 0,15.903 0,16.4L0,20C0,23.314 2.686,26 6,26L14.81,26C15.798,23.203 18.465,21.2 21.6,21.2L26.4,21.2C29.535,21.2 32.202,23.203 33.19,26L42,26C45.314,26 48,23.314 48,20L48,16.4C48,12.423 44.776,9.2 40.8,9.2L35.018,9.2L33.118,5.02C31.95,2.45 29.387,0.8 26.564,0.8L21.436,0.8C18.613,0.8 16.05,2.45 14.882,5.02ZM26.564,5.6L21.436,5.6C20.495,5.6 19.641,6.15 19.251,7.007L18.254,9.2L29.746,9.2L28.749,7.007C28.359,6.15 27.505,5.6 26.564,5.6Z" clip-rule="evenodd" fill-rule="evenodd" fill="#FFFFFF"/>
<path d="M14.81,30.8L6,30.8C4.115,30.8 2.342,30.317 0.8,29.468C0.449,29.275 0,29.518 0,29.918L0,42.8C0,46.776 3.224,50 7.2,50L40.8,50C44.776,50 48,46.776 48,42.8L48,29.918C48,29.518 47.551,29.275 47.2,29.468C45.658,30.317 43.885,30.8 42,30.8L33.19,30.8C32.202,33.596 29.535,35.6 26.4,35.6L21.6,35.6C18.465,35.6 15.798,33.596 14.81,30.8Z" fill="#FFFFFF"/>
<path d="M21.6,26C20.275,26 19.2,27.074 19.2,28.4C19.2,29.725 20.275,30.8 21.6,30.8L26.4,30.8C27.725,30.8 28.8,29.725 28.8,28.4C28.8,27.074 27.725,26 26.4,26L21.6,26Z" fill="#FFFFFF"/>
</svg>
