<svg width="26" height="50" viewBox="0 0 26 50" fill="none" xmlns="http://www.w3.org/2000/svg" xmlns:xlink="http://www.w3.org/1999/xlink">
<path d="M3.011,22.124C1.715,22.124 0.664,20.993 0.664,19.598L0.664,12.02C0.664,5.045 5.917,-0.609 12.397,-0.609C18.878,-0.609 24.131,5.045 24.131,12.02L24.131,19.598C24.131,20.993 23.08,22.124 21.784,22.124C20.488,22.124 19.437,20.993 19.437,19.598L19.437,12.02C19.437,7.835 16.285,4.442 12.397,4.442C8.509,4.442 5.357,7.835 5.357,12.02L5.357,19.598C5.357,20.993 4.307,22.124 3.011,22.124ZM12.397,49.908C5.917,49.908 0.664,44.254 0.664,37.279L0.664,29.701C0.664,28.306 1.715,27.175 3.011,27.175C4.307,27.175 5.357,28.306 5.357,29.701L5.357,37.279C5.357,41.464 8.509,44.857 12.397,44.857C16.285,44.857 19.437,41.464 19.437,37.279L19.437,29.701C19.437,28.306 20.488,27.175 21.784,27.175C23.08,27.175 24.131,28.306 24.131,29.701L24.131,37.279C24.131,44.254 18.878,49.908 12.397,49.908ZM10.051,32.227C10.051,33.622 11.101,34.753 12.397,34.753C13.693,34.753 14.744,33.622 14.744,32.227L14.744,17.072C14.744,15.677 13.693,14.546 12.397,14.546C11.101,14.546 10.051,15.677 10.051,17.072L10.051,32.227Z" clip-rule="evenodd" fill-rule="evenodd" fill="#6F767E"/>
</svg>
