<svg width="50" height="52" viewBox="0 0 50 52" fill="none" xmlns="http://www.w3.org/2000/svg" xmlns:xlink="http://www.w3.org/1999/xlink">
<path d="M14.286,4.312L12.35,8.697L6.46,8.697C2.915,8.697 -0.042,11.286 -0.726,14.728C-0.824,15.22 -0.875,15.729 -0.875,16.25L-0.875,20.027C-0.875,23.503 1.862,26.322 5.237,26.322L14.212,26.322C15.219,23.388 17.936,21.286 21.13,21.286L26.02,21.286C29.214,21.286 31.931,23.388 32.938,26.322L41.912,26.322C45.288,26.322 48.025,23.503 48.025,20.027L48.025,16.25C48.025,12.079 44.741,8.697 40.69,8.697L34.8,8.697L32.864,4.312C31.674,1.616 29.063,-0.116 26.187,-0.116L20.963,-0.116C18.087,-0.116 15.476,1.616 14.286,4.312ZM26.187,4.92L20.963,4.92C20.004,4.92 19.134,5.497 18.737,6.396L17.722,8.697L29.428,8.697L28.413,6.396C28.016,5.497 27.146,4.92 26.187,4.92Z" clip-rule="evenodd" fill-rule="evenodd" fill="#FFFFFF"/>
<path d="M14.212,31.357L5.237,31.357C3.313,31.357 1.505,30.849 -0.069,29.955C-0.419,29.756 -0.875,29.999 -0.875,30.401L-0.875,43.947C-0.875,48.118 2.409,51.5 6.46,51.5L40.69,51.5C44.741,51.5 48.025,48.118 48.025,43.947L48.025,30.401C48.025,29.999 47.569,29.756 47.219,29.955C45.645,30.849 43.837,31.357 41.912,31.357L32.938,31.357C31.931,34.291 29.214,36.393 26.02,36.393L21.13,36.393C17.936,36.393 15.219,34.291 14.212,31.357Z" fill="#FFFFFF"/>
<path d="M21.13,26.322C19.78,26.322 18.685,27.449 18.685,28.84C18.685,30.23 19.78,31.357 21.13,31.357L26.02,31.357C27.37,31.357 28.465,30.23 28.465,28.84C28.465,27.449 27.37,26.322 26.02,26.322L21.13,26.322Z" fill="#FFFFFF"/>
</svg>
