<svg width="38" height="38" viewBox="0 0 38 38" fill="none" xmlns="http://www.w3.org/2000/svg" xmlns:xlink="http://www.w3.org/1999/xlink">
<path d="M8.833,-0.333C9.845,-0.333 10.666,0.488 10.666,1.5L10.666,3.334L25.333,3.334L25.333,1.5C25.333,0.488 26.153,-0.333 27.166,-0.333C28.179,-0.333 28.999,0.488 28.999,1.5L28.999,3.334L30.833,3.334C33.87,3.334 36.333,5.796 36.333,8.834L36.333,30.834C36.333,33.871 33.87,36.334 30.833,36.334L5.166,36.334C2.128,36.334 -0.334,33.871 -0.334,30.834L-0.334,8.834C-0.334,5.796 2.128,3.334 5.166,3.334L6.999,3.334L6.999,1.5C6.999,0.488 7.82,-0.333 8.833,-0.333ZM25.333,7L25.333,8.834C25.333,9.846 26.153,10.667 27.166,10.667C28.179,10.667 28.999,9.846 28.999,8.834L28.999,7L30.833,7C31.845,7 32.666,7.821 32.666,8.834L32.666,14.334L3.333,14.334L3.333,8.834C3.333,7.821 4.153,7 5.166,7L6.999,7L6.999,8.834C6.999,9.846 7.82,10.667 8.833,10.667C9.845,10.667 10.666,9.846 10.666,8.834L10.666,7L25.333,7ZM3.333,18L3.333,30.834C3.333,31.846 4.153,32.667 5.166,32.667L30.833,32.667C31.845,32.667 32.666,31.846 32.666,30.834L32.666,18L3.333,18Z" clip-rule="evenodd" fill-rule="evenodd" fill="#858585"/>
</svg>
