<svg width="24" height="24" viewBox="0 0 24 24" fill="none" xmlns="http://www.w3.org/2000/svg" xmlns:xlink="http://www.w3.org/1999/xlink">
<path d="M3.179,0.822C2.528,0.171 1.473,0.171 0.822,0.822C0.171,1.473 0.171,2.528 0.822,3.179L9.644,12.001L0.822,20.822C0.171,21.473 0.171,22.528 0.822,23.179C1.473,23.83 2.528,23.83 3.179,23.179L12.001,14.358L20.822,23.179C21.473,23.83 22.528,23.83 23.179,23.179C23.83,22.528 23.83,21.473 23.179,20.822L14.358,12.001L23.179,3.179C23.83,2.528 23.83,1.473 23.179,0.822C22.528,0.171 21.473,0.171 20.822,0.822L12.001,9.644L3.179,0.822Z" fill="#33383F"/>
</svg>
