<svg width="48" height="48" viewBox="0 0 48 48" fill="none" xmlns="http://www.w3.org/2000/svg" xmlns:xlink="http://www.w3.org/1999/xlink">
<path d="M30,42C30,43.105 30.895,44 32,44C33.105,44 34,43.105 34,42L30,42ZM32,38L34,38L32,38ZM24,30L24,28L24,30ZM10,30L10,28L10,30ZM2,38L0,38L2,38ZM0,42C0,43.105 0.895,44 2,44C3.105,44 4,43.105 4,42L0,42ZM34,42L34,38L30,38L30,42L34,42ZM34,38C34,35.348 32.946,32.804 31.071,30.929L28.243,33.757C29.368,34.883 30,36.409 30,38L34,38ZM31.071,30.929C29.196,29.054 26.652,28 24,28L24,32C25.591,32 27.117,32.632 28.243,33.757L31.071,30.929ZM24,28L10,28L10,32L24,32L24,28ZM10,28C7.348,28 4.804,29.054 2.929,30.929L5.757,33.757C6.883,32.632 8.409,32 10,32L10,28ZM2.929,30.929C1.054,32.804 0,35.348 0,38L4,38C4,36.409 4.632,34.883 5.757,33.757L2.929,30.929ZM0,38L0,42L4,42L4,38L0,38Z" fill="#000000"/>
<path d="M23,14C23,17.314 20.314,20 17,20L17,24C22.523,24 27,19.523 27,14L23,14ZM17,20C13.686,20 11,17.314 11,14L7,14C7,19.523 11.477,24 17,24L17,20ZM11,14C11,10.686 13.686,8 17,8L17,4C11.477,4 7,8.477 7,14L11,14ZM17,8C20.314,8 23,10.686 23,14L27,14C27,8.477 22.523,4 17,4L17,8Z" fill="#000000"/>
<line x1="38" y1="16" x2="38" y2="28" stroke="#000000" stroke-width="2" stroke-miterlimit="3.999327" stroke-linecap="round" stroke-linejoin="round"/>
<line x1="34" y1="20" x2="46" y2="20" stroke="#000000" stroke-width="2" stroke-miterlimit="3.999327" stroke-linecap="round" stroke-linejoin="round"/>
</svg>
