<svg width="20" height="12" viewBox="0 0 20 12" fill="none" xmlns="http://www.w3.org/2000/svg" xmlns:xlink="http://www.w3.org/1999/xlink">
<path d="M19.066,3.42C19.85,2.641 19.854,1.375 19.076,0.591C18.298,-0.193 17.032,-0.198 16.248,0.58L19.066,3.42ZM9.596,10L8.187,11.42C8.967,12.193 10.225,12.193 11.005,11.42L9.596,10ZM2.944,0.58C2.16,-0.198 0.894,-0.193 0.116,0.591C-0.662,1.375 -0.658,2.641 0.126,3.42L2.944,0.58ZM16.248,0.58L8.187,8.58L11.005,11.42L19.066,3.42L16.248,0.58ZM11.005,8.58L2.944,0.58L0.126,3.42L8.187,11.42L11.005,8.58Z" transform="rotate(0 9.596 6)" fill="#363636"/>
</svg>
