<svg width="26" height="14" viewBox="0 0 26 14" fill="none" xmlns="http://www.w3.org/2000/svg" xmlns:xlink="http://www.w3.org/1999/xlink">
<path d="M23.942,3.414C24.723,2.633 24.723,1.367 23.942,0.586C23.161,-0.195 21.894,-0.195 21.113,0.586L23.942,3.414ZM12.527,12L11.113,13.414C11.894,14.195 13.161,14.195 13.942,13.414L12.527,12ZM3.942,0.586C3.161,-0.195 1.894,-0.195 1.113,0.586C0.332,1.367 0.332,2.633 1.113,3.414L3.942,0.586ZM21.113,0.586L11.113,10.586L13.942,13.414L23.942,3.414L21.113,0.586ZM13.942,10.586L3.942,0.586L1.113,3.414L11.113,13.414L13.942,10.586Z" transform="rotate(0 12.527 7)" fill="#363636"/>
</svg>
