<svg width="40" height="40" viewBox="0 0 40 40" fill="none" xmlns="http://www.w3.org/2000/svg" xmlns:xlink="http://www.w3.org/1999/xlink">
<path d="M20,0C16.044,0 12.178,1.173 8.889,3.371C5.6,5.568 3.036,8.692 1.522,12.346C0.009,16.001 -0.387,20.022 0.384,23.902C1.156,27.781 3.061,31.345 5.858,34.142C8.655,36.939 12.219,38.844 16.098,39.616C19.978,40.387 23.999,39.991 27.654,38.478C31.308,36.964 34.432,34.4 36.629,31.111C38.827,27.822 40,23.956 40,20C39.994,14.697 37.885,9.614 34.136,5.864C30.386,2.115 25.303,0.006 20,0ZM20,36.667C16.704,36.667 13.481,35.689 10.74,33.858C8,32.026 5.863,29.423 4.602,26.378C3.341,23.333 3.01,19.982 3.654,16.749C4.297,13.515 5.884,10.546 8.215,8.215C10.546,5.884 13.515,4.297 16.749,3.654C19.982,3.011 23.333,3.341 26.378,4.602C29.424,5.863 32.026,8 33.858,10.74C35.689,13.481 36.667,16.704 36.667,20C36.662,24.419 34.904,28.655 31.78,31.78C28.655,34.904 24.419,36.662 20,36.667ZM28.333,20C28.333,20.442 28.158,20.866 27.845,21.179C27.533,21.491 27.109,21.667 26.667,21.667L21.667,21.667L21.667,26.667C21.667,27.109 21.491,27.533 21.179,27.845C20.866,28.158 20.442,28.333 20,28.333C19.558,28.333 19.134,28.158 18.821,27.845C18.509,27.533 18.333,27.109 18.333,26.667L18.333,21.667L13.333,21.667C12.891,21.667 12.467,21.491 12.155,21.179C11.842,20.866 11.667,20.442 11.667,20C11.667,19.558 11.842,19.134 12.155,18.821C12.467,18.509 12.891,18.333 13.333,18.333L18.333,18.333L18.333,13.333C18.333,12.891 18.509,12.467 18.821,12.155C19.134,11.842 19.558,11.667 20,11.667C20.442,11.667 20.866,11.842 21.179,12.155C21.491,12.467 21.667,12.891 21.667,13.333L21.667,18.333L26.667,18.333C27.109,18.333 27.533,18.509 27.845,18.821C28.158,19.134 28.333,19.558 28.333,20Z" fill="#FFFFFF"/>
</svg>
