<svg width="48" height="48" viewBox="0 0 48 48" fill="none" xmlns="http://www.w3.org/2000/svg" xmlns:xlink="http://www.w3.org/1999/xlink">
<path d="M24,0C10.767,0 0,10.767 0,24C0,37.233 10.767,48 24,48C37.233,48 48,37.233 48,24C48,10.767 37.233,0 24,0ZM36.49,15.957L20.983,34.418C20.813,34.621 20.601,34.784 20.362,34.898C20.123,35.012 19.863,35.073 19.598,35.077L19.567,35.077C19.308,35.077 19.052,35.022 18.816,34.917C18.58,34.812 18.368,34.658 18.195,34.465L11.549,27.081C11.38,26.902 11.249,26.691 11.163,26.46C11.077,26.23 11.037,25.984 11.048,25.739C11.058,25.493 11.117,25.251 11.221,25.029C11.326,24.806 11.474,24.607 11.657,24.442C11.84,24.277 12.054,24.151 12.286,24.07C12.519,23.99 12.765,23.956 13.011,23.972C13.256,23.988 13.496,24.052 13.716,24.162C13.936,24.272 14.132,24.425 14.293,24.612L19.518,30.418L33.663,13.582C33.981,13.215 34.43,12.988 34.913,12.949C35.397,12.911 35.876,13.064 36.247,13.376C36.619,13.688 36.852,14.134 36.898,14.616C36.943,15.099 36.797,15.581 36.49,15.957L36.49,15.957Z" fill="#219653"/>
</svg>
