<svg width="48" height="48" viewBox="0 0 48 48" fill="none" xmlns="http://www.w3.org/2000/svg" xmlns:xlink="http://www.w3.org/1999/xlink">
<path d="M43.506,1.926C40.938,-0.642 36.774,-0.642 34.206,1.926L3.173,32.959C2.255,33.877 1.629,35.047 1.374,36.319L0.088,42.754C-0.526,45.821 2.179,48.526 5.246,47.912L11.68,46.626C12.953,46.371 14.123,45.745 15.041,44.827L46.074,13.794C48.642,11.226 48.642,7.062 46.074,4.494L43.506,1.926ZM37.306,5.026C38.162,4.17 39.55,4.17 40.406,5.026L42.974,7.594C43.83,8.45 43.83,9.838 42.974,10.694L37.118,16.55L31.45,10.882L37.306,5.026ZM28.35,13.982L6.273,36.059C5.967,36.365 5.758,36.755 5.673,37.179L4.386,43.614L10.821,42.327C11.245,42.242 11.635,42.033 11.941,41.727L34.018,19.65L28.35,13.982Z" clip-rule="evenodd" fill-rule="evenodd" fill="#9F9F9F"/>
</svg>
