<svg width="22" height="22" viewBox="0 0 22 22" fill="none" xmlns="http://www.w3.org/2000/svg" xmlns:xlink="http://www.w3.org/1999/xlink">
<path d="M7.732,18.485C7.732,19.738 8.748,20.754 10,20.754C11.253,20.754 12.269,19.738 12.269,18.485L7.732,18.485ZM12.269,10C12.269,8.748 11.253,7.732 10,7.732C8.748,7.732 7.732,8.748 7.732,10L12.269,10ZM7.732,10C7.732,11.253 8.748,12.269 10,12.269C11.253,12.269 12.269,11.253 12.269,10L7.732,10ZM12.269,1.516C12.269,0.263 11.253,-0.753 10,-0.753C8.748,-0.753 7.732,0.263 7.732,1.516L12.269,1.516ZM10,7.732C8.748,7.732 7.732,8.748 7.732,10C7.732,11.253 8.748,12.269 10,12.269L10,7.732ZM18.485,12.269C19.738,12.269 20.754,11.253 20.754,10C20.754,8.748 19.738,7.732 18.485,7.732L18.485,12.269ZM10,12.269C11.253,12.269 12.269,11.253 12.269,10C12.269,8.748 11.253,7.732 10,7.732L10,12.269ZM1.516,7.732C0.263,7.732 -0.753,8.748 -0.753,10C-0.753,11.253 0.263,12.269 1.516,12.269L1.516,7.732ZM12.269,18.485L12.269,10L7.732,10L7.732,18.485L12.269,18.485ZM12.269,10L12.269,1.516L7.732,1.516L7.732,10L12.269,10ZM10,12.269L18.485,12.269L18.485,7.732L10,7.732L10,12.269ZM10,7.732L1.516,7.732L1.516,12.269L10,12.269L10,7.732Z" fill="#FFFFFF"/>
</svg>
