<svg width="20" height="20" viewBox="0 0 20 20" fill="none" xmlns="http://www.w3.org/2000/svg" xmlns:xlink="http://www.w3.org/1999/xlink">
<path d="M7.732,16.788C7.732,18.041 8.748,19.057 10.001,19.057C11.254,19.057 12.269,18.041 12.269,16.788L7.732,16.788ZM12.269,10.001C12.269,8.748 11.254,7.732 10.001,7.732C8.748,7.732 7.732,8.748 7.732,10.001L12.269,10.001ZM7.732,10.001C7.732,11.253 8.748,12.269 10.001,12.269C11.254,12.269 12.269,11.253 12.269,10.001L7.732,10.001ZM12.269,3.213C12.269,1.96 11.254,0.944 10.001,0.944C8.748,0.944 7.732,1.96 7.732,3.213L12.269,3.213ZM10.001,7.732C8.748,7.732 7.732,8.748 7.732,10.001C7.732,11.253 8.748,12.269 10.001,12.269L10.001,7.732ZM16.789,12.269C18.042,12.269 19.057,11.253 19.057,10.001C19.057,8.748 18.042,7.732 16.789,7.732L16.789,12.269ZM10.001,12.269C11.254,12.269 12.269,11.253 12.269,10.001C12.269,8.748 11.254,7.732 10.001,7.732L10.001,12.269ZM3.213,7.732C1.96,7.732 0.944,8.748 0.944,10.001C0.944,11.253 1.96,12.269 3.213,12.269L3.213,7.732ZM12.269,16.788L12.269,10.001L7.732,10.001L7.732,16.788L12.269,16.788ZM12.269,10.001L12.269,3.213L7.732,3.213L7.732,10.001L12.269,10.001ZM10.001,12.269L16.789,12.269L16.789,7.732L10.001,7.732L10.001,12.269ZM10.001,7.732L3.213,7.732L3.213,12.269L10.001,12.269L10.001,7.732Z" fill="#FFFFFF"/>
</svg>
