<svg width="18" height="32" viewBox="0 0 18 32" fill="none" xmlns="http://www.w3.org/2000/svg" xmlns:xlink="http://www.w3.org/1999/xlink">
<path d="M1.252,27.92C0.471,28.701 0.471,29.967 1.252,30.748C2.034,31.529 3.3,31.529 4.081,30.748L1.252,27.92ZM16,16.001L17.414,17.415C18.195,16.634 18.195,15.367 17.414,14.586L16,16.001ZM4.081,1.253C3.3,0.472 2.034,0.472 1.252,1.253C0.471,2.034 0.471,3.3 1.252,4.082L4.081,1.253ZM4.081,30.748L17.414,17.415L14.586,14.586L1.252,27.92L4.081,30.748ZM17.414,14.586L4.081,1.253L1.252,4.082L14.586,17.415L17.414,14.586Z" transform="rotate(-360 9.333 16.001)" fill="#6C5DD3"/>
</svg>
