<svg width="30" height="26" viewBox="0 0 30 26" fill="none" xmlns="http://www.w3.org/2000/svg" xmlns:xlink="http://www.w3.org/1999/xlink">
<path d="M29.415,3.414C30.196,2.632 30.195,1.366 29.414,0.585C28.632,-0.196 27.366,-0.195 26.585,0.586L29.415,3.414ZM8,22.02L6.586,23.434C6.961,23.809 7.47,24.02 8,24.02C8.531,24.02 9.04,23.809 9.415,23.434L8,22.02ZM3.414,14.606C2.633,13.825 1.367,13.825 0.586,14.606C-0.195,15.387 -0.195,16.653 0.586,17.434L3.414,14.606ZM26.585,0.586L6.585,20.607L9.415,23.434L29.415,3.414L26.585,0.586ZM9.414,20.606L3.414,14.606L0.586,17.434L6.586,23.434L9.414,20.606Z" fill="#858585"/>
</svg>
