<svg width="22" height="12" viewBox="0 0 22 12" fill="none" xmlns="http://www.w3.org/2000/svg" xmlns:xlink="http://www.w3.org/1999/xlink">
<path d="M20.018,3.441C20.814,2.676 20.839,1.409 20.073,0.613C19.307,-0.183 18.041,-0.207 17.245,0.559L20.018,3.441ZM10.316,10L8.929,11.441C9.703,12.186 10.928,12.186 11.702,11.441L10.316,10ZM3.386,0.559C2.59,-0.207 1.324,-0.183 0.558,0.613C-0.208,1.409 -0.183,2.676 0.613,3.441L3.386,0.559ZM17.245,0.559L8.929,8.559L11.702,11.441L20.018,3.441L17.245,0.559ZM11.702,8.559L3.386,0.559L0.613,3.441L8.929,11.441L11.702,8.559Z" transform="rotate(-360 10.316 6)" fill="#363636"/>
</svg>
