<svg width="22" height="36" viewBox="0 0 22 36" fill="none" xmlns="http://www.w3.org/2000/svg" xmlns:xlink="http://www.w3.org/1999/xlink">
<path d="M19.441,16.107L4.347,1.041C4.099,0.791 3.804,0.592 3.479,0.457C3.155,0.322 2.806,0.252 2.454,0.252C2.102,0.252 1.753,0.322 1.428,0.457C1.103,0.592 0.809,0.791 0.561,1.041C0.064,1.54 -0.215,2.216 -0.215,2.921C-0.215,3.625 0.064,4.301 0.561,4.801L13.761,18.134L0.561,31.334C0.064,31.834 -0.215,32.51 -0.215,33.214C-0.215,33.919 0.064,34.594 0.561,35.094C0.808,35.346 1.102,35.547 1.427,35.684C1.752,35.821 2.101,35.893 2.454,35.894C2.807,35.893 3.156,35.821 3.481,35.684C3.806,35.547 4.1,35.346 4.347,35.094L19.441,20.027C19.711,19.778 19.927,19.475 20.075,19.137C20.223,18.8 20.299,18.436 20.299,18.067C20.299,17.699 20.223,17.335 20.075,16.998C19.927,16.66 19.711,16.357 19.441,16.107L19.441,16.107Z" fill="#6C5DD3"/>
</svg>
