<svg width="36" height="36" viewBox="0 0 36 36" fill="none" xmlns="http://www.w3.org/2000/svg" xmlns:xlink="http://www.w3.org/1999/xlink">
<path d="M18,0C14.44,0 10.96,1.056 8,3.034C5.04,5.011 2.733,7.823 1.37,11.112C0.008,14.401 -0.349,18.02 0.346,21.512C1.04,25.003 2.755,28.211 5.272,30.728C7.789,33.245 10.997,34.96 14.488,35.654C17.98,36.349 21.599,35.992 24.888,34.63C28.177,33.267 30.989,30.96 32.966,28C34.944,25.04 36,21.56 36,18C35.995,13.228 34.097,8.652 30.722,5.278C27.348,1.903 22.772,0.005 18,0ZM18,33C15.033,33 12.133,32.12 9.666,30.472C7.2,28.824 5.277,26.481 4.142,23.74C3.006,20.999 2.709,17.983 3.288,15.074C3.867,12.164 5.296,9.491 7.393,7.393C9.491,5.296 12.164,3.867 15.074,3.288C17.983,2.709 20.999,3.006 23.74,4.142C26.481,5.277 28.824,7.2 30.472,9.666C32.12,12.133 33,15.033 33,18C32.996,21.977 31.414,25.79 28.602,28.602C25.79,31.414 21.977,32.996 18,33ZM25.5,18C25.5,18.398 25.342,18.779 25.061,19.061C24.779,19.342 24.398,19.5 24,19.5L19.5,19.5L19.5,24C19.5,24.398 19.342,24.779 19.061,25.061C18.779,25.342 18.398,25.5 18,25.5C17.602,25.5 17.221,25.342 16.939,25.061C16.658,24.779 16.5,24.398 16.5,24L16.5,19.5L12,19.5C11.602,19.5 11.221,19.342 10.939,19.061C10.658,18.779 10.5,18.398 10.5,18C10.5,17.602 10.658,17.221 10.939,16.939C11.221,16.658 11.602,16.5 12,16.5L16.5,16.5L16.5,12C16.5,11.602 16.658,11.221 16.939,10.939C17.221,10.658 17.602,10.5 18,10.5C18.398,10.5 18.779,10.658 19.061,10.939C19.342,11.221 19.5,11.602 19.5,12L19.5,16.5L24,16.5C24.398,16.5 24.779,16.658 25.061,16.939C25.342,17.221 25.5,17.602 25.5,18Z" fill="#B6B6B6"/>
</svg>
