<svg width="16" height="28" viewBox="0 0 16 28" fill="none" xmlns="http://www.w3.org/2000/svg" xmlns:xlink="http://www.w3.org/1999/xlink">
<path d="M12.586,26.081C13.367,26.862 14.634,26.862 15.415,26.081C16.196,25.3 16.196,24.034 15.415,23.253L12.586,26.081ZM2.334,13L0.92,11.586C0.139,12.367 0.139,13.633 0.92,14.414L2.334,13ZM15.415,2.748C16.196,1.967 16.196,0.7 15.415,-0.081C14.634,-0.862 13.367,-0.862 12.586,-0.081L15.415,2.748ZM15.415,23.253L3.748,11.586L0.92,14.414L12.586,26.081L15.415,23.253ZM3.748,14.414L15.415,2.748L12.586,-0.081L0.92,11.586L3.748,14.414Z" fill="#6C5DD3"/>
</svg>
