<svg width="44" height="44" viewBox="0 0 44 44" fill="none" xmlns="http://www.w3.org/2000/svg" xmlns:xlink="http://www.w3.org/1999/xlink">
<path d="M44,20.16C44,19.055 43.105,18.16 42,18.16C40.895,18.16 40,19.055 40,20.16L44,20.16ZM42,22L44,22.001L44,22L42,22ZM29.326,5.547C30.335,5.996 31.517,5.543 31.967,4.534C32.416,3.525 31.963,2.342 30.954,1.893L29.326,5.547ZM40,20.16L40,22L44,22L44,20.16L40,20.16ZM40,21.999C39.998,25.88 38.741,29.657 36.417,32.766L39.621,35.161C42.461,31.361 43.997,26.745 44,22.001L40,21.999ZM36.417,32.766C34.093,35.875 30.826,38.149 27.104,39.25L28.238,43.085C32.787,41.74 36.78,38.961 39.621,35.161L36.417,32.766ZM27.104,39.25C23.381,40.35 19.403,40.218 15.762,38.873L14.376,42.625C18.826,44.269 23.688,44.43 28.238,43.085L27.104,39.25ZM15.762,38.873C12.121,37.528 9.012,35.041 6.9,31.785L3.544,33.962C6.126,37.942 9.926,40.981 14.376,42.625L15.762,38.873ZM6.9,31.785C4.787,28.529 3.784,24.677 4.039,20.804L0.048,20.541C-0.264,25.275 0.962,29.982 3.544,33.962L6.9,31.785ZM4.039,20.804C4.294,16.931 5.795,13.244 8.317,10.293L5.276,7.694C2.194,11.301 0.36,15.807 0.048,20.541L4.039,20.804ZM8.317,10.293C10.839,7.343 14.247,5.286 18.033,4.431L17.152,0.529C12.524,1.575 8.359,4.088 5.276,7.694L8.317,10.293ZM18.033,4.431C21.819,3.575 25.78,3.967 29.326,5.547L30.954,1.893C26.621,-0.038 21.779,-0.516 17.152,0.529L18.033,4.431Z" fill="#858585"/>
</svg>
