<svg width="18" height="30" viewBox="0 0 18 30" fill="none" xmlns="http://www.w3.org/2000/svg" xmlns:xlink="http://www.w3.org/1999/xlink">
<path d="M13.169,28.498C13.95,29.279 15.216,29.279 15.998,28.498C16.779,27.717 16.779,26.451 15.998,25.669L13.169,28.498ZM2.5,15L1.086,13.586C0.305,14.367 0.305,15.633 1.086,16.415L2.5,15ZM15.998,4.331C16.779,3.55 16.779,2.284 15.998,1.503C15.216,0.722 13.95,0.722 13.169,1.503L15.998,4.331ZM15.998,25.669L3.914,13.586L1.086,16.415L13.169,28.498L15.998,25.669ZM3.914,16.415L15.998,4.331L13.169,1.503L1.086,13.586L3.914,16.415Z" fill="#858585"/>
</svg>
