<svg width="24" height="14" viewBox="0 0 24 14" fill="none" xmlns="http://www.w3.org/2000/svg" xmlns:xlink="http://www.w3.org/1999/xlink">
<path d="M23.07,3.414C23.851,2.633 23.851,1.367 23.07,0.586C22.289,-0.195 21.023,-0.195 20.242,0.586L23.07,3.414ZM11.656,12L10.242,13.414C11.023,14.195 12.289,14.195 13.07,13.414L11.656,12ZM3.07,0.586C2.289,-0.195 1.023,-0.195 0.242,0.586C-0.539,1.367 -0.539,2.633 0.242,3.414L3.07,0.586ZM20.242,0.586L10.242,10.586L13.07,13.414L23.07,3.414L20.242,0.586ZM13.07,10.586L3.07,0.586L0.242,3.414L10.242,13.414L13.07,10.586Z" transform="rotate(-360 11.656 7)" fill="#363636"/>
</svg>
