<svg width="20" height="12" viewBox="0 0 20 12" fill="none" xmlns="http://www.w3.org/2000/svg" xmlns:xlink="http://www.w3.org/1999/xlink">
<path d="M19.387,3.441C20.183,2.676 20.207,1.409 19.441,0.613C18.676,-0.183 17.409,-0.207 16.613,0.559L19.387,3.441ZM9.684,10L8.297,11.441C9.072,12.186 10.296,12.186 11.07,11.441L9.684,10ZM2.754,0.559C1.958,-0.207 0.692,-0.183 -0.074,0.613C-0.839,1.409 -0.815,2.676 -0.019,3.441L2.754,0.559ZM16.613,0.559L8.297,8.559L11.07,11.441L19.387,3.441L16.613,0.559ZM11.07,8.559L2.754,0.559L-0.019,3.441L8.297,11.441L11.07,8.559Z" transform="rotate(-360 9.684 6)" fill="#363636"/>
</svg>
