<svg width="18" height="34" viewBox="0 0 18 34" fill="none" xmlns="http://www.w3.org/2000/svg" xmlns:xlink="http://www.w3.org/1999/xlink">
<path d="M0.36,29.378C-0.388,30.191 -0.335,31.456 0.478,32.204C1.291,32.951 2.556,32.899 3.304,32.086L0.36,29.378ZM14.844,16.585L16.316,17.939C17.02,17.174 17.02,15.997 16.316,15.231L14.844,16.585ZM3.304,1.085C2.556,0.272 1.291,0.219 0.478,0.967C-0.335,1.715 -0.388,2.98 0.36,3.793L3.304,1.085ZM3.304,32.086L16.316,17.939L13.372,15.231L0.36,29.378L3.304,32.086ZM16.316,15.231L3.304,1.085L0.36,3.793L13.372,17.939L16.316,15.231Z" fill="#6C5DD3"/>
</svg>
