<svg width="20" height="12" viewBox="0 0 20 12" fill="none" xmlns="http://www.w3.org/2000/svg" xmlns:xlink="http://www.w3.org/1999/xlink">
<path d="M19.067,3.42C19.851,2.641 19.856,1.375 19.078,0.591C18.3,-0.193 17.033,-0.198 16.249,0.58L19.067,3.42ZM9.597,10L8.189,11.42C8.968,12.193 10.226,12.193 11.006,11.42L9.597,10ZM2.945,0.58C2.161,-0.198 0.895,-0.193 0.117,0.591C-0.661,1.375 -0.656,2.641 0.128,3.42L2.945,0.58ZM16.249,0.58L8.189,8.58L11.006,11.42L19.067,3.42L16.249,0.58ZM11.006,8.58L2.945,0.58L0.128,3.42L8.189,11.42L11.006,8.58Z" transform="rotate(-360 9.597 6)" fill="#363636"/>
</svg>
