<svg width="16" height="24" viewBox="0 0 16 24" fill="none" xmlns="http://www.w3.org/2000/svg" xmlns:xlink="http://www.w3.org/1999/xlink">
<path d="M1.579,20.534C0.77,21.285 0.722,22.55 1.473,23.36C2.224,24.17 3.49,24.218 4.299,23.466L1.579,20.534ZM13.723,12L15.083,13.466C15.491,13.088 15.723,12.557 15.723,12C15.723,11.443 15.491,10.912 15.083,10.534L13.723,12ZM4.299,0.534C3.49,-0.218 2.224,-0.17 1.473,0.64C0.722,1.45 0.77,2.715 1.579,3.466L4.299,0.534ZM4.299,23.466L15.083,13.466L12.363,10.534L1.579,20.534L4.299,23.466ZM15.083,10.534L4.299,0.534L1.579,3.466L12.363,13.466L15.083,10.534Z" fill="#B6B6B6"/>
</svg>
