<svg width="16" height="24" viewBox="0 0 16 24" fill="none" xmlns="http://www.w3.org/2000/svg" xmlns:xlink="http://www.w3.org/1999/xlink">
<path d="M0.675,20.534C-0.135,21.285 -0.182,22.55 0.569,23.36C1.32,24.17 2.585,24.218 3.395,23.466L0.675,20.534ZM12.818,12L14.178,13.466C14.586,13.088 14.818,12.557 14.818,12C14.818,11.443 14.586,10.912 14.178,10.534L12.818,12ZM3.395,0.534C2.585,-0.218 1.32,-0.17 0.569,0.64C-0.182,1.45 -0.135,2.715 0.675,3.466L3.395,0.534ZM3.395,23.466L14.178,13.466L11.458,10.534L0.675,20.534L3.395,23.466ZM14.178,10.534L3.395,0.534L0.675,3.466L11.458,13.466L14.178,10.534Z" fill="#B6B6B6"/>
</svg>
