<svg width="12" height="18" viewBox="0 0 12 18" fill="none" xmlns="http://www.w3.org/2000/svg" xmlns:xlink="http://www.w3.org/1999/xlink">
<path d="M10.72,7.053L3.174,-0.481C3.05,-0.606 2.902,-0.705 2.74,-0.772C2.577,-0.84 2.403,-0.875 2.227,-0.875C2.051,-0.875 1.877,-0.84 1.714,-0.772C1.552,-0.705 1.404,-0.606 1.28,-0.481C1.032,-0.231 0.893,0.107 0.893,0.459C0.893,0.812 1.032,1.15 1.28,1.399L7.88,8.066L1.28,14.666C1.032,14.916 0.893,15.254 0.893,15.606C0.893,15.958 1.032,16.296 1.28,16.546C1.404,16.672 1.551,16.772 1.714,16.841C1.876,16.91 2.051,16.945 2.227,16.946C2.403,16.945 2.578,16.91 2.74,16.841C2.903,16.772 3.05,16.672 3.174,16.546L10.72,9.013C10.856,8.888 10.964,8.736 11.038,8.568C11.111,8.399 11.15,8.217 11.15,8.033C11.15,7.849 11.111,7.666 11.038,7.498C10.964,7.329 10.856,7.178 10.72,7.053L10.72,7.053Z" fill="#121212"/>
</svg>
