<svg width="44" height="44" viewBox="0 0 44 44" fill="none" xmlns="http://www.w3.org/2000/svg" xmlns:xlink="http://www.w3.org/1999/xlink">
<path d="M22,2L23.793,1.115C23.456,0.432 22.761,0 22,0C21.239,0 20.544,0.432 20.207,1.115L22,2ZM28.18,14.52L26.387,15.405C26.678,15.995 27.24,16.404 27.891,16.499L28.18,14.52ZM42,16.54L43.395,17.973C43.941,17.442 44.137,16.647 43.902,15.923C43.668,15.199 43.042,14.671 42.289,14.561L42,16.54ZM32,26.28L30.605,24.847C30.133,25.307 29.917,25.969 30.029,26.618L32,26.28ZM34.36,40.04L33.429,41.81C34.103,42.165 34.92,42.106 35.535,41.658C36.151,41.211 36.46,40.452 36.331,39.702L34.36,40.04ZM22,33.54L22.931,31.77C22.348,31.463 21.652,31.463 21.069,31.77L22,33.54ZM9.64,40.04L7.669,39.702C7.54,40.452 7.849,41.211 8.465,41.658C9.08,42.106 9.897,42.165 10.571,41.81L9.64,40.04ZM12,26.28L13.971,26.618C14.083,25.969 13.867,25.307 13.395,24.847L12,26.28ZM2,16.54L1.711,14.561C0.958,14.671 0.332,15.199 0.098,15.923C-0.137,16.647 0.059,17.442 0.605,17.973L2,16.54ZM15.82,14.52L16.109,16.499C16.76,16.404 17.322,15.995 17.613,15.405L15.82,14.52ZM20.207,2.885L26.387,15.405L29.973,13.635L23.793,1.115L20.207,2.885ZM27.891,16.499L41.711,18.519L42.289,14.561L28.469,12.541L27.891,16.499ZM40.605,15.107L30.605,24.847L33.395,27.713L43.395,17.973L40.605,15.107ZM30.029,26.618L32.389,40.378L36.331,39.702L33.971,25.942L30.029,26.618ZM35.291,38.27L22.931,31.77L21.069,35.31L33.429,41.81L35.291,38.27ZM21.069,31.77L8.709,38.27L10.571,41.81L22.931,35.31L21.069,31.77ZM11.611,40.378L13.971,26.618L10.029,25.942L7.669,39.702L11.611,40.378ZM13.395,24.847L3.395,15.107L0.605,17.973L10.605,27.713L13.395,24.847ZM2.289,18.519L16.109,16.499L15.531,12.541L1.711,14.561L2.289,18.519ZM17.613,15.405L23.793,2.885L20.207,1.115L14.027,13.635L17.613,15.405Z" fill="#858585"/>
</svg>
