<svg width="22" height="12" viewBox="0 0 22 12" fill="none" xmlns="http://www.w3.org/2000/svg" xmlns:xlink="http://www.w3.org/1999/xlink">
<path d="M20.02,3.441C20.816,2.676 20.84,1.409 20.075,0.613C19.309,-0.183 18.043,-0.207 17.247,0.559L20.02,3.441ZM10.317,10L8.931,11.441C9.705,12.186 10.929,12.186 11.704,11.441L10.317,10ZM3.388,0.559C2.591,-0.207 1.325,-0.183 0.56,0.613C-0.206,1.409 -0.182,2.676 0.614,3.441L3.388,0.559ZM17.247,0.559L8.931,8.559L11.704,11.441L20.02,3.441L17.247,0.559ZM11.704,8.559L3.388,0.559L0.614,3.441L8.931,11.441L11.704,8.559Z" transform="rotate(0 10.317 6)" fill="#363636"/>
</svg>
