<svg width="14" height="24" viewBox="0 0 14 24" fill="none" xmlns="http://www.w3.org/2000/svg" xmlns:xlink="http://www.w3.org/1999/xlink">
<path d="M11.9,10.817L2.467,1.4C2.312,1.244 2.127,1.12 1.924,1.035C1.721,0.951 1.503,0.907 1.283,0.907C1.063,0.907 0.845,0.951 0.642,1.035C0.439,1.12 0.255,1.244 0.1,1.4C-0.211,1.712 -0.385,2.135 -0.385,2.575C-0.385,3.016 -0.211,3.438 0.1,3.75L8.35,12.084L0.1,20.334C-0.211,20.646 -0.385,21.068 -0.385,21.509C-0.385,21.949 -0.211,22.371 0.1,22.684C0.254,22.841 0.438,22.966 0.641,23.052C0.845,23.138 1.063,23.183 1.283,23.184C1.504,23.183 1.722,23.138 1.925,23.052C2.128,22.966 2.312,22.841 2.467,22.684L11.9,13.267C12.069,13.111 12.204,12.921 12.296,12.711C12.389,12.5 12.436,12.272 12.436,12.042C12.436,11.812 12.389,11.584 12.296,11.373C12.204,11.162 12.069,10.973 11.9,10.817L11.9,10.817Z" fill="#121212"/>
</svg>
