<svg width="22" height="36" viewBox="0 0 22 36" fill="none" xmlns="http://www.w3.org/2000/svg" xmlns:xlink="http://www.w3.org/1999/xlink">
<path d="M19.441,16.106L4.347,1.04C4.099,0.79 3.804,0.591 3.479,0.456C3.155,0.321 2.806,0.251 2.454,0.251C2.102,0.251 1.753,0.321 1.428,0.456C1.103,0.591 0.809,0.79 0.561,1.04C0.064,1.539 -0.215,2.215 -0.215,2.92C-0.215,3.624 0.064,4.3 0.561,4.8L13.761,18.133L0.561,31.333C0.064,31.833 -0.215,32.509 -0.215,33.213C-0.215,33.918 0.064,34.593 0.561,35.093C0.808,35.345 1.102,35.546 1.427,35.683C1.752,35.82 2.101,35.892 2.454,35.893C2.807,35.892 3.156,35.82 3.481,35.683C3.806,35.546 4.1,35.345 4.347,35.093L19.441,20.026C19.711,19.777 19.927,19.474 20.075,19.136C20.223,18.799 20.299,18.435 20.299,18.066C20.299,17.698 20.223,17.334 20.075,16.997C19.927,16.659 19.711,16.356 19.441,16.106L19.441,16.106Z" fill="#6C5DD3"/>
</svg>
