<svg width="22" height="22" viewBox="0 0 22 22" fill="none" xmlns="http://www.w3.org/2000/svg" xmlns:xlink="http://www.w3.org/1999/xlink">
<path d="M7.732,18.484C7.732,19.737 8.748,20.753 10,20.753C11.253,20.753 12.269,19.737 12.269,18.484L7.732,18.484ZM12.269,9.999C12.269,8.747 11.253,7.731 10,7.731C8.748,7.731 7.732,8.747 7.732,9.999L12.269,9.999ZM7.732,9.999C7.732,11.252 8.748,12.268 10,12.268C11.253,12.268 12.269,11.252 12.269,9.999L7.732,9.999ZM12.269,1.515C12.269,0.262 11.253,-0.754 10,-0.754C8.748,-0.754 7.732,0.262 7.732,1.515L12.269,1.515ZM10,7.731C8.748,7.731 7.732,8.747 7.732,9.999C7.732,11.252 8.748,12.268 10,12.268L10,7.731ZM18.485,12.268C19.738,12.268 20.754,11.252 20.754,9.999C20.754,8.747 19.738,7.731 18.485,7.731L18.485,12.268ZM10,12.268C11.253,12.268 12.269,11.252 12.269,9.999C12.269,8.747 11.253,7.731 10,7.731L10,12.268ZM1.516,7.731C0.263,7.731 -0.753,8.747 -0.753,9.999C-0.753,11.252 0.263,12.268 1.516,12.268L1.516,7.731ZM12.269,18.484L12.269,9.999L7.732,9.999L7.732,18.484L12.269,18.484ZM12.269,9.999L12.269,1.515L7.732,1.515L7.732,9.999L12.269,9.999ZM10,12.268L18.485,12.268L18.485,7.731L10,7.731L10,12.268ZM10,7.731L1.516,7.731L1.516,12.268L10,12.268L10,7.731Z" fill="#FFFFFF"/>
</svg>
