<svg width="20" height="20" viewBox="0 0 20 20" fill="none" xmlns="http://www.w3.org/2000/svg" xmlns:xlink="http://www.w3.org/1999/xlink">
<path d="M7.732,16.788C7.732,18.041 8.748,19.056 10.001,19.056C11.254,19.056 12.269,18.041 12.269,16.788L7.732,16.788ZM12.269,10C12.269,8.747 11.254,7.731 10.001,7.731C8.748,7.731 7.732,8.747 7.732,10L12.269,10ZM7.732,10C7.732,11.253 8.748,12.268 10.001,12.268C11.254,12.268 12.269,11.253 12.269,10L7.732,10ZM12.269,3.212C12.269,1.959 11.254,0.943 10.001,0.943C8.748,0.943 7.732,1.959 7.732,3.212L12.269,3.212ZM10.001,7.731C8.748,7.731 7.732,8.747 7.732,10C7.732,11.253 8.748,12.268 10.001,12.268L10.001,7.731ZM16.789,12.268C18.042,12.268 19.057,11.253 19.057,10C19.057,8.747 18.042,7.731 16.789,7.731L16.789,12.268ZM10.001,12.268C11.254,12.268 12.269,11.253 12.269,10C12.269,8.747 11.254,7.731 10.001,7.731L10.001,12.268ZM3.213,7.731C1.96,7.731 0.944,8.747 0.944,10C0.944,11.253 1.96,12.268 3.213,12.268L3.213,7.731ZM12.269,16.788L12.269,10L7.732,10L7.732,16.788L12.269,16.788ZM12.269,10L12.269,3.212L7.732,3.212L7.732,10L12.269,10ZM10.001,12.268L16.789,12.268L16.789,7.731L10.001,7.731L10.001,12.268ZM10.001,7.731L3.213,7.731L3.213,12.268L10.001,12.268L10.001,7.731Z" fill="#FFFFFF"/>
</svg>
