<svg width="26" height="14" viewBox="0 0 26 14" fill="none" xmlns="http://www.w3.org/2000/svg" xmlns:xlink="http://www.w3.org/1999/xlink">
<path d="M23.945,3.414C24.726,2.633 24.726,1.367 23.945,0.586C23.164,-0.195 21.898,-0.195 21.117,0.586L23.945,3.414ZM12.531,12L11.117,13.414C11.898,14.195 13.164,14.195 13.945,13.414L12.531,12ZM3.945,0.586C3.164,-0.195 1.898,-0.195 1.117,0.586C0.336,1.367 0.336,2.633 1.117,3.414L3.945,0.586ZM21.117,0.586L11.117,10.586L13.945,13.414L23.945,3.414L21.117,0.586ZM13.945,10.586L3.945,0.586L1.117,3.414L11.117,13.414L13.945,10.586Z" transform="rotate(0 12.531 7)" fill="#363636"/>
</svg>
