<svg width="18" height="32" viewBox="0 0 18 32" fill="none" xmlns="http://www.w3.org/2000/svg" xmlns:xlink="http://www.w3.org/1999/xlink">
<path d="M0.586,27.92C-0.195,28.701 -0.195,29.967 0.586,30.748C1.367,31.529 2.634,31.529 3.415,30.748L0.586,27.92ZM15.334,16.001L16.748,17.415C17.529,16.634 17.529,15.367 16.748,14.586L15.334,16.001ZM3.415,1.253C2.634,0.472 1.367,0.472 0.586,1.253C-0.195,2.034 -0.195,3.3 0.586,4.082L3.415,1.253ZM3.415,30.748L16.748,17.415L13.92,14.586L0.586,27.92L3.415,30.748ZM16.748,14.586L3.415,1.253L0.586,4.082L13.92,17.415L16.748,14.586Z" transform="rotate(-360 8.667 16.001)" fill="#6C5DD3"/>
</svg>
