<svg width="18" height="34" viewBox="0 0 18 34" fill="none" xmlns="http://www.w3.org/2000/svg" xmlns:xlink="http://www.w3.org/1999/xlink">
<path d="M0.143,29.378C-0.605,30.191 -0.552,31.456 0.261,32.204C1.074,32.951 2.339,32.899 3.087,32.086L0.143,29.378ZM14.627,16.585L16.099,17.939C16.803,17.174 16.803,15.997 16.099,15.231L14.627,16.585ZM3.087,1.085C2.339,0.272 1.074,0.219 0.261,0.967C-0.552,1.715 -0.605,2.98 0.143,3.793L3.087,1.085ZM3.087,32.086L16.099,17.939L13.155,15.231L0.143,29.378L3.087,32.086ZM16.099,15.231L3.087,1.085L0.143,3.793L13.155,17.939L16.099,15.231Z" fill="#6C5DD3"/>
</svg>
