<svg width="16" height="28" viewBox="0 0 16 28" fill="none" xmlns="http://www.w3.org/2000/svg" xmlns:xlink="http://www.w3.org/1999/xlink">
<path d="M12.252,26.081C13.034,26.862 14.3,26.862 15.081,26.081C15.862,25.299 15.862,24.033 15.081,23.252L12.252,26.081ZM2,13L0.586,11.585C-0.195,12.367 -0.195,13.633 0.586,14.414L2,13ZM15.081,2.747C15.862,1.966 15.862,0.7 15.081,-0.081C14.3,-0.862 13.034,-0.862 12.252,-0.081L15.081,2.747ZM15.081,23.252L3.414,11.585L0.586,14.414L12.252,26.081L15.081,23.252ZM3.414,14.414L15.081,2.747L12.252,-0.081L0.586,11.585L3.414,14.414Z" fill="#6C5DD3"/>
</svg>
