<svg width="16" height="30" viewBox="0 0 16 30" fill="none" xmlns="http://www.w3.org/2000/svg" xmlns:xlink="http://www.w3.org/1999/xlink">
<path d="M12.085,28.498C12.866,29.279 14.133,29.279 14.914,28.498C15.695,27.717 15.695,26.451 14.914,25.669L12.085,28.498ZM1.416,15L0.002,13.586C-0.779,14.367 -0.779,15.633 0.002,16.415L1.416,15ZM14.914,4.331C15.695,3.55 15.695,2.284 14.914,1.503C14.133,0.722 12.866,0.722 12.085,1.503L14.914,4.331ZM14.914,25.669L2.83,13.586L0.002,16.415L12.085,28.498L14.914,25.669ZM2.83,16.415L14.914,4.331L12.085,1.503L0.002,13.586L2.83,16.415Z" fill="#858585"/>
</svg>
