<svg width="14" height="24" viewBox="0 0 14 24" fill="none" xmlns="http://www.w3.org/2000/svg" xmlns:xlink="http://www.w3.org/1999/xlink">
<path d="M10.586,23.414C11.367,24.195 12.633,24.195 13.414,23.414C14.195,22.633 14.195,21.367 13.414,20.586L10.586,23.414ZM2,12L0.586,10.586C-0.195,11.367 -0.195,12.633 0.586,13.414L2,12ZM13.414,3.414C14.195,2.633 14.195,1.367 13.414,0.586C12.633,-0.195 11.367,-0.195 10.586,0.586L13.414,3.414ZM13.414,20.586L3.414,10.586L0.586,13.414L10.586,23.414L13.414,20.586ZM3.414,13.414L13.414,3.414L10.586,0.586L0.586,10.586L3.414,13.414Z" transform="rotate(-360 7 12)" fill="#000000"/>
</svg>
