<svg width="56" height="56" viewBox="0 0 56 56" fill="none" xmlns="http://www.w3.org/2000/svg" xmlns:xlink="http://www.w3.org/1999/xlink">
<path d="M43.414,15.414C44.195,14.633 44.195,13.367 43.414,12.586C42.633,11.805 41.367,11.805 40.586,12.586L43.414,15.414ZM12.586,40.586C11.805,41.367 11.805,42.633 12.586,43.414C13.367,44.195 14.633,44.195 15.414,43.414L12.586,40.586ZM40.586,12.586L12.586,40.586L15.414,43.414L43.414,15.414L40.586,12.586Z" fill="#000000"/>
<path d="M15.414,12.586C14.633,11.805 13.367,11.805 12.586,12.586C11.805,13.367 11.805,14.633 12.586,15.414L15.414,12.586ZM40.586,43.414C41.367,44.195 42.633,44.195 43.414,43.414C44.195,42.633 44.195,41.367 43.414,40.586L40.586,43.414ZM12.586,15.414L40.586,43.414L43.414,40.586L15.414,12.586L12.586,15.414Z" fill="#000000"/>
</svg>
