<svg width="56" height="56" viewBox="0 0 56 56" fill="none" xmlns="http://www.w3.org/2000/svg" xmlns:xlink="http://www.w3.org/1999/xlink">
<path d="M49.335,27.999C49.335,39.781 39.783,49.333 28.001,49.333L28.001,53.333C41.993,53.333 53.335,41.991 53.335,27.999L49.335,27.999ZM28.001,49.333C16.219,49.333 6.668,39.781 6.668,27.999L2.668,27.999C2.668,41.991 14.01,53.333 28.001,53.333L28.001,49.333ZM6.668,27.999C6.668,16.217 16.219,6.666 28.001,6.666L28.001,2.666C14.01,2.666 2.668,14.008 2.668,27.999L6.668,27.999ZM28.001,6.666C39.783,6.666 49.335,16.217 49.335,27.999L53.335,27.999C53.335,14.008 41.993,2.666 28.001,2.666L28.001,6.666Z" fill="#858585"/>
<path d="M36.414,22.414C37.195,21.633 37.195,20.367 36.414,19.586C35.633,18.805 34.367,18.805 33.586,19.586L36.414,22.414ZM19.586,33.586C18.805,34.367 18.805,35.633 19.586,36.414C20.367,37.195 21.633,37.195 22.414,36.414L19.586,33.586ZM33.586,19.586L19.586,33.586L22.414,36.414L36.414,22.414L33.586,19.586Z" fill="#858585"/>
<path d="M22.414,19.586C21.633,18.805 20.367,18.805 19.586,19.586C18.805,20.367 18.805,21.633 19.586,22.414L22.414,19.586ZM33.586,36.414C34.367,37.195 35.633,37.195 36.414,36.414C37.195,35.633 37.195,34.367 36.414,33.586L33.586,36.414ZM19.586,22.414L33.586,36.414L36.414,33.586L22.414,19.586L19.586,22.414Z" fill="#858585"/>
</svg>
